<?xml version="1.0" encoding="UTF-8"?>
<svg width="19px" height="20px" viewBox="0 0 19 20" version="1.1" xmlns="http://www.w3.org/2000/svg" xmlns:xlink="http://www.w3.org/1999/xlink">
    <!-- Generator: Sketch 52.3 (67297) - http://www.bohemiancoding.com/sketch -->
    <title>bx-share-alt</title>
    <desc>Created with Sketch.</desc>
    <g id="20/02" stroke="none" stroke-width="1" fill="none" fill-rule="evenodd">
        <g id="02_01_Giải-pháp" transform="translate(-1121.000000, -735.000000)" fill="#5B5B5B" fill-rule="nonzero">
            <g id="bx-share-alt" transform="translate(1121.000000, 735.000000)">
                <path d="M0,9.5 C0,11.43 1.57,13 3.5,13 C4.41,13 5.233,12.642 5.857,12.07 L12.117,15.647 C12.0428717,15.9254002 12.0035715,16.2119221 12,16.5 C12,18.43 13.57,20 15.5,20 C17.43,20 19,18.43 19,16.5 C19,14.57 17.43,13 15.5,13 C14.59,13 13.767,13.358 13.143,13.93 L6.883,10.353 C6.946,10.106 6.986,9.851 6.991,9.585 L13.142,6.07 C13.767,6.642 14.59,7 15.5,7 C17.43,7 19,5.43 19,3.5 C19,1.57 17.43,0 15.5,0 C13.57,0 12,1.57 12,3.5 C12,3.796 12.048,4.078 12.117,4.353 L6.433,7.602 C5.79040223,6.60502038 4.68612679,6.00186687 3.5,6 C1.57,6 0,7.57 0,9.5 Z M15.5,15 C16.327,15 17,15.673 17,16.5 C17,17.327 16.327,18 15.5,18 C14.673,18 14,17.327 14,16.5 C14,15.673 14.673,15 15.5,15 Z M15.5,2 C16.327,2 17,2.673 17,3.5 C17,4.327 16.327,5 15.5,5 C14.673,5 14,4.327 14,3.5 C14,2.673 14.673,2 15.5,2 Z M3.5,8 C4.327,8 5,8.673 5,9.5 C5,10.327 4.327,11 3.5,11 C2.673,11 2,10.327 2,9.5 C2,8.673 2.673,8 3.5,8 Z" id="Shape"></path>
            </g>
        </g>
    </g>
</svg>