<?xml version="1.0" encoding="UTF-8"?>
<svg width="20px" height="20px" viewBox="0 0 20 20" version="1.1" xmlns="http://www.w3.org/2000/svg" xmlns:xlink="http://www.w3.org/1999/xlink">
    <!-- Generator: Sketch 53.2 (72643) - https://sketchapp.com -->
    <title>5</title>
    <desc>Created with Sketch.</desc>
    <g id="20/02" stroke="none" stroke-width="1" fill="none" fill-rule="evenodd">
        <g id="08_Chi-nhanh" transform="translate(-1506.000000, -422.000000)" fill="#848484" fill-rule="nonzero">
            <path d="M1525,427 L1523,427 L1523,423 C1523,422.447715 1522.55228,422 1522,422 L1510,422 C1509.44772,422 1509,422.447715 1509,423 L1509,427 L1507,427 C1506.44772,427 1506,427.447715 1506,428 L1506,438 C1506,438.552285 1506.44772,439 1507,439 L1511,439 L1511,441 C1511,441.552285 1511.44772,442 1512,442 L1520,442 C1520.55228,442 1521,441.552285 1521,441 L1521,439 L1525,439 C1525.55228,439 1526,438.552285 1526,438 L1526,428 C1526,427.447715 1525.55228,427 1525,427 Z M1511,424 L1521,424 L1521,427 L1511,427 L1511,424 Z M1519,438 L1519,440 L1513,440 L1513,435 L1519,435 L1519,438 Z M1524,437 L1521,437 L1521,434 C1521,433.447715 1520.55228,433 1520,433 L1512,433 C1511.44772,433 1511,433.447715 1511,434 L1511,437 L1508,437 L1508,429 L1524,429 L1524,437 Z" id="5"></path>
        </g>
    </g>
</svg>