<?xml version="1.0" encoding="UTF-8"?>
<svg width="19px" height="19px" viewBox="0 0 19 19" version="1.1" xmlns="http://www.w3.org/2000/svg" xmlns:xlink="http://www.w3.org/1999/xlink">
    <!-- Generator: Sketch 53.2 (72643) - https://sketchapp.com -->
    <title>4</title>
    <desc>Created with Sketch.</desc>
    <g id="20/02" stroke="none" stroke-width="1" fill="none" fill-rule="evenodd">
        <g id="08_Chi-nhanh" transform="translate(-1317.000000, -422.000000)" fill="#848484" fill-rule="nonzero">
            <g id="4" transform="translate(1317.000000, 422.000000)">
                <path d="M14.7133249,10.2932012 C14.5259275,10.1054848 14.2715705,10 14.0063249,10 C13.7410793,10 13.4867223,10.1054848 13.2993249,10.2932012 L11.7053249,11.8872012 C10.9663249,11.6672012 9.58732491,11.1672012 8.71332491,10.2932012 C7.83932491,9.41920116 7.33932491,8.04020116 7.11932491,7.30120116 L8.71332491,5.70720116 C8.90104127,5.51980373 9.00652607,5.26544677 9.00652607,5.00020116 C9.00652607,4.73495556 8.90104127,4.4805986 8.71332491,4.29320116 L4.71332491,0.293201162 C4.52592748,0.105484803 4.27157052,0 4.00632491,0 C3.74107931,0 3.48672235,0.105484803 3.29932491,0.293201162 L0.299324912,3.29320116 C0.125755338,3.46634676 0.0221435042,3.69742608 0.00832491186,3.94220116 C-0.00667508814,4.19220116 -0.293675088,10.1142012 4.29932491,14.7072012 C8.28732491,18.6952012 13.2893249,19.0062012 14.7273249,19.0062012 C14.9463249,19.0062012 15.0643249,18.9982012 15.0643249,18.9982012 C15.3073249,18.9832012 15.5423249,18.8802012 15.7133249,18.7072012 L18.7133249,15.7072012 C18.9010413,15.5198037 19.0065261,15.2654468 19.0065261,15.0002012 C19.0065261,14.7349556 18.9010413,14.4805986 18.7133249,14.2932012 L14.7133249,10.2932012 L14.7133249,10.2932012 Z M14.5873249,17.0052012 C13.1863249,16.9842012 9.03932491,16.6182012 5.71332491,13.2932012 C2.37132491,9.95020116 2.02832491,5.67120116 2.00332491,4.41720116 L4.00632491,2.41420116 L6.59232491,5.00020116 L5.29932491,6.29320116 C5.06053953,6.53180653 4.95824986,6.87477777 5.02732491,7.20520116 C5.05132491,7.32020116 5.63832491,10.0472012 7.29832491,11.7072012 C8.95832491,13.3672012 11.6853249,13.9542012 11.8003249,13.9782012 C12.1306304,14.0488601 12.4742027,13.9467679 12.7123249,13.7072012 L14.0063249,12.4142012 L16.5923249,15.0002012 L14.5873249,17.0052012 Z M10.9963249,0.000201161803 L10.9963249,2.00020116 C14.4793249,2.00020116 17.0063249,4.52320116 17.0063249,8.00020116 L19.0063249,8.00020116 C19.0063249,3.43920116 15.5633249,0.000201161803 10.9963249,0.000201161803 Z" id="Shape"></path>
                <path d="M13,8 L15,8 C15,5.458 13.542,4 11,4 L11,6 C12.439,6 13,6.561 13,8 Z" id="Shape"></path>
            </g>
        </g>
    </g>
</svg>