<?xml version="1.0" encoding="UTF-8"?>
<svg width="42px" height="51px" viewBox="0 0 42 51" version="1.1" xmlns="http://www.w3.org/2000/svg" xmlns:xlink="http://www.w3.org/1999/xlink">
    <!-- Generator: Sketch 53.2 (72643) - https://sketchapp.com -->
    <title>2</title>
    <desc>Created with Sketch.</desc>
    <g id="20/02" stroke="none" stroke-width="1" fill="none" fill-rule="evenodd">
        <g id="05_01_DV-khach-hang" transform="translate(-939.000000, -590.000000)" fill="#FFFFFF" fill-rule="nonzero">
            <g id="2" transform="translate(939.000000, 590.000000)">
                <path d="M38.1585144,8.86732617 C34.2122308,3.23242383 27.9579663,0 21.0006058,0 C14.0432452,0 7.78898077,3.23242383 3.84269712,8.86732617 C-0.0842019231,14.4737402 -0.9909375,21.5716055 1.41235096,27.8425137 C2.05517308,29.554998 3.07700481,31.2187734 4.44220673,32.7778594 L19.624601,50.3722617 C19.9679712,50.7705 20.4710625,51 21.0006058,51 C21.530149,51 22.0332404,50.7705996 22.3766106,50.3722617 L37.5547644,32.7826406 C38.926024,31.2145898 39.9465433,29.5526074 40.5840144,27.8538691 C42.992149,21.5716055 42.0854135,14.4737402 38.1585144,8.86732617 Z M37.1993798,26.6049668 C36.7077981,27.915627 35.9052548,29.2114453 34.815375,30.4578574 C34.8123462,30.4608457 34.8093173,30.463834 34.8068942,30.4674199 L21.0006058,46.4664785 L7.18583654,30.4573594 C6.0965625,29.212043 5.29401923,27.9163242 4.79759135,26.5931133 C2.8100625,21.4069512 3.56434615,15.5383652 6.81591346,10.8954727 C10.0776779,6.23773828 15.2481202,3.56641406 21.0006058,3.56641406 C26.7529904,3.56641406 31.9228269,6.23763867 35.1846923,10.8954727 C38.4368654,15.5383652 39.1917548,21.4069512 37.1993798,26.6049668 Z" id="Shape"></path>
                <path d="M21.0006058,10.5804082 C15.4198558,10.5804082 10.8790096,15.0598418 10.8790096,20.5664473 C10.8790096,26.0730527 15.41925,30.5524863 21.0006058,30.5524863 C26.5819615,30.5524863 31.1222019,26.0730527 31.1222019,20.5664473 C31.1222019,15.0604395 26.5813558,10.5804082 21.0006058,10.5804082 Z M21.0006058,26.9859727 C17.4128365,26.9859727 14.4938365,24.1060664 14.4938365,20.5663477 C14.4938365,17.0266289 17.4128365,14.1467227 21.0006058,14.1467227 C24.588375,14.1467227 27.507375,17.0266289 27.507375,20.5663477 C27.507375,24.1060664 24.588375,26.9859727 21.0006058,26.9859727 Z" id="Shape"></path>
            </g>
        </g>
    </g>
</svg>