<?xml version="1.0" encoding="UTF-8"?>
<svg width="32px" height="51px" viewBox="0 0 32 51" version="1.1" xmlns="http://www.w3.org/2000/svg" xmlns:xlink="http://www.w3.org/1999/xlink">
    <!-- Generator: Sketch 53.2 (72643) - https://sketchapp.com -->
    <title>1</title>
    <desc>Created with Sketch.</desc>
    <g id="20/02" stroke="none" stroke-width="1" fill="none" fill-rule="evenodd">
        <g id="05_01_DV-khach-hang" transform="translate(-544.000000, -590.000000)" fill="#FFFFFF" fill-rule="nonzero">
            <g id="1" transform="translate(544.000000, 590.000000)">
                <path d="M25.2759434,0 L6.70440252,0 C3.00746858,0 0,2.9769974 0,6.63647461 L0,44.3635254 C0,48.0230026 3.00746858,51 6.70440252,51 L25.2759434,51 C28.9724842,51 31.980346,48.0230026 31.980346,44.3635254 L31.980346,6.63647461 C31.980346,2.9769974 28.9724842,0 25.2759434,0 Z M28.961478,44.3635254 C28.961478,46.3751678 27.3081761,48.0117187 25.2759434,48.0117187 L6.70440252,48.0117187 C4.67216986,48.0117187 3.01886792,46.3751678 3.01886792,44.3635254 L3.01886792,40.4410172 L28.961478,40.4410172 L28.961478,44.3635254 Z M28.961478,37.4527359 L3.01886792,37.4527359 L3.01886792,12.2768555 L28.961478,12.2768555 L28.961478,37.4527359 Z M28.961478,9.28857422 L3.01886792,9.28857422 L3.01886792,6.63647461 C3.01886792,4.6248322 4.67216986,2.98828125 6.70440252,2.98828125 L25.2759434,2.98828125 C27.3081761,2.98828125 28.961478,4.6248322 28.961478,6.63647461 L28.961478,9.28857422 Z" id="Shape"></path>
                <path d="M17.0188679,44.4941406 C17.0188679,45.3194198 16.3431604,45.9882812 15.509434,45.9882812 C14.6757076,45.9882812 14,45.3194198 14,44.4941406 C14,43.6692505 14.6757076,43 15.509434,43 C16.3431604,43 17.0188679,43.6692505 17.0188679,44.4941406 Z" id="Shape"></path>
                <path d="M20.3993711,5 L11.509434,5 C10.6757075,5 10,5.66886141 10,6.49414062 C10,7.31941984 10.6757075,7.98828125 11.509434,7.98828125 L20.3993711,7.98828125 C21.2327044,7.98828125 21.908805,7.31941984 21.908805,6.49414062 C21.908805,5.66886141 21.2330975,5 20.3993711,5 Z" id="Shape"></path>
            </g>
        </g>
    </g>
</svg>