<?xml version="1.0" encoding="UTF-8"?>
<svg width="51px" height="51px" viewBox="0 0 51 51" version="1.1" xmlns="http://www.w3.org/2000/svg" xmlns:xlink="http://www.w3.org/1999/xlink">
    <!-- Generator: Sketch 53.2 (72643) - https://sketchapp.com -->
    <title>3</title>
    <desc>Created with Sketch.</desc>
    <g id="20/02" stroke="none" stroke-width="1" fill="none" fill-rule="evenodd">
        <g id="05_01_DV-khach-hang" transform="translate(-1335.000000, -590.000000)" fill="#FFFFFF" fill-rule="nonzero">
            <g id="3" transform="translate(1335.000000, 590.000000)">
                <path d="M38.9472656,26.9941406 C38.9472656,27.8194198 38.2784042,28.4882812 37.453125,28.4882812 C36.6278458,28.4882812 35.9589844,27.8194198 35.9589844,26.9941406 C35.9589844,26.1688614 36.6278458,25.5 37.453125,25.5 C38.2784042,25.5 38.9472656,26.1688614 38.9472656,26.9941406 Z" id="Shape"></path>
                <path d="M25.5,11.953125 C28.7956696,11.953125 31.4765625,9.27223211 31.4765625,5.9765625 C31.4765625,2.68089289 28.7956696,0 25.5,0 C22.2043304,0 19.5234375,2.68089289 19.5234375,5.9765625 C19.5234375,9.27223211 22.2043304,11.953125 25.5,11.953125 Z M25.5,2.98828125 C27.1478348,2.98828125 28.4882812,4.3287277 28.4882812,5.9765625 C28.4882812,7.6243973 27.1478348,8.96484375 25.5,8.96484375 C23.8521652,8.96484375 22.5117188,7.6243973 22.5117188,5.9765625 C22.5117188,4.3287277 23.8521652,2.98828125 25.5,2.98828125 Z" id="Shape"></path>
                <path d="M49.5058594,24.0058594 L46.1203079,24.0058594 C45.3958053,22.5856476 44.4740295,21.287613 43.368599,20.1308212 L44.8814163,13.8993988 C44.9895859,13.4538803 44.8876419,12.9838485 44.6043778,12.6235428 C44.3211136,12.263237 43.8880462,12.0527344 43.4296875,12.0527344 L38.9472656,12.0527344 C36.5850448,12.0527344 34.3730164,13.1986313 32.9831543,15.0608597 L22.5117188,15.0410156 C15.0273971,15.0410156 8.69636541,20.0697327 6.7177963,26.9252701 C5.87500765,27.0933609 5.03182983,26.9373322 4.32911687,26.4661331 C3.48944092,25.9031067 2.98828125,24.9832764 2.98828125,24.0058594 L2.98828125,22.5117187 C2.98828125,21.6864395 2.31941984,21.0175781 1.49414062,21.0175781 C0.668861414,21.0175781 0,21.6864395 0,22.5117187 L0,24.0058594 C0,25.9817048 0.99609375,27.8291473 2.66493986,28.9481965 C3.69138339,29.6365128 4.8594589,29.9855347 6.05516047,29.9855347 C6.08512118,29.9855347 6.11508179,29.9839783 6.14465332,29.9835892 C6.10029607,30.4754105 6.07617188,30.9730682 6.07617188,31.4765625 C6.07617188,33.3461838 6.38822932,35.1815643 7.00339511,36.9313431 C7.99948886,39.7632065 9.73759455,42.2464371 12.0527344,44.1557464 L12.0527344,49.5058594 C12.0527344,50.3311386 12.7215958,51 13.546875,51 L21.0175781,51 C21.8428573,51 22.5117188,50.3311386 22.5117188,49.5058594 L22.5117188,47.9121094 L31.4765625,47.9121094 L31.4765625,49.5058594 C31.4765625,50.3311386 32.1454239,51 32.9707031,51 L40.4414062,51 C41.2666855,51 41.9355469,50.3311386 41.9355469,49.5058594 L41.9355469,44.1798706 L42.5238647,43.6456375 C44.1495208,42.1690063 45.4401627,40.4219513 46.3646622,38.4472733 L50.3544845,35.694786 C50.7587585,35.415802 51,34.9558869 51,34.4648438 L51,25.5 C51,24.6747208 50.3311386,24.0058594 49.5058594,24.0058594 Z M48.0117188,33.6804199 L44.3261719,36.2231827 C44.0969925,36.3811569 43.9168396,36.5998307 43.8055573,36.8546906 C43.0522614,38.5791779 41.9141464,40.1624222 40.5145569,41.4336091 L39.4367523,42.4125823 C39.1250839,42.6958465 38.9472656,43.0973968 38.9472656,43.5187912 L38.9472656,48.0117187 L34.4648438,48.0117187 L34.4648438,46.4179687 C34.4648438,45.5926895 33.7959823,44.9238281 32.9707031,44.9238281 L21.0175781,44.9238281 C20.1922989,44.9238281 19.5234375,45.5926895 19.5234375,46.4179687 L19.5234375,48.0117187 L15.0410156,48.0117187 L15.0410156,43.4308548 C15.0410156,42.9608231 14.8200073,42.5184173 14.4441375,42.2363205 C12.3040925,40.6285629 10.7056732,38.4511642 9.82241821,35.9399185 C9.31970215,34.5095902 9.06445312,33.0076676 9.06445312,31.4765625 C9.06445312,24.0085831 15.0970459,18.0094528 22.5117188,18.0094528 L33.787033,18.0292969 C34.3236007,18.0292969 34.818924,17.7417526 35.0846786,17.276001 C35.8718262,15.8974228 37.3519592,15.0410156 38.9472656,15.0410156 L41.5293274,15.0410156 L40.2729264,20.2160339 C40.1394653,20.7230301 40.2775955,21.2899475 40.6888733,21.680214 C40.6888733,21.680603 40.6888733,21.680603 40.6892624,21.680603 C40.6896515,21.6809921 40.6904297,21.6817703 40.6912078,21.6825485 C40.6912078,21.6825485 40.6912078,21.6825485 40.691597,21.6829377 C40.6923752,21.6833267 40.6927643,21.6841049 40.6935425,21.6848831 C41.990799,22.9062653 43.0456466,24.3673324 43.8055573,26.0984344 C43.8106156,26.1097183 43.8176193,26.1248932 43.8176193,26.1248932 C43.8180085,26.1256714 43.8183975,26.1264495 43.8183975,26.1272278 C44.0888215,26.7128219 44.6888123,26.9458923 44.7981491,26.9458923 C45.0125427,27.0100937 44.9829712,26.9742965 48.0117187,26.9742965 L48.0117188,33.6804199 Z" id="Shape"></path>
                <path d="M29.9824219,21.0175781 L21.0175781,21.0175781 C20.1922989,21.0175781 19.5234375,21.6864395 19.5234375,22.5117188 C19.5234375,23.336998 20.1922989,24.0058594 21.0175781,24.0058594 L29.9824219,24.0058594 C30.8077011,24.0058594 31.4765625,23.336998 31.4765625,22.5117188 C31.4765625,21.6864395 30.8077011,21.0175781 29.9824219,21.0175781 Z" id="Shape"></path>
            </g>
        </g>
    </g>
</svg>