<?xml version="1.0" encoding="UTF-8"?>
<svg width="51px" height="39px" viewBox="0 0 51 39" version="1.1" xmlns="http://www.w3.org/2000/svg" xmlns:xlink="http://www.w3.org/1999/xlink">
    <!-- Generator: Sketch 50.2 (55047) - http://www.bohemiancoding.com/sketch -->
    <title>561127</title>
    <desc>Created with Sketch.</desc>
    <defs></defs>
    <g id="20/02" stroke="none" stroke-width="1" fill="none" fill-rule="evenodd">
        <g id="09_Lien-he" transform="translate(-935.000000, -1120.000000)" fill="#FFFFFF" fill-rule="nonzero">
            <g id="561127" transform="translate(935.000000, 1120.000000)">
                <path d="M46.5175781,0 L4.48242188,0 C2.01390234,0 0,2.0196 0,4.5 L0,34.5 C0,36.972 2.0049375,39 4.48242188,39 L46.5175781,39 C48.9799219,39 51,36.9872 51,34.5 L51,4.5 C51,2.028 48.9950625,0 46.5175781,0 Z M45.8986055,3 L25.5950273,23.3833 L5.11583789,3 L45.8986055,3 Z M2.98828125,33.8788 L2.98828125,5.1069 L17.3797441,19.4309 L2.98828125,33.8788 Z M5.10129492,36 L19.5018223,21.543 L24.5477344,26.5652 C25.1318438,27.1466 26.0744473,27.1447 26.656166,26.5606 L31.5761719,21.6213 L45.8987051,36 L5.10129492,36 Z M48.0117188,33.8787 L33.6891855,19.5 L48.0117188,5.1212 L48.0117188,33.8787 Z" id="Shape"></path>
            </g>
        </g>
    </g>
</svg>