<?xml version="1.0" encoding="UTF-8"?>
<svg width="20px" height="15px" viewBox="0 0 20 15" version="1.1" xmlns="http://www.w3.org/2000/svg" xmlns:xlink="http://www.w3.org/1999/xlink">
    <!-- Generator: Sketch 53.2 (72643) - https://sketchapp.com -->
    <title>email-1572</title>
    <desc>Created with Sketch.</desc>
    <g id="20/02" stroke="none" stroke-width="1" fill="none" fill-rule="evenodd">
        <g id="05_02_Chi-tiet-DV" transform="translate(-565.000000, -3058.000000)" fill="#747474" fill-rule="nonzero">
            <g id="Group-5" transform="translate(565.000000, 3056.000000)">
                <g id="email-1572" transform="translate(0.000000, 2.000000)">
                    <path d="M9.33831637,11.8900642 L0,3.649 L0,13 C1.3527075e-16,14.1045695 0.8954305,15 2,15 L18,15 C19.1045695,15 20,14.1045695 20,13 L20,3.649 L10.6616836,11.8900642 C10.2836412,12.2236867 9.71635882,12.2236867 9.33831637,11.8900642 Z M9.33903457,9.22747678 L0,0.981 L0,0.981 C-6.6350303e-17,0.43920866 0.43920866,9.95254545e-17 0.981,0 L19.019,0 C19.5607913,-9.95254545e-17 20,0.43920866 20,0.981 L20,0.981 L10.6629074,9.2274111 C10.2848014,9.56134988 9.71717369,9.56137804 9.33903457,9.22747678 Z" id="email-[#1572]"></path>
                </g>
            </g>
        </g>
    </g>
</svg>