<?xml version="1.0" encoding="UTF-8"?>
<svg width="24px" height="23px" viewBox="0 0 24 23" version="1.1" xmlns="http://www.w3.org/2000/svg" xmlns:xlink="http://www.w3.org/1999/xlink">
    <!-- Generator: Sketch 53.2 (72643) - https://sketchapp.com -->
    <title>Shape</title>
    <desc>Created with Sketch.</desc>
    <g id="20/02" stroke="none" stroke-width="1" fill="none" fill-rule="evenodd">
        <g id="00_Menu-01" transform="translate(-31.000000, -102.000000)" fill="#FFFFFF" fill-rule="nonzero">
            <g id="Group-5">
                <g id="Group-3">
                    <g id="Menu" transform="translate(31.000000, 89.000000)">
                        <path d="M23.6993127,24.2217782 C24.1343696,23.7481371 24.0923582,23.0221869 23.6055107,22.6007423 L12.8796091,13.3103755 C12.3927616,12.8889309 11.6122252,12.8977594 11.1356262,13.3302783 L0.373267828,23.0960674 C-0.10333112,23.5285863 -0.126722959,24.2536073 0.3214772,24.7147801 L0.591304805,24.9929552 C1.03895733,25.454128 1.76253968,25.5091125 2.20643699,25.1153925 L3.01075639,24.4023752 L3.01075639,34.8410662 C3.01075639,35.4815194 3.53499958,36 4.18152186,36 L8.37671916,36 C9.02324143,36 9.54748463,35.4815194 9.54748463,34.8410662 L9.54748463,27.5381954 L14.8985048,27.5381954 L14.8985048,34.8410662 C14.889195,35.4810548 15.3517901,35.9995353 15.9983124,35.9995353 L20.4441701,35.9995353 C21.0906924,35.9995353 21.6149356,35.4810548 21.6149356,34.8406015 L21.6149356,24.549362 C21.6149356,24.549362 21.8371189,24.74204 22.1111711,24.9804869 C22.3847539,25.2184691 22.9593796,25.0276496 23.3944365,24.5535439 L23.6993127,24.2217782 Z" id="Shape"></path>
                    </g>
                </g>
            </g>
        </g>
    </g>
</svg>