<?xml version="1.0" encoding="UTF-8"?>
<svg width="22px" height="22px" viewBox="0 0 22 22" version="1.1" xmlns="http://www.w3.org/2000/svg" xmlns:xlink="http://www.w3.org/1999/xlink">
    <!-- Generator: Sketch 53.2 (72643) - https://sketchapp.com -->
    <title>Group</title>
    <desc>Created with Sketch.</desc>
    <g id="20/02" stroke="none" stroke-width="1" fill="none" fill-rule="evenodd">
        <g id="00_Menu-01" transform="translate(-1778.000000, -33.000000)" fill="#DDA307" fill-rule="nonzero">
            <g id="Group-5">
                <g id="Group-3">
                    <g id="Group" transform="translate(1778.000000, 33.000000)">
                        <g id="search">
                            <path d="M17.6350893,16.0794544 L21.6778175,20.1221825 C22.1073942,20.5517593 22.1073942,21.2482407 21.6778175,21.6778175 C21.2482407,22.1073942 20.5517593,22.1073942 20.1221825,21.6778175 L16.0794544,17.6350893 C14.3858165,18.9898798 12.2375151,19.8 9.9,19.8 C4.43238098,19.8 0,15.367619 0,9.9 C0,4.43238098 4.43238098,0 9.9,0 C15.367619,0 19.8,4.43238098 19.8,9.9 C19.8,12.2375151 18.9898798,14.3858165 17.6350893,16.0794544 Z M15.4455245,15.2420302 C16.7795941,13.8574644 17.6,11.9745402 17.6,9.9 C17.6,5.64740743 14.1525926,2.2 9.9,2.2 C5.64740743,2.2 2.2,5.64740743 2.2,9.9 C2.2,14.1525926 5.64740743,17.6 9.9,17.6 C11.9745402,17.6 13.8574644,16.7795941 15.2420302,15.4455245 C15.2709792,15.4078745 15.3026966,15.3716685 15.3371825,15.3371825 C15.3716685,15.3026966 15.4078745,15.2709792 15.4455245,15.2420302 Z" id="Combined-Shape"></path>
                        </g>
                    </g>
                </g>
            </g>
        </g>
    </g>
</svg>