<?xml version="1.0" encoding="UTF-8"?>
<svg width="32px" height="32px" viewBox="0 0 32 32" version="1.1" xmlns="http://www.w3.org/2000/svg" xmlns:xlink="http://www.w3.org/1999/xlink">
    <!-- Generator: Sketch 53.2 (72643) - https://sketchapp.com -->
    <title>Shape</title>
    <desc>Created with Sketch.</desc>
    <g id="20/02" stroke="none" stroke-width="1" fill="none" fill-rule="evenodd">
        <g id="00_Menu-01" transform="translate(-1702.000000, -101.000000)" fill="#FFFFFF" fill-rule="nonzero">
            <g id="Group-5">
                <g id="Group-3">
                    <g id="Group" transform="translate(1684.000000, 89.000000)">
                        <g id="Group-4">
                            <path d="M33.9997333,12 C25.1634261,12 18,19.1635916 18,27.99984 C18,36.835875 25.1634261,44 33.9997333,44 C42.8360406,44 50,36.835875 50,27.99984 C50,19.1633783 42.8360406,12 33.9997333,12 Z M34.0484808,35.5482888 L34.0484808,35.5480755 L33.9507725,35.5480755 L27.1163119,35.5480755 C27.1163119,30.5500522 31.5059318,30.5512255 32.480028,29.2443324 L32.5914965,28.6483798 C31.2229404,27.9548262 30.2568443,26.2827028 30.2568443,24.3270566 C30.2568443,21.7506042 31.9328189,19.6616233 33.9997333,19.6616233 C36.0666478,19.6616233 37.7426224,21.7506042 37.7426224,24.3270566 C37.7426224,26.2660627 36.7936999,27.9277326 35.4433841,28.632273 L35.5703195,29.3095064 C36.6390307,30.5530389 40.8826214,30.6341063 40.8826214,35.5482888 L34.0484808,35.5482888 L34.0484808,35.5482888 Z" id="Shape"></path>
                        </g>
                    </g>
                </g>
            </g>
        </g>
    </g>
</svg>