<?xml version="1.0" encoding="UTF-8"?>
<svg width="18px" height="24px" viewBox="0 0 18 24" version="1.1" xmlns="http://www.w3.org/2000/svg" xmlns:xlink="http://www.w3.org/1999/xlink">
    <!-- Generator: Sketch 53.2 (72643) - https://sketchapp.com -->
    <title>447031</title>
    <desc>Created with Sketch.</desc>
    <g id="20/02" stroke="none" stroke-width="1" fill="none" fill-rule="evenodd">
        <g id="00_Menu-01" transform="translate(-1614.000000, -32.000000)" fill="#DDA307" fill-rule="nonzero">
            <g id="Group-5">
                <g id="447031" transform="translate(1614.000000, 32.000000)">
                    <path d="M9,0 C4.0373732,0 0,3.899161 0,8.69185434 C0,14.6397366 8.05411833,23.3715754 8.39702956,23.7403883 C8.71911857,24.0868419 9.28146386,24.0862325 9.60297044,23.7403883 C9.94588167,23.3715754 18,14.6397366 18,8.69185434 C17.9999029,3.899161 13.9625783,0 9,0 Z M8.50002412,13 C6.01867266,13 4,10.9813007 4,8.49997588 C4,6.01865102 6.01872089,4 8.50002412,4 C10.9813273,4 13,6.01869925 13,8.50002412 C13,10.981349 10.9813273,13 8.50002412,13 Z" id="Shape"></path>
                </g>
            </g>
        </g>
    </g>
</svg>