<?xml version="1.0" encoding="UTF-8"?>
<svg width="60px" height="63px" viewBox="0 0 60 63" version="1.1" xmlns="http://www.w3.org/2000/svg" xmlns:xlink="http://www.w3.org/1999/xlink">
    <!-- Generator: Sketch 53.2 (72643) - https://sketchapp.com -->
    <title>3</title>
    <desc>Created with Sketch.</desc>
    <g id="20/02" stroke="none" stroke-width="1" fill="none" fill-rule="evenodd">
        <g id="00_Menu-03" transform="translate(-989.000000, -218.000000)" fill-rule="nonzero">
            <g id="3" transform="translate(989.000000, 218.000000)">
                <circle id="Oval" fill="#F8B64C" cx="22" cy="4" r="4"></circle>
                <ellipse id="Oval" fill="#FFD15C" cx="21.5" cy="4" rx="3.5" ry="3"></ellipse>
                <circle id="Oval" fill="#F8B64C" cx="21.5" cy="3.5" r="2.5"></circle>
                <path d="M20.8571429,5.04885993 L20.8571429,4.11074919 C20.5952381,4.03257329 20.3928571,3.90228013 20.2738095,3.73289902 C20.1547619,3.56351792 20.0833333,3.35504886 20.0833333,3.12052117 C20.0833333,2.87296417 20.1547619,2.67752443 20.297619,2.50814332 C20.4404762,2.33876221 20.6190476,2.247557 20.8571429,2.22149837 L20.8571429,2 L21.1547619,2 L21.1547619,2.22149837 C21.3690476,2.247557 21.547619,2.3257329 21.6666667,2.46905537 C21.797619,2.59934853 21.8809524,2.78175896 21.9166667,3.00325733 L21.4047619,3.08143322 C21.3690476,2.91205212 21.297619,2.78175896 21.1547619,2.72964169 L21.1547619,3.60260586 C21.4761905,3.69381107 21.702381,3.82410423 21.8214286,3.98045603 C21.9404762,4.13680782 22,4.33224756 22,4.56677524 C22,4.84039088 21.9285714,5.06188925 21.7738095,5.24429967 C21.6309524,5.4267101 21.4166667,5.54397394 21.1547619,5.58306189 L21.1547619,6 L20.8571429,6 L20.8571429,5.59609121 C20.6190476,5.57003257 20.4285714,5.46579805 20.2857143,5.30944625 C20.1428571,5.15309446 20.047619,4.91856678 20,4.63192182 L20.5357143,4.56677524 C20.5595238,4.68403909 20.5952381,4.78827362 20.6547619,4.87947883 C20.7142857,4.94462541 20.7857143,5.00977199 20.8571429,5.04885993 Z M20.8571429,2.70358306 C20.7738095,2.72964169 20.7142857,2.78175896 20.6666667,2.85993485 C20.6190476,2.92508143 20.5952381,3.01628664 20.5952381,3.09446254 C20.5952381,3.17263844 20.6190476,3.25081433 20.6547619,3.31596091 C20.6904762,3.38110749 20.7619048,3.43322476 20.8571429,3.48534202 L20.8571429,2.70358306 L20.8571429,2.70358306 Z M21.1547619,5.07491857 C21.2619048,5.04885993 21.3333333,4.99674267 21.4047619,4.91856678 C21.4761905,4.84039088 21.5,4.73615635 21.5,4.63192182 C21.5,4.5276873 21.4761905,4.4495114 21.4166667,4.3713355 C21.3690476,4.29315961 21.2738095,4.24104235 21.1547619,4.2019544 L21.1547619,5.07491857 L21.1547619,5.07491857 Z" id="Shape" fill="#FFD15C"></path>
                <circle id="Oval" fill="#F8B64C" cx="13.5" cy="9.5" r="3.5"></circle>
                <circle id="Oval" fill="#FFD15C" cx="13" cy="10" r="3"></circle>
                <circle id="Oval" fill="#F8B64C" cx="13.5" cy="9.5" r="2.5"></circle>
                <path d="M12.8666667,10.2717391 L12.8666667,9.57608696 C12.6,9.51086957 12.4,9.42391304 12.28,9.29347826 C12.16,9.16304348 12.0933333,9.01086957 12.0933333,8.83695652 C12.0933333,8.65217391 12.16,8.5 12.3066667,8.38043478 C12.4533333,8.26086957 12.64,8.18478261 12.8666667,8.16304348 L12.8666667,8 L13.16,8 L13.16,8.16304348 C13.3733333,8.18478261 13.5466667,8.23913043 13.68,8.34782609 C13.8133333,8.44565217 13.8933333,8.57608696 13.92,8.75 L13.4,8.80434783 C13.3733333,8.67391304 13.2933333,8.58695652 13.16,8.54347826 L13.16,9.19565217 C13.48,9.27173913 13.7066667,9.35869565 13.8266667,9.47826087 C13.9466667,9.59782609 14,9.73913043 14,9.92391304 C14,10.1195652 13.92,10.2934783 13.7733333,10.4347826 C13.6266667,10.576087 13.4133333,10.6521739 13.1466667,10.6847826 L13.1466667,11 L12.8533333,11 L12.8533333,10.6956522 C12.6133333,10.673913 12.4266667,10.5978261 12.28,10.4782609 C12.1333333,10.3586957 12.04,10.1847826 12,9.9673913 L12.5333333,9.92391304 C12.56,10.0108696 12.6,10.0869565 12.6533333,10.1521739 C12.72,10.1956522 12.7866667,10.25 12.8666667,10.2717391 Z M12.8666667,8.5326087 C12.7866667,8.55434783 12.72,8.59782609 12.68,8.64130435 C12.6266667,8.69565217 12.6133333,8.75 12.6133333,8.81521739 C12.6133333,8.86956522 12.64,8.92391304 12.68,8.97826087 C12.72,9.0326087 12.7866667,9.06521739 12.88,9.09782609 L12.88,8.5326087 L12.8666667,8.5326087 L12.8666667,8.5326087 Z M13.16,10.2934783 C13.2666667,10.2826087 13.3466667,10.2391304 13.4133333,10.173913 C13.48,10.1086957 13.5066667,10.0434783 13.5066667,9.95652174 C13.5066667,9.88043478 13.48,9.81521739 13.4266667,9.76086957 C13.3733333,9.70652174 13.28,9.66304348 13.16,9.64130435 L13.16,10.2934783 L13.16,10.2934783 Z" id="Shape" fill="#FFD15C"></path>
                <circle id="Oval" fill="#F8B64C" cx="48.5" cy="11.5" r="3.5"></circle>
                <circle id="Oval" fill="#FFD15C" cx="49" cy="12" r="3"></circle>
                <circle id="Oval" fill="#F8B64C" cx="48.5" cy="11.5" r="2.5"></circle>
                <path d="M48.8666667,12.2717391 L48.8666667,11.576087 C48.6,11.5108696 48.4,11.423913 48.28,11.2934783 C48.16,11.1630435 48.0933333,11.0108696 48.0933333,10.8369565 C48.0933333,10.6521739 48.16,10.5 48.3066667,10.3804348 C48.4533333,10.2608696 48.64,10.1847826 48.8666667,10.1630435 L48.8666667,10 L49.16,10 L49.16,10.1630435 C49.3733333,10.1847826 49.5466667,10.2391304 49.68,10.3478261 C49.8133333,10.4456522 49.8933333,10.576087 49.92,10.75 L49.4,10.8043478 C49.3733333,10.673913 49.2933333,10.5869565 49.16,10.5434783 L49.16,11.1956522 C49.48,11.2717391 49.7066667,11.3586957 49.8266667,11.4782609 C49.9466667,11.5978261 50,11.7391304 50,11.923913 C50,12.1195652 49.92,12.2934783 49.7733333,12.4347826 C49.6266667,12.576087 49.4133333,12.6521739 49.1466667,12.6847826 L49.1466667,13 L48.8533333,13 L48.8533333,12.6956522 C48.6133333,12.673913 48.4266667,12.5978261 48.28,12.4782609 C48.1333333,12.3586957 48.04,12.1847826 48,11.9673913 L48.5333333,11.923913 C48.56,12.0108696 48.6,12.0869565 48.6533333,12.1521739 C48.7066667,12.2173913 48.8,12.2391304 48.8666667,12.2717391 Z M48.8666667,10.5217391 C48.7866667,10.5434783 48.72,10.5869565 48.68,10.6304348 C48.6266667,10.6847826 48.6133333,10.7391304 48.6133333,10.8043478 C48.6133333,10.8586957 48.64,10.9130435 48.68,10.9673913 C48.72,11.0217391 48.7866667,11.0543478 48.88,11.0869565 L48.88,10.5217391 L48.8666667,10.5217391 L48.8666667,10.5217391 Z M49.16,12.2934783 C49.2666667,12.2826087 49.3466667,12.2391304 49.4133333,12.173913 C49.48,12.1086957 49.5066667,12.0434783 49.5066667,11.9565217 C49.5066667,11.8804348 49.48,11.8152174 49.4266667,11.7608696 C49.3733333,11.7065217 49.28,11.6630435 49.16,11.6413043 L49.16,12.2934783 L49.16,12.2934783 Z" id="Shape" fill="#FFD15C"></path>
                <circle id="Oval" fill="#F8B64C" cx="38" cy="6" r="6"></circle>
                <circle id="Oval" fill="#FFD15C" cx="38" cy="6" r="5"></circle>
                <circle id="Oval" fill="#F8B64C" cx="37" cy="6" r="4"></circle>
                <path d="M37.2823529,7.58369099 L37.2823529,6.18025751 C36.8823529,6.05150215 36.5882353,5.87124464 36.4,5.61373391 C36.2117647,5.35622318 36.1176471,5.0472103 36.1176471,4.68669528 C36.1176471,4.32618026 36.2235294,4.01716738 36.4352941,3.75965665 C36.6470588,3.50214592 36.9294118,3.37339056 37.2823529,3.33476395 L37.2823529,3 L37.7294118,3 L37.7294118,3.33476395 C38.0588235,3.37339056 38.3176471,3.50214592 38.5058824,3.69527897 C38.6941176,3.90128755 38.8235294,4.15879828 38.8705882,4.49356223 L38.0941176,4.60944206 C38.0470588,4.35193133 37.9294118,4.17167382 37.7294118,4.06866953 L37.7294118,5.38197425 C38.2235294,5.52360515 38.5529412,5.7167382 38.7294118,5.94849785 C38.9058824,6.18025751 39,6.47639485 39,6.83690987 C39,7.2360515 38.8941176,7.58369099 38.6705882,7.85407725 C38.4470588,8.13733906 38.1411765,8.30472103 37.7411765,8.36909871 L37.7411765,9 L37.2823529,9 L37.2823529,8.39484979 C36.9294118,8.34334764 36.6470588,8.20171674 36.4235294,7.95708155 C36.2,7.71244635 36.0588235,7.3776824 36,6.93991416 L36.8,6.84978541 C36.8352941,7.03004292 36.8941176,7.18454936 36.9882353,7.31330472 C37.0705882,7.44206009 37.1764706,7.53218884 37.2823529,7.58369099 Z M37.2823529,4.06866953 C37.1647059,4.10729614 37.0705882,4.18454936 37,4.30042918 C36.9294118,4.40343348 36.8941176,4.53218884 36.8941176,4.66094421 C36.8941176,4.77682403 36.9294118,4.89270386 36.9882353,4.99570815 C37.0588235,5.09871245 37.1529412,5.17596567 37.2823529,5.24034335 L37.2823529,4.06866953 L37.2823529,4.06866953 Z M37.7294118,7.63519313 C37.8823529,7.60944206 38.0117647,7.53218884 38.1058824,7.40343348 C38.2,7.27467811 38.2470588,7.13304721 38.2470588,6.96566524 C38.2470588,6.8111588 38.2117647,6.68240343 38.1294118,6.57939914 C38.0470588,6.47639485 37.9176471,6.38626609 37.7294118,6.33476395 L37.7294118,7.63519313 L37.7294118,7.63519313 Z" id="Shape" fill="#FFD15C"></path>
                <path d="M31.5824154,48.7098611 L31.5824154,10.2297882 C31.5824154,9.55340469 31.0138492,9 30.3189349,9 C29.6240206,9 29.0554544,9.55340469 29.0554544,10.2297882 L29.0554544,48.722159 C28.8027583,49.0050102 28.6385058,49.3616488 28.6385058,49.7674789 L28.6385058,56.1869734 C28.6385058,58.1423366 27.008616,59.7287634 24.999682,59.7287634 C22.990748,59.7287634 21.3608581,58.1423366 21.3608581,56.1869734 L21.3608581,54.5759508 C21.3608581,53.6659075 20.6027698,52.9403325 19.6804291,52.9403325 C18.7580883,52.9403325 18,53.6782054 18,54.5759508 L18,56.1869734 C18,59.9501253 21.1460665,63 24.999682,63 C28.8532975,63 31.999364,59.9378274 31.999364,56.1869734 L31.999364,49.7674789 C32.0119988,49.3616488 31.8351115,48.9927124 31.5824154,48.7098611 Z" id="Shape" fill="#40596B"></path>
                <path d="M44,37 C37.7598582,33.8842365 30.0062029,34.2413793 30.0062029,34.2413793 C30.0062029,34.2413793 22.2649535,33.8842365 16,37 C16,37 18.2826761,13.1699507 30.0062029,12 C41.7173239,13.1699507 44,37 44,37 Z" id="Shape" fill="#F8B64C"></path>
                <g id="Group" transform="translate(16.000000, 37.000000)" fill="#F7C657">
                    <path d="M27.71875,0.06 L27.89875,0.27 C27.89875,0.27 27.94375,0.24 28.00375,0.195 C27.89875,0.15 27.80875,0.105 27.71875,0.06 Z" id="Shape"></path>
                    <path d="M0.03125,0.195 C0.10625,0.24 0.13625,0.27 0.13625,0.27 L0.31625,0.06 C0.22625,0.105 0.13625,0.15 0.03125,0.195 Z" id="Shape"></path>
                </g>
                <g id="Group" transform="translate(0.000000, 12.000000)" fill="#FFD15C">
                    <path d="M30.0062762,0.0985221675 C41.3158996,1.21921182 43.9267782,22.9926108 44.1401674,24.9384236 C45.4456067,24.0394089 52.8640167,19.3226601 59.9058577,23.0418719 C59.9058577,23.0418719 53.290795,0.0985221675 30.0062762,0.0985221675 Z" id="Shape"></path>
                    <path d="M0.0815899582,23.0418719 C7.13598326,19.3226601 14.541841,24.0394089 15.8472803,24.9384236 C16.0606695,22.9802956 18.6715481,1.21921182 30.0062762,0.0985221675 C6.69665272,0.0985221675 0.0815899582,23.0418719 0.0815899582,23.0418719 Z" id="Shape"></path>
                </g>
            </g>
        </g>
    </g>
</svg>