<?xml version="1.0" encoding="UTF-8"?>
<svg width="52px" height="46px" viewBox="0 0 52 46" version="1.1" xmlns="http://www.w3.org/2000/svg" xmlns:xlink="http://www.w3.org/1999/xlink">
    <!-- Generator: Sketch 53.2 (72643) - https://sketchapp.com -->
    <title>Group 7</title>
    <desc>Created with Sketch.</desc>
    <g id="20/02" stroke="none" stroke-width="1" fill="none" fill-rule="evenodd">
        <g id="00_Menu-01" transform="translate(-1014.000000, -218.000000)" fill="#fff" fill-rule="nonzero">
            <g id="Group-7" transform="translate(1014.000000, 218.000000)">
                <path d="M36,27.545202 L36,31.4484848 C36,32.1835859 36.2971429,32.8669192 36.8065306,33.384596 L36.8065306,34.7098485 C36.8065306,35.2792929 37.2734694,35.7348485 37.8571429,35.7348485 C38.4408163,35.7348485 38.9077551,35.2792929 38.9077551,34.7098485 L38.9077551,32.9083333 C38.9077551,32.5666667 38.7273469,32.2457071 38.4408163,32.0593434 C38.2285714,31.9247475 38.1012245,31.6969697 38.1012245,31.4484848 L38.1012245,27.545202 C38.1012245,26.1785354 39.2473469,25.0603535 40.6481633,25.0603535 L41.5077551,25.0603535 C42.9085714,25.0603535 44.0546939,26.1785354 44.0546939,27.545202 L44.0546939,31.4484848 C44.0546939,31.6969697 43.9273469,31.9247475 43.715102,32.0593434 C43.4179592,32.2457071 43.2481633,32.5666667 43.2481633,32.9083333 L43.2481633,36.6666667 C43.2481633,37.1222222 43.5240816,37.5467172 43.9379592,37.7434343 C44.4367347,37.9815657 47.0261224,39.2550505 49.4244898,41.1704545 C49.6261224,41.3361111 49.7428571,41.5742424 49.7428571,41.8434343 L49.7428571,43.4896465 L42.3779592,43.4896465 C41.7942857,43.4896465 41.3273469,43.945202 41.3273469,44.5146465 C41.3273469,45.0840909 41.7942857,45.5396465 42.3779592,45.5396465 L50.7934694,45.5396465 C51.3771429,45.5396465 51.8440816,45.0840909 51.8440816,44.5146465 L51.8440816,41.8434343 C51.8440816,40.9633838 51.4514286,40.1454545 50.7510204,39.5863636 C48.6391837,37.8987374 46.3787755,36.6666667 45.3493878,36.1386364 L45.3493878,33.3742424 C45.8587755,32.8565657 46.1559184,32.1732323 46.1559184,31.4381313 L46.1559184,27.5348485 C46.1559184,25.0292929 44.0653061,23 41.5077551,23 L40.6481633,23 C38.0906122,23.0103535 36,25.0396465 36,27.545202 Z" id="Shape"></path>
                <path d="M1.05061224,45.5292929 L9.59346939,45.5292929 C10.1771429,45.5292929 10.6440816,45.0737374 10.6440816,44.5042929 C10.6440816,43.9348485 10.1771429,43.4792929 9.59346939,43.4792929 L2.10122449,43.4792929 L2.10122449,41.8330808 C2.10122449,41.5742424 2.21795918,41.3257576 2.41959184,41.160101 C4.80734694,39.244697 7.40734694,37.9608586 7.90612245,37.7330808 C8.33061224,37.5363636 8.59591837,37.1118687 8.59591837,36.6563131 L8.59591837,32.8979798 C8.59591837,32.5563131 8.4155102,32.2353535 8.12897959,32.0489899 C7.91673469,31.9143939 7.78938776,31.6866162 7.78938776,31.4381313 L7.78938776,27.5348485 C7.78938776,26.1681818 8.9355102,25.05 10.3363265,25.05 L11.1959184,25.05 C12.5967347,25.05 13.7428571,26.1681818 13.7428571,27.5348485 L13.7428571,31.4381313 C13.7428571,31.6866162 13.6155102,31.9143939 13.4032653,32.0489899 C13.1061224,32.2353535 12.9363265,32.5563131 12.9363265,32.8979798 L12.9363265,34.7823232 C12.9363265,35.3517677 13.4032653,35.8073232 13.9869388,35.8073232 C14.5706122,35.8073232 15.037551,35.3517677 15.037551,34.7823232 L15.037551,33.3742424 C15.5469388,32.8565657 15.8440816,32.1732323 15.8440816,31.4381313 L15.8440816,27.5348485 C15.8440816,25.0292929 13.7534694,23 11.1959184,23 L10.3363265,23 C7.76816327,23 5.68816327,25.0396465 5.68816327,27.5348485 L5.68816327,31.4381313 C5.68816327,32.1732323 5.98530612,32.8565657 6.49469388,33.3742424 L6.49469388,36.1386364 C5.45469388,36.6666667 3.20489796,37.8883838 1.09306122,39.5863636 C0.403265306,40.1454545 -2.81463741e-12,40.9633838 -2.81463741e-12,41.8434343 L-2.81463741e-12,44.5042929 C-2.81426039e-12,45.0737374 0.466938776,45.5292929 1.05061224,45.5292929 Z" id="Shape"></path>
                <path d="M31.8979592,27.6123737 L31.8979592,22.570202 C31.8979592,19.495202 29.3404082,17 26.1885714,17 L25.0742857,17 C21.922449,17 19.364898,19.495202 19.364898,22.570202 L19.364898,27.6123737 C19.364898,28.5234848 19.7469388,29.3724747 20.404898,29.9936869 L20.404898,33.8762626 C19.1632653,34.4974747 16.1281633,36.1126263 13.2946939,38.390404 C12.4669388,39.0530303 12,40.0262626 12,41.0719697 L12,44.5300505 C12,45.0994949 12.4669388,45.5550505 13.0506122,45.5550505 L38.2016327,45.5550505 C38.7853061,45.5550505 39.2522449,45.0994949 39.2522449,44.5300505 L39.2522449,41.0719697 C39.2522449,40.0262626 38.7853061,39.0530303 37.957551,38.390404 C35.1240816,36.1229798 32.0889796,34.4974747 30.8473469,33.8762626 L30.8473469,29.9936869 C31.5159184,29.3828283 31.8979592,28.5234848 31.8979592,27.6123737 Z M36.6310204,39.9744949 C36.9706122,40.2436869 37.1616327,40.6474747 37.1616327,41.0719697 L37.1616327,43.5050505 L14.1118367,43.5050505 L14.1118367,41.0719697 C14.1118367,40.6474747 14.3028571,40.2436869 14.642449,39.9744949 C17.762449,37.4689394 21.1477551,35.8020202 21.795102,35.4914141 C22.2302041,35.2843434 22.5167347,34.8391414 22.5167347,34.3732323 L22.5167347,29.5070707 C22.5167347,29.165404 22.3363265,28.8444444 22.0497959,28.6580808 C21.6889796,28.4199495 21.4767347,28.0368687 21.4767347,27.6227273 L21.4767347,22.5805556 C21.4767347,20.6340909 23.1004082,19.0603535 25.084898,19.0603535 L26.1991837,19.0603535 C28.1942857,19.0603535 29.8073469,20.6444444 29.8073469,22.5805556 L29.8073469,27.6227273 C29.8073469,28.0368687 29.595102,28.430303 29.2342857,28.6580808 C28.9371429,28.8444444 28.7673469,29.165404 28.7673469,29.5070707 L28.7673469,34.3732323 C28.7673469,34.8494949 29.0538776,35.2843434 29.4889796,35.4914141 C30.1257143,35.8020202 33.5110204,37.4792929 36.6310204,39.9744949 Z" id="Shape"></path>
                <path d="M24.4189409,10.4123156 C24.6201629,10.6118959 24.8849287,10.7169382 25.1602851,10.7169382 C25.4356415,10.7169382 25.7004073,10.6118959 25.9016293,10.4123156 L34.6071283,1.77784052 C35.0201629,1.36817565 35.0201629,0.716913535 34.6071283,0.307248658 C34.1940937,-0.102416219 33.5374745,-0.102416219 33.1244399,0.307248658 L25.1602851,8.20642782 L21.7924644,4.86608344 C21.3794297,4.45641856 20.7228106,4.45641856 20.309776,4.86608344 C19.8967413,5.27574832 19.8967413,5.92701043 20.309776,6.33667531 L24.4189409,10.4123156 Z" id="Shape"></path>
            </g>
        </g>
    </g>
</svg>