<?xml version="1.0" encoding="UTF-8"?>
<svg width="25px" height="30px" viewBox="0 0 25 30" version="1.1" xmlns="http://www.w3.org/2000/svg" xmlns:xlink="http://www.w3.org/1999/xlink">
    <!-- Generator: Sketch 50.2 (55047) - http://www.bohemiancoding.com/sketch -->
    <title>Group 6 Copy 5</title>
    <desc>Created with Sketch.</desc>
    <defs></defs>
    <g id="18/12" stroke="none" stroke-width="1" fill="none" fill-rule="evenodd">
        <g id="01_Home_Frame" transform="translate(-142.000000, -618.000000)" fill="#FFFFFF" fill-rule="nonzero">
            <g id="Group" transform="translate(0.000000, 602.000000)">
                <g id="Group-6-Copy-5" transform="translate(142.000000, 16.000000)">
                    <g id="Oval-5">
                        <g id="950979">
                            <path d="M23.0807374,24.7788462 C22.5778789,23.4115385 21.3650683,22.4146154 19.9142457,22.1757692 L15.1767588,21.3946154 C16.6013301,20.8096154 17.7855559,19.7694231 18.553261,18.4615385 L19.5006417,18.4615385 C20.4655233,18.4615385 21.2507292,17.685 21.2507292,16.7307692 C22.2156108,16.7307692 23.0008167,15.9542308 23.0008167,15 L23.0008167,12.6923077 C23.0008167,11.9411538 22.5113756,11.3065385 21.8340917,11.0676923 L21.8340917,9.23076923 C21.8340917,4.14115385 17.6467157,0 12.5002917,0 C7.35386769,0 3.16649166,4.14115385 3.16649166,9.23076923 L3.16649166,11.0676923 C2.48920779,11.3065385 1.99976665,11.9411538 1.99976665,12.6923077 L1.99976665,15 C1.99976665,15.9542308 2.78497258,16.7307692 3.74985416,16.7307692 L5.73036985,16.7307692 C6.2833975,18.8434615 7.81530743,20.5696154 9.82382452,21.3946154 L5.08633765,22.1757692 C3.63609847,22.4146154 2.42328783,23.4121154 1.91984599,24.7788462 L0,30 L25,30 L23.0807374,24.7788462 Z M16.9892661,22.8634615 L15.7117023,26.2321154 L13.3088321,24.6478846 L14.7596546,22.4959615 L16.9892661,22.8634615 Z M12.5002917,23.7675 L11.1696418,21.7938462 C11.6013301,21.8763462 12.0452689,21.9230769 12.5002917,21.9230769 C12.9553144,21.9230769 13.3992533,21.8763462 13.8309415,21.7938462 L12.5002917,23.7675 Z M19.5006417,17.3076923 L19.0922879,17.3076923 C19.159958,17.1190385 19.2188776,16.9263462 19.2702135,16.7307692 L20.0840042,16.7307692 C20.0840042,17.0486538 19.8226578,17.3076923 19.5006417,17.3076923 Z M21.8340917,12.6923077 L21.8340917,15 C21.8340917,15.3178846 21.5727453,15.5769231 21.2507292,15.5769231 L21.2507292,13.8461538 L20.0840042,13.8461538 L20.0840042,15.5769231 L19.4708902,15.5769231 C19.4872244,15.3859615 19.5006417,15.195 19.5006417,15 L19.5006417,12.1153846 L21.2507292,12.1153846 C21.5727453,12.1153846 21.8340917,12.3744231 21.8340917,12.6923077 Z M3.74985416,15.5769231 C3.42783806,15.5769231 3.16649166,15.3178846 3.16649166,15 L3.16649166,12.6923077 C3.16649166,12.3744231 3.42783806,12.1153846 3.74985416,12.1153846 L5.49994166,12.1153846 L5.49994166,15 C5.49994166,15.195 5.513359,15.3859615 5.52969315,15.5769231 L3.74985416,15.5769231 Z M5.49994166,9.80769231 L5.49994166,10.9615385 L4.33321666,10.9615385 L4.33321666,9.23076923 C4.33321666,4.77692308 7.99673317,1.15384615 12.5002917,1.15384615 C17.0038502,1.15384615 20.6673667,4.77692308 20.6673667,9.23076923 L20.6673667,10.9615385 L19.5006417,10.9615385 L19.5006417,9.80769231 L18.9172792,9.80769231 C16.8154241,9.80769231 14.8401587,8.99826923 13.3549177,7.52884615 L12.5002917,6.68423077 L11.6456656,7.52884615 C10.1604247,8.99826923 8.18515926,9.80769231 6.08330417,9.80769231 L5.49994166,9.80769231 Z M6.66666667,15 L6.66666667,10.9430769 C8.86069303,10.8057692 10.9036285,9.89538462 12.4705402,8.34519231 L12.5002917,8.31576923 L12.5300432,8.34519231 C14.0975382,9.89596154 16.1398903,10.8063462 18.3339167,10.9436538 L18.3339167,15 C18.3339167,15.8203846 18.1571579,16.6003846 17.8433088,17.3076923 L14.7258196,17.3076923 C14.4843075,16.6378846 13.8426088,16.1538462 13.0830708,16.1538462 L11.9163458,16.1538462 C10.9514642,16.1538462 10.1662583,16.9303846 10.1662583,17.8846154 C10.1662583,18.8388462 10.9514642,19.6153846 11.9163458,19.6153846 L13.0830708,19.6153846 C13.8426088,19.6153846 14.4843075,19.1313462 14.7258196,18.4615385 L17.1555244,18.4615385 C16.0897212,19.8594231 14.4020534,20.7692308 12.4997083,20.7692308 C9.28363085,20.7692308 6.66666667,18.1811538 6.66666667,15 Z M13.6670167,17.8846154 C13.6670167,18.2025 13.4056703,18.4615385 13.0836542,18.4615385 L11.9169292,18.4615385 C11.5949131,18.4615385 11.3335667,18.2025 11.3335667,17.8846154 C11.3335667,17.5667308 11.5949131,17.3076923 11.9169292,17.3076923 L13.0836542,17.3076923 C13.4056703,17.3076923 13.6670167,17.5667308 13.6670167,17.8846154 Z M10.2403454,22.4959615 L11.6911679,24.6478846 L9.28829775,26.2321154 L8.01073387,22.8634615 L10.2403454,22.4959615 Z M20.06592,26.9751923 L18.9347801,27.255 L19.3373002,28.8461538 L5.66328316,28.8461538 L6.06521993,27.2555769 L4.93408004,26.9757692 L4.46155641,28.8461538 L1.6660833,28.8461538 L3.01598413,25.1734615 C3.37533543,24.1973077 4.24221211,23.4848077 5.27768055,23.3140385 L6.83759188,23.0567308 L8.71135223,27.9986538 L12.5002917,25.5011538 L16.2886478,27.9986538 L18.1624081,23.0567308 L19.7223194,23.3140385 C20.7577879,23.4848077 21.6246646,24.1973077 21.9840159,25.1734615 L23.3345001,28.8461538 L20.539027,28.8461538 L20.06592,26.9751923 Z" id="Shape"></path>
                        </g>
                    </g>
                </g>
            </g>
        </g>
    </g>
</svg>