<?xml version="1.0" encoding="UTF-8"?>
<svg width="27px" height="27px" viewBox="0 0 27 27" version="1.1" xmlns="http://www.w3.org/2000/svg" xmlns:xlink="http://www.w3.org/1999/xlink">
    <!-- Generator: Sketch 50.2 (55047) - http://www.bohemiancoding.com/sketch -->
    <title>1034134</title>
    <desc>Created with Sketch.</desc>
    <defs></defs>
    <g id="18/12" stroke="none" stroke-width="1" fill="none" fill-rule="evenodd">
        <g id="01_Home_Frame" transform="translate(-267.000000, -622.000000)" fill="#FFFFFF" fill-rule="nonzero" stroke="#FFFFFF" stroke-width="0.5">
            <g id="Group" transform="translate(0.000000, 602.000000)">
                <g id="1034134" transform="translate(268.000000, 21.000000)">
                    <path d="M24.3001462,19.2514133 L19.2491715,15.8829922 C18.6081871,15.4589669 17.7489766,15.5984893 17.2750975,16.2036062 L15.8038012,18.0953216 C15.6145712,18.3444932 15.2710526,18.4167641 14.9974659,18.2650097 L14.7175926,18.1107212 C13.7898148,17.6050195 12.6354288,16.9754386 10.3095517,14.6487329 C7.98367446,12.3220273 7.35282651,11.1667641 6.84712476,10.240692 L6.69366472,9.96081871 C6.53961988,9.68732943 6.61057505,9.342154 6.85999025,9.15155945 L8.7504386,7.68070175 C9.35531189,7.20677388 9.49502924,6.34780702 9.07149123,5.70662768 L5.70307018,0.655653021 C5.26900585,0.00272904483 4.39814815,-0.193274854 3.72616959,0.210672515 L1.61403509,1.4794347 C0.950389864,1.86959064 0.463499025,2.50146199 0.25545809,3.24264133 C-0.505116959,6.01388889 0.0670565302,10.7966374 7.11247563,17.842885 C12.7169591,23.4469298 16.88923,24.9539961 19.7569688,24.9539961 C20.4169591,24.9568226 21.0743665,24.8709552 21.711501,24.6986842 C22.4528265,24.4908869 23.0847953,24.0039474 23.4747076,23.3401072 L24.7447368,21.2292398 C25.149269,20.557115 24.9533626,19.6857212 24.3001462,19.2514133 Z M24.0281676,20.8025341 L22.7610624,22.9146686 C22.4810916,23.3938109 22.0265595,23.7461014 21.4926901,23.8977583 C18.9343567,24.6001462 14.4647661,24.0183723 7.70087719,17.2544834 C0.936988304,10.4905945 0.355263158,6.02139376 1.05765107,3.46267057 C1.20950292,2.92816764 1.56223197,2.47305068 2.04195906,2.19264133 L4.15409357,0.925536062 C4.44566277,0.750097466 4.82363548,0.835136452 5.0119883,1.11846979 L6.84176413,3.86559454 L8.37753411,6.16900585 C8.56145224,6.44712476 8.50102339,6.81988304 8.23864522,7.02568226 L6.34775828,8.49653996 C5.77231969,8.93654971 5.6079922,9.73269981 5.9622807,10.3645712 L6.1124269,10.6373782 C6.64390838,11.6121345 7.30467836,12.8247563 9.71705653,15.2367446 C12.1294347,17.6486842 13.3416667,18.3095029 14.3159844,18.8409357 L14.5891813,18.9914717 C15.2210039,19.3457115 16.0172027,19.1814327 16.4572125,18.6059942 L17.9280702,16.7151072 C18.1339181,16.4528752 18.5065302,16.3924951 18.7847466,16.5762183 L23.8352827,19.9446394 C24.1188109,20.132846 24.2038499,20.5110136 24.0281676,20.8025341 Z" id="Shape"></path>
                    <path d="M17.0514133,11.6466862 L18.7148148,11.6466862 L18.7148148,13.7259747 C18.7148635,13.894152 18.8161793,14.0457602 18.97154,14.1100877 C19.1269006,14.1744152 19.3057505,14.1388889 19.4246589,14.0199805 L21.7979532,11.6466862 L23.7050682,11.6466862 C24.3940546,11.6466862 24.9526316,11.0881579 24.9526316,10.3991228 L24.9526316,6.24059454 C24.9526316,5.55160819 24.3941033,4.99303119 23.7050682,4.99303119 L17.0514133,4.99303119 C16.3624269,4.99303119 15.8038499,5.55155945 15.8038499,6.24059454 L15.8038499,10.3991228 C15.8038499,11.0881092 16.3623782,11.6466862 17.0514133,11.6466862 Z M16.6355263,6.24054581 C16.6355263,6.01086745 16.8216862,5.8247076 17.0513645,5.8247076 L23.7050195,5.8247076 C23.9346979,5.8247076 24.1208577,6.01086745 24.1208577,6.24054581 L24.1208577,10.3990741 C24.1208577,10.6287524 23.9346979,10.8149123 23.7050195,10.8149123 L21.625731,10.8149123 C21.5154483,10.8149123 21.4096979,10.8587719 21.3317251,10.9367446 L19.5464425,12.7220273 L19.5464425,11.2307505 C19.5464425,11.0010721 19.3602339,10.8149123 19.1306043,10.8149123 L17.0513158,10.8149123 C16.8216374,10.8149123 16.6354776,10.6287037 16.6354776,10.3990741 L16.6354776,6.24054581 L16.6355263,6.24054581 Z" id="Shape"></path>
                </g>
            </g>
        </g>
    </g>
</svg>