<?xml version="1.0" encoding="UTF-8"?>
<svg width="50px" height="50px" viewBox="0 0 50 50" version="1.1" xmlns="http://www.w3.org/2000/svg" xmlns:xlink="http://www.w3.org/1999/xlink">
    <!-- Generator: Sketch 53.2 (72643) - https://sketchapp.com -->
    <title>14</title>
    <desc>Created with Sketch.</desc>
    <g id="20/02" stroke="none" stroke-width="1" fill="none" fill-rule="evenodd">
        <g id="00_Menu-01" transform="translate(-829.000000, -942.000000)" fill="#FFFFFF" fill-rule="nonzero">
            <g id="14" transform="translate(829.000000, 942.000000)">
                <path d="M19.9487936,30.6581871 L18.2563598,30.0509259 C17.6996988,29.8507493 17.324274,29.2883285 17.3245618,28.6549708 C17.3245618,27.7398331 18.0118012,26.9980507 18.8596491,26.9980507 C19.707497,26.9980507 20.3947364,27.7398331 20.3947364,28.6549708 L21.9298237,28.6549708 C21.9245468,27.1485197 20.9786452,25.8354106 19.6271928,25.4587719 L19.6271928,23.6842105 L18.0921055,23.6842105 L18.0921055,25.4587719 C16.740749,25.8354106 15.7947514,27.1485197 15.7894745,28.6549708 C15.7885151,30.001529 16.5867605,31.1973075 17.7705047,31.6225146 L19.4629384,32.2297758 C20.0195995,32.4299525 20.3950242,32.9923733 20.3947364,33.625731 C20.3947364,34.5408687 19.707497,35.2826511 18.8596491,35.2826511 C18.0118012,35.2826511 17.3245618,34.5408687 17.3245618,33.625731 L15.7894745,33.625731 C15.7947514,35.132182 16.740749,36.4452912 18.0921055,36.8219298 L18.0921055,38.5964912 L19.6271928,38.5964912 L19.6271928,36.8219298 C20.9786452,36.4452912 21.9245468,35.132182 21.9298237,33.625731 C21.9307831,32.2791728 21.1325377,31.0833942 19.9487936,30.6581871 Z" id="Shape"></path>
                <path d="M49.1666667,18.3332576 L32.32,18.3332576 C30.5589583,16.1630583 28.3451042,14.4036905 25.8333333,13.1782789 L25.8333333,9.58329376 L28.8333333,7.33330305 C29.043125,7.17590787 29.1666667,6.92892972 29.1666667,6.66663914 L29.1666667,0.833329893 C29.1666667,0.373123459 28.7935417,0 28.3333333,0 L25,0 C24.7789583,0 24.5670833,0.0879163037 24.4108333,0.244165659 L23.3333333,1.32166121 L22.2558333,0.244165659 C22.0995833,0.0879163037 21.8877083,0 21.6666667,0 L16.6666667,0 C16.445625,0 16.23375,0.0879163037 16.0775,0.244165659 L15,1.32166121 L13.9225,0.244165659 C13.76625,0.0879163037 13.554375,0 13.3333333,0 L10,0 C9.53979167,0 9.16666667,0.373123459 9.16666667,0.833329893 L9.16666667,6.66663914 C9.16666667,6.92892972 9.29020833,7.17590787 9.5,7.33330305 L12.5,9.58329376 L12.5,13.1866122 C6.19166667,16.2390996 0,24.4382324 0,34.9540223 C0,44.5156495 6.98583333,49.9997936 19.1666667,49.9997936 C21.1438542,50.0068769 23.1175,49.8316692 25.0625,49.4764624 C25.1888542,49.7916694 25.49375,49.9986477 25.8333333,49.9997936 L49.1666667,49.9997936 C49.626875,49.9997936 50,49.6266701 50,49.1664637 L50,19.1665875 C50,18.7063811 49.626875,18.3332576 49.1666667,18.3332576 Z M10.8333333,6.24997419 L10.8333333,1.66665979 L12.9883333,1.66665979 L14.4108333,3.08915391 C14.73625,3.41446507 15.26375,3.41446507 15.5891667,3.08915391 L17.0116667,1.66665979 L21.3216667,1.66665979 L22.7441667,3.08915391 C23.0695833,3.41446507 23.5970833,3.41446507 23.9225,3.08915391 L25.345,1.66665979 L27.5,1.66665979 L27.5,6.24997419 L24.7225,8.33329893 L13.6108333,8.33329893 L10.8333333,6.24997419 Z M24.1666667,9.99995871 L24.1666667,12.4999484 L14.1666667,12.4999484 L14.1666667,9.99995871 L24.1666667,9.99995871 Z M25,38.7273401 C21.100625,41.9560768 15.3221875,41.4125373 12.0933333,37.5131784 C8.86458333,33.6138195 9.408125,27.8354059 13.3075,24.6065651 C16.6990625,21.7982433 21.6083333,21.7982433 24.9998958,24.6065651 L24.9998958,38.7273401 L25,38.7273401 Z M25,19.1665875 L25,22.5474069 C19.9638542,19.3172119 13.2626042,20.7811642 10.0323958,25.8172892 C6.8021875,30.8534143 8.26614583,37.5546366 13.3022917,40.7848316 C16.8664583,43.070968 21.4359375,43.070968 25.0001042,40.7848316 L25.0001042,47.793136 C23.0776042,48.1608428 21.1240625,48.3416754 19.1667708,48.3331338 C13.9051042,48.3331338 1.66677083,47.0298058 1.66677083,34.9540223 C1.66677083,26.9815553 6.44510417,17.0615962 14.4451042,14.1666082 L23.8942708,14.1666082 C26.2515625,15.0613961 28.3710417,16.4871194 30.0884375,18.3332576 L25.8334375,18.3332576 C25.373125,18.3332576 25,18.7063811 25,19.1665875 Z M48.3333333,48.3331338 L26.6666667,48.3331338 L26.6666667,26.6665566 L48.3333333,26.6665566 L48.3333333,48.3331338 Z M48.3333333,24.9998968 L26.6666667,24.9998968 L26.6666667,19.9999174 L48.3333333,19.9999174 L48.3333333,24.9998968 Z" id="Shape"></path>
                <path d="M32.4561404,28.0701754 L28.9473684,28.0701754 C28.4629386,28.0701754 28.0701754,28.4629386 28.0701754,28.9473684 L28.0701754,32.4561404 C28.0701754,32.9405702 28.4629386,33.3333333 28.9473684,33.3333333 L32.4561404,33.3333333 C32.9405702,33.3333333 33.3333333,32.9405702 33.3333333,32.4561404 L33.3333333,28.9473684 C33.3333333,28.4629386 32.9405702,28.0701754 32.4561404,28.0701754 Z M31.5789474,31.5789474 L29.8245614,31.5789474 L29.8245614,29.8245614 L31.5789474,29.8245614 L31.5789474,31.5789474 Z" id="Shape"></path>
                <path d="M39.4736842,28.0701754 L35.9649123,28.0701754 C35.4804825,28.0701754 35.0877193,28.4629386 35.0877193,28.9473684 L35.0877193,32.4561404 C35.0877193,32.9405702 35.4804825,33.3333333 35.9649123,33.3333333 L39.4736842,33.3333333 C39.958114,33.3333333 40.3508772,32.9405702 40.3508772,32.4561404 L40.3508772,28.9473684 C40.3508772,28.4629386 39.958114,28.0701754 39.4736842,28.0701754 Z M38.5964912,31.5789474 L36.8421053,31.5789474 L36.8421053,29.8245614 L38.5964912,29.8245614 L38.5964912,31.5789474 Z" id="Shape"></path>
                <path d="M45.6140351,28.0701754 L42.1052632,28.0701754 C41.6208333,28.0701754 41.2280702,28.4629386 41.2280702,28.9473684 L41.2280702,32.4561404 C41.2280702,32.9405702 41.6208333,33.3333333 42.1052632,33.3333333 L45.6140351,33.3333333 C46.0984649,33.3333333 46.4912281,32.9405702 46.4912281,32.4561404 L46.4912281,28.9473684 C46.4912281,28.4629386 46.0984649,28.0701754 45.6140351,28.0701754 Z M44.7368421,31.5789474 L42.9824561,31.5789474 L42.9824561,29.8245614 L44.7368421,29.8245614 L44.7368421,31.5789474 Z" id="Shape"></path>
                <path d="M32.4561404,35.0877193 L28.9473684,35.0877193 C28.4629386,35.0877193 28.0701754,35.4804825 28.0701754,35.9649123 L28.0701754,39.4736842 C28.0701754,39.958114 28.4629386,40.3508772 28.9473684,40.3508772 L32.4561404,40.3508772 C32.9405702,40.3508772 33.3333333,39.958114 33.3333333,39.4736842 L33.3333333,35.9649123 C33.3333333,35.4804825 32.9405702,35.0877193 32.4561404,35.0877193 Z M31.5789474,38.5964912 L29.8245614,38.5964912 L29.8245614,36.8421053 L31.5789474,36.8421053 L31.5789474,38.5964912 Z" id="Shape"></path>
                <path d="M39.4736842,35.0877193 L35.9649123,35.0877193 C35.4804825,35.0877193 35.0877193,35.4804825 35.0877193,35.9649123 L35.0877193,39.4736842 C35.0877193,39.958114 35.4804825,40.3508772 35.9649123,40.3508772 L39.4736842,40.3508772 C39.958114,40.3508772 40.3508772,39.958114 40.3508772,39.4736842 L40.3508772,35.9649123 C40.3508772,35.4804825 39.958114,35.0877193 39.4736842,35.0877193 Z M38.5964912,38.5964912 L36.8421053,38.5964912 L36.8421053,36.8421053 L38.5964912,36.8421053 L38.5964912,38.5964912 Z" id="Shape"></path>
                <path d="M32.4561404,41.2280702 L28.9473684,41.2280702 C28.4629386,41.2280702 28.0701754,41.6208333 28.0701754,42.1052632 L28.0701754,45.6140351 C28.0701754,46.0984649 28.4629386,46.4912281 28.9473684,46.4912281 L32.4561404,46.4912281 C32.9405702,46.4912281 33.3333333,46.0984649 33.3333333,45.6140351 L33.3333333,42.1052632 C33.3333333,41.6208333 32.9405702,41.2280702 32.4561404,41.2280702 Z M31.5789474,44.7368421 L29.8245614,44.7368421 L29.8245614,42.9824561 L31.5789474,42.9824561 L31.5789474,44.7368421 Z" id="Shape"></path>
                <path d="M39.4736842,41.2280702 L35.9649123,41.2280702 C35.4804825,41.2280702 35.0877193,41.6208333 35.0877193,42.1052632 L35.0877193,45.6140351 C35.0877193,46.0984649 35.4804825,46.4912281 35.9649123,46.4912281 L39.4736842,46.4912281 C39.958114,46.4912281 40.3508772,46.0984649 40.3508772,45.6140351 L40.3508772,42.1052632 C40.3508772,41.6208333 39.958114,41.2280702 39.4736842,41.2280702 Z M38.5964912,44.7368421 L36.8421053,44.7368421 L36.8421053,42.9824561 L38.5964912,42.9824561 L38.5964912,44.7368421 Z" id="Shape"></path>
                <path d="M45.6140351,35.0877193 L42.1052632,35.0877193 C41.6208333,35.0877193 41.2280702,35.4524279 41.2280702,35.9022556 L41.2280702,45.6766917 C41.2280702,46.1265194 41.6208333,46.4912281 42.1052632,46.4912281 L45.6140351,46.4912281 C46.0984649,46.4912281 46.4912281,46.1265194 46.4912281,45.6766917 L46.4912281,35.9022556 C46.4912281,35.4524279 46.0984649,35.0877193 45.6140351,35.0877193 Z M44.7368421,44.8621554 L42.9824561,44.8621554 L42.9824561,36.716792 L44.7368421,36.716792 L44.7368421,44.8621554 Z" id="Shape"></path>
                <polygon id="Rectangle-path" points="44.7368421 21.9298246 46.4912281 21.9298246 46.4912281 23.6842105 44.7368421 23.6842105"></polygon>
                <polygon id="Rectangle-path" points="41.2280702 21.9298246 42.9824561 21.9298246 42.9824561 23.6842105 41.2280702 23.6842105"></polygon>
                <polygon id="Rectangle-path" points="38.5964912 21.9298246 40.3508772 21.9298246 40.3508772 23.6842105 38.5964912 23.6842105"></polygon>
            </g>
        </g>
    </g>
</svg>