<?xml version="1.0" encoding="UTF-8"?>
<svg width="50px" height="42px" viewBox="0 0 50 42" version="1.1" xmlns="http://www.w3.org/2000/svg" xmlns:xlink="http://www.w3.org/1999/xlink">
    <!-- Generator: Sketch 53.2 (72643) - https://sketchapp.com -->
    <title>Group 6</title>
    <desc>Created with Sketch.</desc>
    <g id="20/02" stroke="none" stroke-width="1" fill="none" fill-rule="evenodd">
        <g id="00_Menu-01" transform="translate(-539.000000, -212.000000)" fill="#fff" fill-rule="nonzero">
            <g id="Group-6" transform="translate(539.000000, 212.000000)">
                <path d="M35.9545143,19.9999915 L30.7272816,19.9999915 L30.7272816,15.0000298 C30.7272816,14.4477494 30.25918,14 29.6817959,14 L21.3182041,14 C20.74082,14 20.2727184,14.4477494 20.2727184,15.0000298 L20.2727184,19.9999915 L15.0454857,19.9999915 C14.4681016,19.9999915 14,20.4477408 14,21.0000213 L14,28.9999787 C14,29.5522592 14.4681016,30.0000085 15.0454857,30.0000085 L20.2727184,30.0000085 L20.2727184,34.9999702 C20.2727184,35.5522506 20.74082,36 21.3182041,36 L29.6817959,36 C30.25918,36 30.7272816,35.5522506 30.7272816,34.9999702 L30.7272816,30.0000085 L35.9545143,30.0000085 C36.5318984,30.0000085 37,29.5522592 37,28.9999787 L37,21.0000213 C36.999902,20.4477408 36.5318984,19.9999915 35.9545143,19.9999915 Z M34.9090285,27.9999489 L29.6817959,27.9999489 C29.1044118,27.9999489 28.6363102,28.4476982 28.6363102,28.9999787 L28.6363102,33.9999403 L22.3635918,33.9999403 L22.3635918,28.9999787 C22.3635918,28.4476982 21.8954902,27.9999489 21.3181061,27.9999489 L16.0908735,27.9999489 L16.0908735,21.9999574 L21.3181061,21.9999574 C21.8954902,21.9999574 22.3635918,21.552208 22.3635918,20.9999276 L22.3635918,15.9999659 L28.6363102,15.9999659 L28.6363102,20.9999276 C28.6363102,21.552208 29.1044118,21.9999574 29.6817959,21.9999574 L34.9090285,21.9999574 L34.9090285,27.9999489 Z" id="Shape"></path>
                <path d="M44.0011602,7.17076919 L33.3333659,7.17076919 L33.3333659,4.23896207 C33.3333659,1.90133377 31.364612,0 28.9447831,0 L20.682267,0 C18.3552116,0 16.6666341,1.78244038 16.6666341,4.23896207 L16.6666341,7.17076919 L5.9989375,7.17076919 C2.68721228,7.17413047 0.00341797543,9.81340992 0,13.0702051 L0,36.1005641 C0.00341797543,39.3573593 2.68721228,41.9966387 5.9989375,42 L44.0010625,42 C47.3127877,41.9966387 49.996582,39.3573593 50,36.1005641 L50,13.0702051 C49.9966797,9.81350596 47.3128854,7.17413047 44.0011602,7.17076919 Z M18.7500366,4.23896207 C18.7500366,3.14904203 19.3469128,2.04884607 20.6823646,2.04884607 L28.9448808,2.04884607 C30.215684,2.04884607 31.250061,3.03120505 31.250061,4.23896207 L31.250061,7.17076919 L18.7500366,7.17076919 L18.7500366,4.23896207 Z M47.9167928,36.0974909 C47.9162069,38.2244148 46.1639574,39.9489451 44.0011602,39.95125 L5.9989375,39.95125 C3.83731218,39.9490411 2.0856486,38.2263355 2.08330485,36.1005641 L2.08330485,13.0702051 C2.0856486,10.9444336 3.83731218,9.2218241 5.9989375,9.21951922 L44.0010625,9.21951922 C46.1626878,9.2218241 47.9144491,10.9444336 47.9166951,13.0702051 L47.9166951,36.0974909 L47.9167928,36.0974909 Z" id="Shape"></path>
            </g>
        </g>
    </g>
</svg>