<?xml version="1.0" encoding="UTF-8"?>
<svg width="42px" height="55px" viewBox="0 0 42 55" version="1.1" xmlns="http://www.w3.org/2000/svg" xmlns:xlink="http://www.w3.org/1999/xlink">
    <!-- Generator: Sketch 53.2 (72643) - https://sketchapp.com -->
    <title>1</title>
    <desc>Created with Sketch.</desc>
    <g id="20/02" stroke="none" stroke-width="1" fill="none" fill-rule="evenodd">
        <g id="10_01_Tool_Matching" transform="translate(-839.000000, -576.000000)" fill-rule="nonzero">
            <g id="Group-2-Copy" transform="translate(475.000000, 275.000000)">
                <g id="1" transform="translate(364.000000, 301.000000)">
                    <path d="M37.9395451,40.1560187 L30.9190357,37.6179917 L20.961447,39.5978734 L11.0038584,37.6179917 L3.98334898,40.1560187 C1.62227871,41.00954 0.0505228764,43.2404433 0.0505228764,45.7381918 L0.0505228764,53.4572849 C0.0505228764,54.004042 0.496305869,54.4472257 1.04626969,54.4472257 L40.8765038,54.4472257 C41.4264676,54.4472257 41.8722506,54.004042 41.8722506,53.4572849 L41.8722506,45.7381918 C41.8722506,43.2404433 40.3006154,41.0096599 37.9395451,40.1560187 Z" id="Shape" fill="#E4EAF8"></path>
                    <polygon id="Rectangle-path" fill="#E6AF78" points="13.9908576 29.6982252 27.9310718 29.6982252 27.9310718 39.5976336 13.9908576 39.5976336"></polygon>
                    <path d="M13.9910988,32.7789336 C16.043244,33.9606769 18.4191456,34.6481692 20.9613265,34.6481692 C23.5035074,34.6481692 25.879409,33.9606769 27.9315541,32.7789336 L27.9315541,29.698465 L13.9910988,29.698465 L13.9910988,32.7789336 Z" id="Shape" fill="#D29B6E"></path>
                    <path d="M30.9189151,0 L17.9739655,0 C16.1948126,0 14.6020759,0.777399655 13.5075744,2.00421663 C10.4347224,2.249604 8.01661794,4.80153674 8.01661794,7.9196466 L8.01661794,11.6508053 C8.01661794,12.460212 8.11645789,13.2666218 8.31396737,14.0518134 L8.71501531,15.6467714 C8.91252479,16.4320829 9.01236475,17.2383728 9.01236475,18.0477795 L9.01236475,19.7989367 L32.9105293,19.7989367 L32.9105293,18.0477795 C32.9105293,17.2383728 33.0103693,16.431963 33.2078788,15.6467714 L33.6089267,14.0518134 C33.8064362,13.2665019 33.9062762,12.460212 33.9062762,11.6508053 L33.9062762,2.96982252 C33.9062762,1.32967108 32.5688066,0 30.9189151,0 Z" id="Shape" fill="#694B4B"></path>
                    <path d="M17.9742066,19.7989367 L17.9742066,9.89952828 L15.982713,9.89952828 C13.7829783,9.89952828 11.9997258,8.12667346 11.9997258,5.93976492 C11.9997258,4.42704229 12.5733232,3.05061934 13.509986,2.00193897 C13.5092625,2.00277811 13.5084184,2.00349737 13.507695,2.0043365 C10.434843,2.24972387 8.01673852,4.80165662 8.01673852,7.91976647 L8.01673852,11.6508053 C8.01673852,12.460212 8.11657847,13.2665019 8.31408795,14.0518134 L8.71525647,15.6467714 C8.91276595,16.431963 9.01260591,17.2383728 9.01260591,18.0477795 L9.01260591,19.7989367 L17.9742066,19.7989367 L17.9742066,19.7989367 Z" id="Shape" fill="#5A4146"></path>
                    <polygon id="Shape" fill="#B4E66E" points="22.3671647 42.5678158 19.5556088 42.5686549 18.9699534 54.4472257 22.9529407 54.4472257"></polygon>
                    <path d="M18.9699534,39.5979932 L18.9699534,42.5678158 C18.9699534,43.114453 19.4157364,43.5577566 19.9657002,43.5577566 L21.9571939,43.5577566 C22.5071577,43.5577566 22.9529407,43.114453 22.9529407,42.5678158 L22.9529407,39.5979932 L18.9699534,39.5979932 Z" id="Shape" fill="#A0D755"></path>
                    <g id="Group" transform="translate(10.972749, 35.003963)" fill="#D5DCED">
                        <path d="M2.84254484,0.153681782 L9.98869823,4.5939105 L5.84111976,8.7173054 C5.40606836,9.14982011 4.68439911,9.0904812 4.32675984,8.59275362 L0.0312301312,2.61402882 L1.48638544,0.444022871 C1.78506125,-0.00143851902 2.38590968,-0.130066095 2.84254484,0.153681782 Z" id="Shape"></path>
                        <path d="M17.134731,0.153681782 L9.98857765,4.5939105 L14.1361561,8.7173054 C14.5712075,9.14982011 15.2928768,9.0904812 15.650516,8.59275362 L19.9460458,2.61402882 L18.4908904,0.444022871 C18.1923352,-0.00143851902 17.5914868,-0.130066095 17.134731,0.153681782 Z" id="Shape"></path>
                    </g>
                    <path d="M28.9430969,12.1509304 C24.2965598,9.1355548 17.1121826,9.38549748 13.793107,9.70173191 C12.7725208,9.79895182 11.9996052,10.6530725 11.9996052,11.6723831 L11.9996052,13.9593886 C11.9996052,14.529162 11.7719508,15.0755595 11.3666826,15.4783448 L9.64516679,17.1898228 C9.23989856,17.592728 9.01224417,18.1391255 9.01224417,18.708779 L9.01224417,20.3948432 C9.01224417,26.9356693 14.159428,32.5464929 20.7375306,32.6661297 C27.4392274,32.7880442 32.9104088,27.423567 32.9104088,20.7887576 L32.9104088,18.708779 C32.9104088,18.1390056 32.6827544,17.5926081 32.2774861,17.1898228 L30.556091,15.4784647 C30.1508227,15.0755595 29.9231683,14.529162 29.9231683,13.9595085 L29.9231683,13.9593886 C29.9231683,13.231498 29.5561239,12.5488008 28.9430969,12.1509304 Z" id="Shape" fill="#F0C087"></path>
                    <path d="M15.9825924,23.7588199 L15.9825924,14.7062197 C15.9825924,13.630687 16.8396726,12.7499537 17.9211516,12.7262182 C21.0289717,12.6577686 26.023984,12.7921503 29.9328147,14.0566085 C29.9312472,14.0238822 29.9231683,13.9923546 29.9231683,13.9595085 L29.9231683,13.9593886 C29.9231683,13.2330564 29.5582943,12.550599 28.9465937,12.153328 C25.155931,9.69142253 19.6758267,9.40455786 15.9825924,9.55416384 C15.1487841,9.58796903 14.4045664,9.64359177 13.793107,9.70185179 C12.7725208,9.7990717 11.9996052,10.6531924 11.9996052,11.672503 L11.9996052,13.9595085 C11.9996052,14.529162 11.7719508,15.0755595 11.3668031,15.4784647 L9.64528737,17.1898228 C9.24001914,17.592728 9.01236475,18.1391255 9.01236475,18.7088989 L9.01236475,20.3949631 C9.01236475,26.6829695 13.7734525,32.096596 19.9854753,32.6132641 C17.5345732,30.4377439 15.9825924,27.2822325 15.9825924,23.7588199 Z" id="Shape" fill="#E6AF78"></path>
                </g>
            </g>
        </g>
    </g>
</svg>