<?xml version="1.0" encoding="UTF-8"?>
<svg width="36px" height="51px" viewBox="0 0 36 51" version="1.1" xmlns="http://www.w3.org/2000/svg" xmlns:xlink="http://www.w3.org/1999/xlink">
    <!-- Generator: Sketch 53.2 (72643) - https://sketchapp.com -->
    <title>Group 10</title>
    <desc>Created with Sketch.</desc>
    <g id="20/02" stroke="none" stroke-width="1" fill="none" fill-rule="evenodd">
        <g id="00_Menu-01" transform="translate(-1022.000000, -411.000000)" fill="#fff" fill-rule="nonzero">
            <g id="Group-10" transform="translate(1022.000000, 411.000000)">
                <path d="M5.06511628,30.505814 C8.34069767,33.8860465 12.9244186,36 18,36 C27.9209302,36 36,27.9209302 36,18 C36,8.07906977 27.9209302,0 18,0 C8.07906977,0 0,8.07906977 0,18 C0,22.7302326 1.84186047,27.0418605 4.83488372,30.2546512 C4.89767442,30.3593023 4.98139535,30.4325581 5.06511628,30.505814 Z M18,33.927907 C14.0860465,33.927907 10.4860465,32.5046512 7.7127907,30.15 C12.3802326,28.6011628 14.1069767,26.7174419 14.7453488,25.4616279 C15.6348837,25.8488372 16.6290698,26.0581395 17.727907,26.0686047 C17.7488372,26.0686047 17.7802326,26.0686047 17.8011628,26.0686047 C17.8116279,26.0686047 17.8744186,26.0686047 17.8953488,26.0686047 C17.9162791,26.0686047 17.9476744,26.0686047 17.9686047,26.0686047 C19.1616279,26.0476744 20.2395349,25.8069767 21.1709302,25.3569767 C21.7674419,26.6127907 23.4627907,28.5593023 28.2662791,30.15 C25.5034884,32.5046512 21.9139535,33.927907 18,33.927907 Z M12.1813953,14.672093 C12.1813953,14.6511628 12.1813953,14.6302326 12.1813953,14.6093023 C12.4325581,9.15697674 16.4511628,8.72790698 17.6860465,8.72790698 C17.7383721,8.72790698 17.7802326,8.72790698 17.8116279,8.72790698 C17.8430233,8.72790698 17.8639535,8.72790698 17.8953488,8.72790698 C17.9267442,8.72790698 17.9581395,8.72790698 18.0209302,8.72790698 C19.2453488,8.72790698 23.2744186,9.15697674 23.5255814,14.6093023 C23.5255814,14.6302326 23.5255814,14.6511628 23.5255814,14.672093 C23.5360465,14.7244186 24.0488372,19.7686047 21.694186,22.4162791 C20.7627907,23.4627907 19.5174419,23.9860465 17.8953488,23.9965116 C17.8848837,23.9965116 17.8639535,23.9965116 17.8639535,23.9965116 L17.8639535,23.9965116 C17.8534884,23.9965116 17.8430233,23.9965116 17.8325581,23.9965116 C16.2,23.9755814 14.9651163,23.4627907 14.0337209,22.4162791 C11.6686047,19.7895349 12.1709302,14.7244186 12.1813953,14.672093 Z M18,2.07209302 C26.7802326,2.07209302 33.927907,9.21976744 33.927907,18 C33.927907,22.0186047 32.4209302,25.7023256 29.9616279,28.5069767 C23.2011628,26.5395349 22.9395349,24.1534884 22.9395349,24.122093 C22.9395349,24.1639535 22.9395349,24.1744186 22.9395349,24.1744186 L22.8662791,24.1744186 C22.9918605,24.0488372 23.1174419,23.9232558 23.2430233,23.7872093 C26.1209302,20.5534884 25.6395349,15.0174419 25.5872093,14.4732558 C25.3046512,8.69651163 21.3383721,6.64534884 18.0209302,6.64534884 C17.9581395,6.64534884 17.8953488,6.64534884 17.8534884,6.64534884 C17.8116279,6.64534884 17.7593023,6.64534884 17.6860465,6.64534884 C14.3686047,6.64534884 10.3918605,8.69651163 10.1197674,14.4732558 C10.0674419,15.0069767 9.59651163,20.5430233 12.4639535,23.7872093 C12.6313953,23.9755814 12.8093023,24.1534884 12.9872093,24.3209302 C12.7674419,24.927907 11.6581395,26.8534884 6.03837209,28.4965116 C3.56860465,25.6918605 2.07209302,22.0186047 2.07209302,18 C2.07209302,9.21976744 9.21976744,2.07209302 18,2.07209302 Z" id="Shape"></path>
                <path d="M5.02325581,44 L30.9767442,44 C31.5452196,44 32,43.5555556 32,43 C32,42.4444444 31.5452196,42 30.9767442,42 L5.02325581,42 C4.45478036,42 4,42.4444444 4,43 C4,43.5454545 4.46511628,44 5.02325581,44 Z" id="Shape"></path>
                <path d="M27,50 C27,49.4444444 26.5421687,49 25.9698795,49 L9.03012048,49 C8.45783133,49 8,49.4444444 8,50 C8,50.5555556 8.45783133,51 9.03012048,51 L25.9802848,51 C26.5421687,51 27,50.5454545 27,50 Z" id="Shape"></path>
            </g>
        </g>
    </g>
</svg>