<?xml version="1.0" encoding="UTF-8"?>
<svg width="16px" height="20px" viewBox="0 0 16 20" version="1.1" xmlns="http://www.w3.org/2000/svg" xmlns:xlink="http://www.w3.org/1999/xlink">
    <!-- Generator: Sketch 53.2 (72643) - https://sketchapp.com -->
    <title>bxs-map</title>
    <desc>Created with Sketch.</desc>
    <g id="20/02" stroke="none" stroke-width="1" fill="none" fill-rule="evenodd">
        <g id="08_Chi-nhanh" transform="translate(-119.000000, -899.000000)" fill="#2A79C0" fill-rule="nonzero">
            <g id="Group" transform="translate(95.000000, 879.000000)">
                <g id="bxs-map" transform="translate(24.000000, 20.000000)">
                    <path d="M7.42000638,19.814 C7.59400447,19.938 7.79700223,20 8,20 C8.20299777,20 8.40599553,19.938 8.57999362,19.814 C8.88399027,19.599 16.0289116,14.44 15.999912,8 C15.999912,3.589 12.4109515,0 8,0 C3.58904854,0 8.8036758e-05,3.589 8.8036758e-05,7.995 C-0.0289116441,14.44 7.11600973,19.599 7.42000638,19.814 Z M8,4 C10.2099757,4 11.999956,5.79 11.999956,8 C11.999956,10.21 10.2099757,12 8,12 C5.79002432,12 4.00004402,10.21 4.00004402,8 C4.00004402,5.79 5.79002432,4 8,4 Z" id="Shape"></path>
                </g>
            </g>
        </g>
    </g>
</svg>