<?xml version="1.0" encoding="UTF-8"?>
<svg width="36px" height="36px" viewBox="0 0 36 36" version="1.1" xmlns="http://www.w3.org/2000/svg" xmlns:xlink="http://www.w3.org/1999/xlink">
    <!-- Generator: Sketch 53.2 (72643) - https://sketchapp.com -->
    <title>Group 3</title>
    <desc>Created with Sketch.</desc>
    <g id="20/02" stroke="none" stroke-width="1" fill="none" fill-rule="evenodd">
        <g id="08_Chi-nhanh" transform="translate(-1755.000000, -526.000000)">
            <g id="Group-2" transform="translate(1741.000000, 524.000000)">
                <g id="Group-3" transform="translate(12.646447, 0.646447)">
                    <path d="M11.1277704,6 L28.1478789,6 C29.9309164,6 30.5774888,6.18565122 31.2293407,6.53426541 C31.8811925,6.88287959 32.3927697,7.39445674 32.7413839,8.04630859 C33.0899981,8.69816044 33.2756493,9.34473292 33.2756493,11.1277704 L33.2756493,28.1478789 C33.2756493,29.9309164 33.0899981,30.5774888 32.7413839,31.2293407 C32.3927697,31.8811925 31.8811925,32.3927697 31.2293407,32.7413839 C30.5774888,33.0899981 29.9309164,33.2756493 28.1478789,33.2756493 L11.1277704,33.2756493 C9.34473292,33.2756493 8.69816044,33.0899981 8.04630859,32.7413839 C7.39445674,32.3927697 6.88287959,31.8811925 6.53426541,31.2293407 C6.18565122,30.5774888 6,29.9309164 6,28.1478789 L6,11.1277704 C6,9.34473292 6.18565122,8.69816044 6.53426541,8.04630859 C6.88287959,7.39445674 7.39445674,6.88287959 8.04630859,6.53426541 C8.69816044,6.18565122 9.34473292,6 11.1277704,6 Z" id="Rectangle-4" fill="#0095DA" transform="translate(19.637825, 19.637825) rotate(-45.000000) translate(-19.637825, -19.637825) "></path>
                    <polygon id="Shape" fill="#FFFFFF" fill-rule="nonzero" points="14.3535534 13.3535534 14.3535534 22.3535534 22.3535534 22.3535534 22.3535534 25.3535534 26.3535534 21.3535534 22.3535534 17.3535534 22.3535534 20.3535534 16.3535534 20.3535534 16.3535534 13.3535534"></polygon>
                </g>
            </g>
        </g>
    </g>
</svg>