<?xml version="1.0" encoding="UTF-8"?>
<svg width="50px" height="50px" viewBox="0 0 50 50" version="1.1" xmlns="http://www.w3.org/2000/svg" xmlns:xlink="http://www.w3.org/1999/xlink">
    <!-- Generator: Sketch 53.2 (72643) - https://sketchapp.com -->
    <title>15</title>
    <desc>Created with Sketch.</desc>
    <g id="20/02" stroke="none" stroke-width="1" fill="none" fill-rule="evenodd">
        <g id="00_Menu-01" transform="translate(-1037.000000, -942.000000)" fill="#FFFFFF" fill-rule="nonzero">
            <g id="15" transform="translate(1037.000000, 942.000000)">
                <path d="M39.5834203,47.4224098 C39.5834203,47.6979345 39.3595997,47.9212381 39.0834372,47.9212381 L6.79282892,47.9212381 C6.5176429,47.944231 6.27595185,47.740218 6.25290575,47.465765 C6.25173392,47.4513457 6.251148,47.4369265 6.251148,47.4224098 L6.251148,3.32803592 C6.25056208,2.94280799 6.18728297,2.5602106 6.06365433,2.19524756 L38.1980179,2.19524756 C38.9688903,2.20089835 39.5891818,2.82891536 39.5835179,3.59800724 C39.5835179,3.60151463 39.5834203,3.60502201 39.5834203,3.60862683 L39.5834203,21.9405661 L41.6666507,21.9405661 L41.6666507,3.60862683 C41.6724122,1.68989165 40.1210974,0.128227881 38.1980179,0.116828875 L3.91792605,0.116828875 C3.10486758,-0.122939952 2.22696755,0.0102433018 1.52220621,0.480525353 C0.555637301,1.16573224 -0.012702872,2.28030168 0.00145680581,3.46316772 L0.00145680581,11.0391222 C-0.0453189576,12.4215196 1.04009359,13.5800288 2.42569131,13.6266965 C2.42657018,13.6266965 2.42754671,13.6267939 2.42842559,13.6267939 L4.1679176,13.6267939 L4.1679176,47.4224098 C4.1679176,48.8458241 5.32451915,49.9996568 6.75113111,49.9996568 L39.0417394,49.9996568 C40.4682537,50.0226496 41.6433116,48.887523 41.6663577,47.4643036 C41.666553,47.4503715 41.6666507,47.4363419 41.6666507,47.4224098 L41.6666507,38.5682079 L39.5834203,38.5682079 L39.5834203,47.4224098 Z M4.1679176,11.5483752 L2.42842559,11.5483752 C2.261732,11.5483752 2.0846872,11.3405626 2.0846872,11.0495469 L2.0846872,3.46316772 C2.07062518,2.97067222 2.29083258,2.50058503 2.67841714,2.19534499 C2.81005332,2.10512722 2.966591,2.05787493 3.12635123,2.06021319 L3.12635123,2.19534499 L3.56383645,2.19534499 C3.95112805,2.44047232 4.18061248,2.87071171 4.16801525,3.32813335 L4.16801525,11.5483752 L4.1679176,11.5483752 Z" id="Shape"></path>
                <path d="M49.697295,24.3732271 L46.4601469,21.1360418 C46.0541982,20.7324305 45.3984349,20.7324305 44.9924862,21.1360418 L28.8274335,37.30128 C28.7397056,37.3919365 28.6691525,37.4977185 28.6192872,37.6135519 L25.9233389,43.5362747 C25.6898208,44.0615744 25.926364,44.6767499 26.4516577,44.9102706 C26.7208915,45.0299098 27.028183,45.0299098 27.2973191,44.9102706 L33.219974,42.2142915 C33.335806,42.1644256 33.4415869,42.0938717 33.5322422,42.0061428 L49.697295,25.8409046 C50.1009017,25.4349512 50.1009017,24.779278 49.697295,24.3732271 Z M28.9626846,41.8708901 L29.8890478,39.7891105 L31.002772,40.9028475 L28.9626846,41.8708901 Z M32.79324,39.7891105 L31.0340964,38.0403884 L41.9530429,27.110875 L43.7537572,28.8803827 L32.79324,39.7891105 Z M45.1902886,27.4022636 L43.4311451,25.6430999 L45.7314885,23.3427301 L47.490632,25.1018938 L45.1902886,27.4022636 Z" id="Shape"></path>
                <polygon id="Rectangle-path" points="13.3333333 7.5 31.6666667 7.5 31.6666667 9.16666667 13.3333333 9.16666667"></polygon>
                <polygon id="Rectangle-path" points="13.3333333 15 31.6666667 15 31.6666667 16.6666667 13.3333333 16.6666667"></polygon>
                <polygon id="Rectangle-path" points="13.3333333 21.6666667 31.6666667 21.6666667 31.6666667 23.3333333 13.3333333 23.3333333"></polygon>
                <polygon id="Rectangle-path" points="13.3333333 29.1666667 21.6666667 29.1666667 21.6666667 30.8333333 13.3333333 30.8333333"></polygon>
                <polygon id="Rectangle-path" points="25 29.1666667 26.6666667 29.1666667 26.6666667 30.8333333 25 30.8333333"></polygon>
                <polygon id="Rectangle-path" points="30 29.1666667 31.6666667 29.1666667 31.6666667 30.8333333 30 30.8333333"></polygon>
            </g>
        </g>
    </g>
</svg>