<?xml version="1.0" encoding="UTF-8"?>
<svg width="50px" height="50px" viewBox="0 0 50 50" version="1.1" xmlns="http://www.w3.org/2000/svg" xmlns:xlink="http://www.w3.org/1999/xlink">
    <!-- Generator: Sketch 53.2 (72643) - https://sketchapp.com -->
    <title>4</title>
    <desc>Created with Sketch.</desc>
    <g id="20/02" stroke="none" stroke-width="1" fill="none" fill-rule="evenodd">
        <g id="08_Chi-nhanh" transform="translate(-1789.000000, -232.000000)">
            <g id="Group-6" transform="translate(1275.000000, 225.000000)">
                <g id="4" transform="translate(514.000000, 7.000000)">
                    <path d="M3.8458278,-1.55376046e-16 L46.1541722,1.55376046e-16 C47.4914503,-9.02779573e-17 47.9763797,0.139238417 48.4652686,0.400699056 C48.9541574,0.662159695 49.3378403,1.04584256 49.5993009,1.53473144 C49.8607616,2.02362033 50,2.50854969 50,3.8458278 L50,46.1541722 C50,47.4914503 49.8607616,47.9763797 49.5993009,48.4652686 C49.3378403,48.9541574 48.9541574,49.3378403 48.4652686,49.5993009 C47.9763797,49.8607616 47.4914503,50 46.1541722,50 L3.8458278,50 C2.50854969,50 2.02362033,49.8607616 1.53473144,49.5993009 C1.04584256,49.3378403 0.662159695,48.9541574 0.400699056,48.4652686 C0.139238417,47.9763797 6.01853049e-17,47.4914503 -1.03584031e-16,46.1541722 L1.03584031e-16,3.8458278 C-6.01853049e-17,2.50854969 0.139238417,2.02362033 0.400699056,1.53473144 C0.662159695,1.04584256 1.04584256,0.662159695 1.53473144,0.400699056 C2.02362033,0.139238417 2.50854969,9.02779573e-17 3.8458278,-1.55376046e-16 Z" id="Rectangle-3-Copy" fill="#0095DA"></path>
                    <path d="M24.6140351,20.754386 C22.4815789,20.754386 20.754386,22.4815789 20.754386,24.6140351 C20.754386,26.7464912 22.4815789,28.4736842 24.6140351,28.4736842 C26.7464912,28.4736842 28.4736842,26.7464912 28.4736842,24.6140351 C28.4736842,22.4815789 26.7464912,20.754386 24.6140351,20.754386 Z M33.2403509,23.6491228 C32.7964912,19.6254386 29.6026316,16.4315789 25.5789474,15.9877193 L25.5789474,14 L23.6491228,14 L23.6491228,15.9877193 C19.6254386,16.4315789 16.4315789,19.6254386 15.9877193,23.6491228 L14,23.6491228 L14,25.5789474 L15.9877193,25.5789474 C16.4315789,29.6026316 19.6254386,32.7964912 23.6491228,33.2403509 L23.6491228,35.2280702 L25.5789474,35.2280702 L25.5789474,33.2403509 C29.6026316,32.7964912 32.7964912,29.6026316 33.2403509,25.5789474 L35.2280702,25.5789474 L35.2280702,23.6491228 L33.2403509,23.6491228 Z M24.6140351,31.3684211 C20.8798246,31.3684211 17.8596491,28.3482456 17.8596491,24.6140351 C17.8596491,20.8798246 20.8798246,17.8596491 24.6140351,17.8596491 C28.3482456,17.8596491 31.3684211,20.8798246 31.3684211,24.6140351 C31.3684211,28.3482456 28.3482456,31.3684211 24.6140351,31.3684211 Z" id="Shape" fill="#FFFFFF" fill-rule="nonzero"></path>
                </g>
            </g>
        </g>
    </g>
</svg>