<?xml version="1.0" encoding="UTF-8"?>
<svg width="36px" height="47px" viewBox="0 0 36 47" version="1.1" xmlns="http://www.w3.org/2000/svg" xmlns:xlink="http://www.w3.org/1999/xlink">
    <!-- Generator: Sketch 53.2 (72643) - https://sketchapp.com -->
    <title>Group 9</title>
    <desc>Created with Sketch.</desc>
    <g id="20/02" stroke="none" stroke-width="1" fill="none" fill-rule="evenodd">
        <g id="00_Menu-01" transform="translate(-553.000000, -409.000000)" fill="#fff" fill-rule="nonzero">
            <g id="Group-9" transform="translate(553.000000, 409.000000)">
                <path d="M28.4529857,39.7754706 L28.6898278,39.56488 C28.7277226,39.5361631 28.7561436,39.5074462 28.7845647,39.469157 C28.9077226,39.3255725 31.6740383,36.0997069 32.7256173,33.6204808 L33.2277226,33.6204808 C34.6582489,33.6204808 35.823512,32.4430877 35.823512,30.9976702 L35.823512,26.8528637 C35.823512,25.4074462 34.6582489,24.2300531 33.2277226,24.2300531 L32.6687752,24.2300531 C31.8066699,21.9614177 30.3382489,19.9129452 28.3866699,18.2473647 C28.1024594,17.2231285 28.3108805,16.1318861 29.0214068,14.9927822 C29.4193015,14.351438 29.4193015,13.5473647 29.0119331,12.9060205 C28.6045647,12.2646763 27.8940383,11.9200735 27.1456173,12.0157965 C24.4077226,12.3603993 22.7687752,13.6143708 21.8119331,14.7821916 C20.9119331,14.5333118 19.983512,14.3418657 19.0456173,14.2365704 C18.5340383,14.1791366 18.0603541,14.5428841 18.003512,15.0693606 C17.9466699,15.5862649 18.3066699,16.06488 18.8277226,16.1223138 C19.8698278,16.2467537 20.9024594,16.476489 21.8877226,16.7923749 C22.2856173,16.9168148 22.7119331,16.763658 22.9487752,16.4190551 C23.5929857,15.4522527 24.8908805,14.2269981 27.3729857,13.9111122 C27.3919331,13.9111122 27.4108805,13.9111122 27.4298278,13.9398291 C27.4487752,13.968546 27.4393015,13.9876906 27.4298278,13.9972629 C26.4445647,15.5862649 26.1508805,17.2422731 26.5866699,18.7929859 C26.5961436,19.0705826 26.7193015,19.3290348 26.9371962,19.5013362 C28.9361436,21.1286274 30.3856173,23.1962446 31.1245647,25.4840246 C31.2477226,25.876489 31.6171962,26.1349411 32.015091,26.1349411 L32.015091,26.1349411 L33.2277226,26.1349411 C33.6256173,26.1349411 33.9477226,26.4603993 33.9477226,26.862436 L33.9477226,31.0072425 C33.9477226,31.4092792 33.6256173,31.7347374 33.2277226,31.7347374 L32.0814068,31.7347374 C31.6740383,31.7347374 31.3045647,32.0027619 31.1814068,32.4047985 C30.6508805,34.1565297 28.3203541,37.1239431 27.4108805,38.1864686 L27.2024594,38.3683423 C25.2508805,40.1487904 25.0519331,42.2546967 25.0424594,42.8864686 L25.0424594,44.2170185 L19.6329857,44.2170185 L19.6329857,42.9343301 C19.6329857,42.6663057 19.5193015,42.4078535 19.3203541,42.2259798 C19.1214068,42.0441061 18.8561436,41.9579553 18.5908805,41.9866723 C17.2077226,42.1302568 15.815091,42.1111122 14.4698278,41.9292384 C14.2045647,41.8909492 13.9298278,41.9771 13.7308805,42.1589737 C13.5224594,42.3408474 13.4087752,42.5992995 13.4087752,42.8768963 L13.4087752,44.2074462 L7.9993015,44.2074462 L7.9993015,43.8341264 C7.9993015,43.8245541 7.9993015,43.8054095 7.9993015,43.7958372 C7.95193308,42.7907456 7.6393015,40.2445134 5.66877519,38.1960409 C4.74035414,37.2292384 3.90666993,35.9465501 3.18666993,34.3958372 C3.17719624,34.3862649 3.17719624,34.3766926 3.16772256,34.357548 C2.74140677,33.5343301 2.4193015,32.6632507 2.20140677,31.7443097 L2.19193308,31.7060205 C2.19193308,31.6964482 2.1824594,31.6868759 2.1824594,31.6773036 C1.84140677,30.5286274 1.8793015,29.0832099 1.8793015,29.0736376 C1.8793015,29.0640653 1.8793015,29.054493 1.8793015,29.0449207 C1.8793015,28.4131488 1.93614361,27.7718046 2.03088045,27.149605 C2.11614361,26.6327008 1.77509098,26.1445134 1.26351203,26.0583627 C0.751933083,25.972212 0.268775188,26.3168148 0.183512031,26.8337191 C0.0603541358,27.5516417 0.00351203054,28.2887089 0.00351203054,29.0257761 C-0.00596165367,29.2172222 -0.0249090221,30.8253688 0.382459399,32.2133525 L0.382459399,32.2133525 C0.628775188,33.2375887 1.00772256,34.2426804 1.49088045,35.1999105 C2.28666993,36.9420694 3.24351203,38.3874869 4.31403835,39.5074462 C5.82035414,41.0773036 6.07614361,43.0491977 6.11403835,43.853271 L6.11403835,44.2457354 C6.11403835,44.2840246 6.11403835,44.3127415 6.12351203,44.3701753 C6.18982782,45.3369778 6.99509098,46.1027619 7.95193308,46.1027619 L13.4371962,46.1027619 C14.4508805,46.1027619 15.275091,45.2699716 15.275091,44.2457354 L15.275091,43.9298494 C16.0993015,43.9968556 16.9140383,44.0064279 17.7477226,43.9681386 L17.7477226,44.2457354 C17.7477226,45.2699716 18.5719331,46.1027619 19.5856173,46.1027619 L25.0708805,46.1027619 C26.0845647,46.1027619 26.9087752,45.2699716 26.9087752,44.2457354 L26.9087752,42.8960409 C26.9277226,42.5992995 27.0319331,41.0677313 28.4529857,39.7754706 Z" id="Shape"></path>
                <path d="M0,17.8014257 C0,22.099389 3.45789474,25.6028513 7.72105263,25.6028513 C11.9747368,25.6028513 15.4421053,22.1089613 15.4421053,17.8014257 C15.4421053,13.5034623 11.9842105,10 7.72105263,10 C3.46736842,10 0,13.49389 0,17.8014257 Z M13.5663158,17.8014257 C13.5663158,21.0560081 10.9421053,23.7075356 7.72105263,23.7075356 C4.5,23.7075356 1.87578947,21.0560081 1.87578947,17.8014257 C1.87578947,14.5468432 4.5,11.8953157 7.72105263,11.8953157 C10.9421053,11.8953157 13.5663158,14.5468432 13.5663158,17.8014257 Z" id="Shape"></path>
                <path d="M21.7621053,5.43706721 C21.7621053,2.44093686 19.3463158,0 16.3810526,0 C13.4157895,0 11,2.44093686 11,5.43706721 C11,8.43319756 13.4157895,10.8741344 16.3810526,10.8741344 C19.3463158,10.8741344 21.7621053,8.43319756 21.7621053,5.43706721 Z M12.8663158,5.43706721 C12.8663158,3.48431772 14.4389474,1.89531568 16.3715789,1.89531568 C18.3042105,1.89531568 19.8768421,3.48431772 19.8768421,5.43706721 C19.8768421,7.3898167 18.3042105,8.97881874 16.3715789,8.97881874 C14.4389474,8.97881874 12.8663158,7.3898167 12.8663158,5.43706721 Z" id="Shape"></path>
            </g>
        </g>
    </g>
</svg>