<?xml version="1.0" encoding="UTF-8"?>
<svg width="61px" height="61px" viewBox="0 0 61 61" version="1.1" xmlns="http://www.w3.org/2000/svg" xmlns:xlink="http://www.w3.org/1999/xlink">
    <!-- Generator: Sketch 53.2 (72643) - https://sketchapp.com -->
    <title>5</title>
    <desc>Created with Sketch.</desc>
    <g id="20/02" stroke="none" stroke-width="1" fill="none" fill-rule="evenodd">
        <g id="00_Menu-03" transform="translate(-535.000000, -402.000000)">
            <g id="5" transform="translate(535.000000, 402.000000)">
                <path d="M61,30.5 C61,47.3449021 47.3449021,61 30.5,61 C13.6550979,61 0,47.3449021 0,30.5 C0,13.6550979 13.6550979,0 30.5,0 C47.3449021,0 61,13.6550979 61,30.5 Z" id="Path" fill="#F8B64C"></path>
                <path d="M56,30.5 C56,44.5834427 44.5834427,56 30.5,56 C16.4165573,56 5,44.5834427 5,30.5 C5,16.4165573 16.4165573,5 30.5,5 C44.5834427,5 56,16.4165573 56,30.5 Z" id="Path-Copy" fill="#FFD460"></path>
                <path d="M38.4878158,14.4200897 L27.9665756,13.4916992 L19.2678756,22.3082962 L29.1303711,32.0836335 L27.9665756,41.4788208 L31.6521225,45.1340179 L28.7595597,49.2304534 L35.112381,55.5828857 C46.5491715,53.4934235 55.3218002,43.7748947 55.9618683,31.8941422 L38.4878158,14.4200897 Z" id="Path" fill="#F8B64C"></path>
                <path d="M27.9665756,47.3904037 C27.9665756,48.7896042 29.1007996,49.9238281 30.5,49.9238281 L31.344345,47.3904037 L30.5,44.8565902 C29.1007996,44.8565902 27.9665756,45.9912033 27.9665756,47.3904037 L27.9665756,47.3904037 Z" id="Path" fill="#40596B"></path>
                <path d="M30.5,44.8565902 L30.5,49.9238281 C31.8992004,49.9238281 33.0334244,48.7896042 33.0334244,47.3904037 C33.0334244,45.9912033 31.8992004,44.8565902 30.5,44.8565902 L30.5,44.8565902 Z" id="Path" fill="#334A5E"></path>
                <path d="M28.7790146,32.4093094 L27.9665756,33.161438 L27.9665756,41.4788208 L30.5,41.4788208 L32.1890793,36.1438827 L30.5,30.8089447 C29.5299759,31.7139893 28.7973022,32.3921891 28.7790146,32.4093094 L28.7790146,32.4093094 Z" id="Path" fill="#40596B"></path>
                <path d="M19.2678756,22.3082962 L24.3351135,22.3082962 C24.3351135,18.9087371 27.100441,16.1434098 30.5,16.1434098 L32.1890793,13.6095963 L30.5,11.0761719 C24.3067093,11.0761719 19.2678756,16.1150055 19.2678756,22.3082962 Z" id="Path" fill="#40596B"></path>
                <path d="M30.5,11.0761719 L30.5,16.1434098 C33.899559,16.1434098 36.6648865,18.9087371 36.6648865,22.3082962 C36.6648865,23.9549637 36.0236511,25.5031891 34.8594666,26.6673737 C33.9462509,27.5805893 31.9556198,29.4505997 30.5,30.8089447 L30.5,41.4788208 L33.0334244,41.4788208 L33.0334244,35.3738556 C34.4318466,34.0738754 37.2450333,31.4478455 38.4422913,30.2505875 C40.5636597,28.1288299 41.7321244,25.3082504 41.7321244,22.3082962 C41.7321244,16.1150055 36.6932907,11.0761719 30.5,11.0761719 L30.5,11.0761719 Z" id="Path" fill="#334A5E"></path>
            </g>
        </g>
    </g>
</svg>