<?xml version="1.0" encoding="UTF-8"?>
<svg width="14px" height="45px" viewBox="0 0 14 45" version="1.1" xmlns="http://www.w3.org/2000/svg" xmlns:xlink="http://www.w3.org/1999/xlink">
    <!-- Generator: Sketch 53.2 (72643) - https://sketchapp.com -->
    <title>Group 8</title>
    <desc>Created with Sketch.</desc>
    <g id="20/02" stroke="none" stroke-width="1" fill="none" fill-rule="evenodd">
        <g id="00_Menu-01" transform="translate(-109.000000, -410.000000)" fill="#fff" fill-rule="nonzero">
            <g id="Group-8" transform="translate(109.000000, 410.000000)">
                <path d="M0,35.8061224 C0,36.0081633 0.0653333333,36.2010204 0.186666667,36.3571429 L6.19733333,44.1081633 C6.37466667,44.3377551 6.64533333,44.4663265 6.93466667,44.4663265 C7.224,44.4663265 7.49466667,44.3377551 7.672,44.1081633 L13.6826667,36.3571429 C13.804,36.2010204 13.8693333,36.0081633 13.8693333,35.8061224 L13.8693333,10.9091837 C13.8693333,10.4040816 13.4586667,10 12.9453333,10 C12.432,10 12.0213333,10.4040816 12.0213333,10.9091837 L12.0213333,35.5030612 L6.93466667,42.0602041 L1.848,35.5030612 L1.848,10.955102 C1.848,10.45 1.43733333,10.0459184 0.924,10.0459184 C0.410666667,10.0459184 0,10.45 0,10.955102 L0,35.8061224 L0,35.8061224 Z" id="Shape"></path>
                <path d="M6,10.9091837 L6,33.7765306 C6,34.2816327 6.41066667,34.6857143 6.924,34.6857143 C7.43733333,34.6857143 7.848,34.2816327 7.848,33.7765306 L7.848,10.9091837 C7.848,10.4040816 7.43733333,10 6.924,10 C6.41066667,10 6,10.4040816 6,10.9091837 Z" id="Shape"></path>
                <path d="M0,3.57244898 L0,7.64081633 C0,8.14591837 0.410666667,8.55 0.924,8.55 L12.936,8.55 C13.4493333,8.55 13.86,8.14591837 13.86,7.64081633 L13.86,3.57244898 C13.86,1.60714286 12.236,0 10.2293333,0 L3.63066667,0 C1.63333333,0 0,1.59795918 0,3.57244898 Z M12.0213333,3.57244898 L12.0213333,6.73163265 L1.848,6.73163265 L1.848,3.57244898 C1.848,2.60816327 2.65066667,1.81836735 3.63066667,1.81836735 L10.2293333,1.81836735 C11.2186667,1.81836735 12.0213333,2.59897959 12.0213333,3.57244898 Z" id="Shape"></path>
            </g>
        </g>
    </g>
</svg>