<?xml version="1.0" encoding="UTF-8"?>
<svg width="20px" height="20px" viewBox="0 0 20 20" version="1.1" xmlns="http://www.w3.org/2000/svg" xmlns:xlink="http://www.w3.org/1999/xlink">
    <!-- Generator: Sketch 50.2 (55047) - http://www.bohemiancoding.com/sketch -->
    <title>Combined Shape</title>
    <desc>Created with Sketch.</desc>
    <defs></defs>
    <g id="Symbols" stroke="none" stroke-width="1" fill="none" fill-rule="evenodd">
        <g id="Footer" transform="translate(-981.000000, -55.000000)" fill="#9FC5E8" fill-rule="nonzero">
            <g id="Combined-Shape">
                <path d="M997.031899,69.6176858 L1000.70711,73.2928932 C1001.09763,73.6834175 1001.09763,74.3165825 1000.70711,74.7071068 C1000.31658,75.0976311 999.683418,75.0976311 999.292893,74.7071068 L995.617686,71.0318994 C994.078015,72.2635271 992.125014,73 990,73 C985.029437,73 981,68.9705627 981,64 C981,59.0294373 985.029437,55 990,55 C994.970563,55 999,59.0294373 999,64 C999,66.1250137 998.263527,68.078015 997.031899,69.6176858 Z M995.041386,68.8563911 C996.254176,67.5976949 997,65.8859457 997,64 C997,60.1340068 993.865993,57 990,57 C986.134007,57 983,60.1340068 983,64 C983,67.8659932 986.134007,71 990,71 C991.885946,71 993.597695,70.2541765 994.856391,69.0413859 C994.882708,69.0071587 994.911542,68.9742441 994.942893,68.9428932 C994.974244,68.9115424 995.007159,68.8827083 995.041386,68.8563911 Z"></path>
            </g>
        </g>
    </g>
</svg>