<?xml version="1.0" encoding="UTF-8"?>
<svg width="56px" height="61px" viewBox="0 0 56 61" version="1.1" xmlns="http://www.w3.org/2000/svg" xmlns:xlink="http://www.w3.org/1999/xlink">
    <!-- Generator: Sketch 53.2 (72643) - https://sketchapp.com -->
    <title>2</title>
    <desc>Created with Sketch.</desc>
    <g id="20/02" stroke="none" stroke-width="1" fill="none" fill-rule="evenodd">
        <g id="00_Menu-03" transform="translate(-538.000000, -225.000000)" fill-rule="nonzero">
            <g id="2" transform="translate(538.000000, 225.000000)">
                <circle id="Oval" fill="#FFD15C" cx="28" cy="24" r="24"></circle>
                <g id="Group" transform="translate(0.000000, 38.000000)" fill="#40596B">
                    <path d="M8.39401709,0.0851851852 L0.0897435897,14.7248677 L9.78205128,14.2015873 L14.1854701,23 L21.8675214,9.45555556 C16.3632479,8.00740741 11.6367521,4.63650794 8.39401709,0.0851851852 Z" id="Shape"></path>
                    <path d="M47.5461538,0.0121693122 C44.3273504,4.57566138 39.6008547,7.95873016 34.108547,9.43121693 L41.8145299,23 L46.2179487,14.2015873 L55.9102564,14.7248677 L47.5461538,0.0121693122 Z" id="Shape"></path>
                </g>
                <circle id="Oval" fill="#F8B64C" cx="27.5" cy="24.5" r="17.5"></circle>
                <path d="M40.7202287,22.0677752 C41.2690414,21.5287036 40.9641455,20.5853283 40.2080036,20.4750636 L33.1710056,19.4459269 C32.8661097,19.3969204 32.6099971,19.2131459 32.4758429,18.9313585 L29.3293169,12.5237571 C28.9878335,11.8254143 27.9999707,11.8254143 27.6584872,12.5237571 L24.5241571,18.9313585 C24.3900029,19.2008943 24.1216945,19.3969204 23.8289944,19.4459269 L16.7919964,20.4750636 C16.0358545,20.5853283 15.7309586,21.5287036 16.2797713,22.0677752 L21.3654353,27.0541878 C21.5849604,27.2747171 21.6825271,27.5810078 21.6337437,27.8750469 L20.4385517,34.9074813 C20.3043975,35.6670822 21.1093227,36.2551604 21.7922896,35.8876115 L28.0853415,32.5674204 C28.35365,32.4204008 28.6829376,32.4204008 28.951246,32.5674204 L35.2442979,35.8876115 C35.9272648,36.2429087 36.7199942,35.6670822 36.5980358,34.9074813 L35.3906479,27.8750469 C35.3418646,27.5687562 35.4394313,27.2624655 35.6589564,27.0541878 L40.7202287,22.0677752 Z" id="Shape" fill="#FFFFFF"></path>
            </g>
        </g>
    </g>
</svg>