<?xml version="1.0" encoding="UTF-8"?>
<svg width="14px" height="14px" viewBox="0 0 14 14" version="1.1" xmlns="http://www.w3.org/2000/svg" xmlns:xlink="http://www.w3.org/1999/xlink">
    <!-- Generator: Sketch 53.2 (72643) - https://sketchapp.com -->
    <title>1</title>
    <desc>Created with Sketch.</desc>
    <g id="20/02" stroke="none" stroke-width="1" fill="none" fill-rule="evenodd">
        <g id="05_02_Chi-tiet-DV" transform="translate(-395.000000, -3058.000000)" fill="#FFFFFF" fill-rule="nonzero">
            <g id="Group-6" transform="translate(375.000000, 3048.000000)">
                <g id="1" transform="translate(20.000000, 10.000000)">
                    <path d="M0,14 L14,14 L14,12.25 L8.09375,12.25 L12.95,5.775 C13.1495,5.509875 13.181,5.1555 13.033125,4.858875 C12.884375,4.56225 12.581625,4.375 12.25,4.375 L10.5,4.375 L10.5,0.875 C10.5,0.391125 10.108875,0 9.625,0 L4.375,0 C3.891125,0 3.5,0.391125 3.5,0.875 L3.5,4.375 L1.75,4.375 C1.418375,4.375 1.115625,4.56225 0.966875,4.858875 C0.819875,5.1555 0.851375,5.509875 1.05,5.775 L5.90625,12.25 L0,12.25 L0,14 Z" id="Shape"></path>
                </g>
            </g>
        </g>
    </g>
</svg>