<?xml version="1.0" encoding="UTF-8"?>
<svg width="54px" height="59px" viewBox="0 0 54 59" version="1.1" xmlns="http://www.w3.org/2000/svg" xmlns:xlink="http://www.w3.org/1999/xlink">
    <!-- Generator: Sketch 53.2 (72643) - https://sketchapp.com -->
    <title>1</title>
    <desc>Created with Sketch.</desc>
    <g id="20/02" stroke="none" stroke-width="1" fill="none" fill-rule="evenodd">
        <g id="00_Menu-03" transform="translate(-96.000000, -225.000000)" fill-rule="nonzero">
            <g id="1" transform="translate(96.000000, 225.000000)">
                <path d="M27,0 C27,0 17.9647681,9.81397638 0.245869759,8.68740157 C0.245869759,8.68740157 -4.42995064,49.0350394 27,59 C58.4299506,49.0350394 53.7541302,8.68740157 53.7541302,8.68740157 C36.0352319,9.81397638 27,0 27,0 Z" id="Shape" fill="#F8B64C"></path>
                <path d="M26.9799793,53 C6.95402118,45.6292575 4.93155138,22.826023 5.00169484,13.1864739 C15.5699763,12.7603529 22.9350397,8.86767949 26.9799793,6 C31.0249189,8.86767949 38.4016729,12.7718696 48.9933356,13.1864739 C49.1336225,22.8490566 47.2280584,45.5831904 26.9799793,53 Z" id="Shape" fill="#FFD15C"></path>
                <path d="M36.6470588,25 L18.3529412,25 C17.0470588,25 16,26.0617627 16,27.3594726 L16,39.6405274 C16,40.9500347 17.0588235,42 18.3529412,42 L36.6470588,42 C37.9529412,42 39,40.9382373 39,39.6405274 L39,27.3594726 C39,26.0617627 37.9529412,25 36.6470588,25 Z" id="Shape" fill="#40596B"></path>
                <path d="M21.4646739,25 L21.4646739,21.1595331 C21.4646739,18.6731518 23.8206522,16.4902724 26.5115489,16.4902724 C29.2024457,16.4902724 31.5584239,18.6731518 31.5584239,21.1595331 L31.5584239,25 L35,25 L35,21.1595331 C35,16.7354086 31.1080163,13 26.5,13 C21.8919837,13 18,16.7354086 18,21.1595331 L18,25 L21.4646739,25 Z" id="Shape" fill="#F2F2F2"></path>
                <path d="M30,32.2133956 C30,30.9922118 28.8793103,30 27.5,30 C26.1206897,30 25,30.9922118 25,32.2133956 C25,32.9330218 25.3940887,33.5654206 25.9975369,33.9688474 L25.6650246,37 L29.3472906,37 L29.0147783,33.9688474 C29.6059113,33.5654206 30,32.9330218 30,32.2133956 Z" id="Shape" fill="#334A5E"></path>
            </g>
        </g>
    </g>
</svg>