<?xml version="1.0" encoding="UTF-8"?>
<svg width="61px" height="61px" viewBox="0 0 61 61" version="1.1" xmlns="http://www.w3.org/2000/svg" xmlns:xlink="http://www.w3.org/1999/xlink">
    <!-- Generator: Sketch 53.2 (72643) - https://sketchapp.com -->
    <title>4</title>
    <desc>Created with Sketch.</desc>
    <g id="20/02" stroke="none" stroke-width="1" fill="none" fill-rule="evenodd">
        <g id="00_Menu-03" transform="translate(-93.000000, -402.000000)">
            <g id="4" transform="translate(93.000000, 402.000000)">
                <path d="M61,30.5 C61,47.3449021 47.3449021,61 30.5,61 C13.6550979,61 0,47.3449021 0,30.5 C0,13.6550979 13.6550979,0 30.5,0 C47.3449021,0 61,13.6550979 61,30.5 Z" id="Path" fill="#F8B64C"></path>
                <path d="M56,30.5 C56,44.5834427 44.5834427,56 30.5,56 C16.4165573,56 5,44.5834427 5,30.5 C5,16.4165573 16.4165573,5 30.5,5 C44.5834427,5 56,16.4165573 56,30.5 Z" id="Path-Copy" fill="#FFD460"></path>
                <g id="rate" transform="translate(18.000000, 14.000000)">
                    <path d="M31.464951,11.3274765 C30.845986,10.6963087 29.8423497,10.6963087 29.2233846,11.3274765 L25.0781538,15.5544295 L25.0781538,8.3961745 C25.0781538,7.38530201 24.2745734,6.56587919 23.2832448,6.56587919 L17.3941259,6.56587919 C17.3941259,3.85158389 15.2362517,1.65139597 12.5746573,1.65139597 C9.91283916,1.65139597 7.75518881,3.85181208 7.75518881,6.56587919 L1.86584615,6.56587919 C0.874517483,6.56587919 0.0709370629,7.38530201 0.0709370629,8.3961745 L0.0709370629,32.115396 C0.0709370629,33.1262685 0.874517483,33.9456913 1.86584615,33.9456913 L23.283021,33.9456913 C24.2743497,33.9456913 25.0779301,33.1262685 25.0779301,32.115396 L25.0779301,20.1261745 L30.0542657,15.0517315 L30.946014,14.1424027 L31.4647273,13.6134631 C32.0839161,12.9820671 32.0839161,11.9586443 31.464951,11.3274765 Z" id="Path" fill="#F8B64C"></path>
                    <g id="Group">
                        <g>
                            <path d="M23.283021,32.348604 L1.86584615,32.348604 C0.874517483,32.348604 0.0709370629,31.5291812 0.0709370629,30.5183087 L0.0709370629,7.71161074 C0.0709370629,6.70073826 0.874517483,5.88131544 1.86584615,5.88131544 L23.283021,5.88131544 C24.2743497,5.88131544 25.0779301,6.70073826 25.0779301,7.71161074 L25.0779301,30.5183087 C25.0779301,31.5291812 24.2743497,32.348604 23.283021,32.348604 Z" id="Path" fill="#D1D3D4"></path>
                            <path d="M23.283021,31.4358523 L1.86584615,31.4358523 C0.874517483,31.4358523 0.0709370629,30.6164295 0.0709370629,29.605557 L0.0709370629,6.79885906 C0.0709370629,5.78798658 0.874517483,4.96856376 1.86584615,4.96856376 L23.283021,4.96856376 C24.2743497,4.96856376 25.0779301,5.78798658 25.0779301,6.79885906 L25.0779301,29.605557 C25.0779301,30.6164295 24.2743497,31.4358523 23.283021,31.4358523 Z" id="Path" fill="#FFFFFF"></path>
                            <g transform="translate(2.349650, 10.953020)" id="Path">
                                <path d="M1.92559441,0.306456376 L2.22567832,1.24818792 C2.24290909,1.30204027 2.29213986,1.33855034 2.34763636,1.33855034 L3.3186014,1.33855034 C3.4427972,1.33855034 3.49448951,1.50079195 3.39401399,1.57518121 L2.60855944,2.1570604 C2.56358042,2.19037584 2.54478322,2.24947651 2.56201399,2.30332886 L2.8620979,3.2450604 C2.90058741,3.36554362 2.7652028,3.46571812 2.66472727,3.39132886 L1.87927273,2.80944966 C1.83429371,2.77613423 1.77342657,2.77613423 1.72844755,2.80944966 L0.942993007,3.39132886 C0.842517483,3.46594631 0.707132867,3.36554362 0.745622378,3.2450604 L1.04570629,2.30332886 C1.06293706,2.24947651 1.04413986,2.19037584 0.999160839,2.1570604 L0.213706294,1.57518121 C0.113230769,1.50079195 0.164923077,1.33855034 0.289118881,1.33855034 L1.26008392,1.33855034 C1.31558042,1.33855034 1.36481119,1.30204027 1.38204196,1.24818792 L1.68212587,0.306456376 C1.71994406,0.185973154 1.88732867,0.185973154 1.92559441,0.306456376 Z" fill="#F7CB15"></path>
                                <path d="M6.29102098,0.306456376 L6.5911049,1.24818792 C6.60833566,1.30204027 6.65756643,1.33855034 6.71306294,1.33855034 L7.68402797,1.33855034 C7.80822378,1.33855034 7.85991608,1.50079195 7.75944056,1.57518121 L6.97398601,2.1570604 C6.92900699,2.19037584 6.91020979,2.24947651 6.92744056,2.30332886 L7.22752448,3.2450604 C7.26601399,3.36554362 7.13062937,3.46571812 7.03015385,3.39132886 L6.2446993,2.80944966 C6.19972028,2.77613423 6.13885315,2.77613423 6.09387413,2.80944966 L5.30841958,3.39132886 C5.20794406,3.46594631 5.07255944,3.36554362 5.11104895,3.2450604 L5.41113287,2.30332886 C5.42836364,2.24947651 5.40956643,2.19037584 5.36458741,2.1570604 L4.57913287,1.57518121 C4.47865734,1.50079195 4.53034965,1.33855034 4.65454545,1.33855034 L5.62551049,1.33855034 C5.68100699,1.33855034 5.73023776,1.30204027 5.74746853,1.24818792 L6.04755245,0.306456376 C6.08537063,0.185973154 6.25275524,0.185973154 6.29102098,0.306456376 Z" fill="#F7CB15"></path>
                                <path d="M10.6564476,0.306456376 L10.9565315,1.24818792 C10.9737622,1.30204027 11.022993,1.33855034 11.0784895,1.33855034 L12.0494545,1.33855034 C12.1736503,1.33855034 12.2253427,1.50079195 12.1248671,1.57518121 L11.3394126,2.1570604 C11.2944336,2.19037584 11.2756364,2.24947651 11.2928671,2.30332886 L11.592951,3.2450604 C11.6314406,3.36554362 11.4960559,3.46571812 11.3955804,3.39132886 L10.6101259,2.80944966 C10.5651469,2.77613423 10.5042797,2.77613423 10.4593007,2.80944966 L9.67384615,3.39132886 C9.57337063,3.46594631 9.43798601,3.36554362 9.47647552,3.2450604 L9.77655944,2.30332886 C9.79379021,2.24947651 9.77499301,2.19037584 9.73001399,2.1570604 L8.94455944,1.57518121 C8.84408392,1.50079195 8.89577622,1.33855034 9.01997203,1.33855034 L9.99093706,1.33855034 C10.0464336,1.33855034 10.0956643,1.30204027 10.1128951,1.24818792 L10.412979,0.306456376 C10.4507972,0.185973154 10.6181818,0.185973154 10.6564476,0.306456376 Z" fill="#F7CB15"></path>
                                <path d="M15.0218741,0.306456376 L15.321958,1.24818792 C15.3391888,1.30204027 15.3884196,1.33855034 15.4439161,1.33855034 L16.4148811,1.33855034 C16.5390769,1.33855034 16.5907692,1.50079195 16.4902937,1.57518121 L15.7048392,2.1570604 C15.6598601,2.19037584 15.6410629,2.24947651 15.6582937,2.30332886 L15.9583776,3.2450604 C15.9968671,3.36554362 15.8614825,3.46571812 15.761007,3.39132886 L14.9755524,2.80944966 C14.9305734,2.77613423 14.8697063,2.77613423 14.8247273,2.80944966 L14.0392727,3.39132886 C13.9387972,3.46594631 13.8034126,3.36554362 13.8419021,3.2450604 L14.141986,2.30332886 C14.1592168,2.24947651 14.1404196,2.19037584 14.0954406,2.1570604 L13.309986,1.57518121 C13.2095105,1.50079195 13.2612028,1.33855034 13.3853986,1.33855034 L14.3563636,1.33855034 C14.4118601,1.33855034 14.4610909,1.30204027 14.4783217,1.24818792 L14.7784056,0.306456376 C14.8162238,0.185973154 14.9836084,0.185973154 15.0218741,0.306456376 Z" fill="#F7CB15"></path>
                                <path d="M19.3873007,0.306456376 L19.6873846,1.24818792 C19.7046154,1.30204027 19.7538462,1.33855034 19.8093427,1.33855034 L20.7803077,1.33855034 C20.9045035,1.33855034 20.9561958,1.50079195 20.8557203,1.57518121 L20.0702657,2.1570604 C20.0252867,2.19037584 20.0064895,2.24947651 20.0237203,2.30332886 L20.3238042,3.2450604 C20.3622937,3.36554362 20.2269091,3.46571812 20.1264336,3.39132886 L19.340979,2.80944966 C19.296,2.77613423 19.2351329,2.77613423 19.1901538,2.80944966 L18.4046993,3.39132886 C18.3042238,3.46594631 18.1688392,3.36554362 18.2073287,3.2450604 L18.5074126,2.30332886 C18.5246434,2.24947651 18.5058462,2.19037584 18.4608671,2.1570604 L17.6754126,1.57518121 C17.5749371,1.50079195 17.6266294,1.33855034 17.7508252,1.33855034 L18.7217902,1.33855034 C18.7772867,1.33855034 18.8265175,1.30204027 18.8437483,1.24818792 L19.1438322,0.306456376 C19.1818741,0.185973154 19.349035,0.185973154 19.3873007,0.306456376 Z" fill="#D1D3D4"></path>
                            </g>
                            <path d="M18.6096783,29.077302 L7.1586014,29.077302 C6.90215385,29.077302 6.69404196,28.8653154 6.69404196,28.6035839 L6.69404196,28.6035839 C6.69404196,28.3420805 6.90193007,28.1298658 7.1586014,28.1298658 L18.6096783,28.1298658 C18.8661259,28.1298658 19.0742378,28.3418523 19.0742378,28.6035839 L19.0742378,28.6035839 C19.0742378,28.8653154 18.8661259,29.077302 18.6096783,29.077302 Z" id="Path" fill="#E6E7E8"></path>
                            <g transform="translate(1.902098, 17.342282)" fill="#D1D3D4" id="Path">
                                <path d="M17.787972,1.01771812 L7.32128671,1.01771812 C7.07558042,1.01771812 6.87641958,0.814630872 6.87641958,0.564080537 L6.87641958,0.524147651 C6.87641958,0.273597315 7.07558042,0.0705100671 7.32128671,0.0705100671 L17.787972,0.0705100671 C18.0336783,0.0705100671 18.2328392,0.273597315 18.2328392,0.524147651 L18.2328392,0.564080537 C18.2330629,0.814630872 18.0336783,1.01771812 17.787972,1.01771812 Z"></path>
                                <path d="M5.15311888,1.01771812 L2.63899301,1.01771812 C2.39328671,1.01771812 2.19412587,0.814630872 2.19412587,0.564080537 L2.19412587,0.524147651 C2.19412587,0.273597315 2.39328671,0.0705100671 2.63899301,0.0705100671 L5.15311888,0.0705100671 C5.39882517,0.0705100671 5.59798601,0.273597315 5.59798601,0.524147651 L5.59798601,0.564080537 C5.59820979,0.814630872 5.39882517,1.01771812 5.15311888,1.01771812 Z"></path>
                                <g transform="translate(0.000000, 2.281879)">
                                    <path d="M10.9522797,0.986 L0.485594406,0.986 C0.239888112,0.986 0.0407272727,0.782912752 0.0407272727,0.532362416 L0.0407272727,0.49242953 C0.0407272727,0.241879195 0.239888112,0.0387919463 0.485594406,0.0387919463 L10.9522797,0.0387919463 C11.197986,0.0387919463 11.3971469,0.241879195 11.3971469,0.49242953 L11.3971469,0.532362416 C11.3973706,0.782912752 11.197986,0.986 10.9522797,0.986 Z"></path>
                                    <path d="M20.6406713,0.986 L13.1206713,0.986 C12.874965,0.986 12.6758042,0.782912752 12.6758042,0.532362416 L12.6758042,0.49242953 C12.6758042,0.241879195 12.874965,0.0387919463 13.1206713,0.0387919463 L20.6406713,0.0387919463 C20.8863776,0.0387919463 21.0855385,0.241879195 21.0855385,0.49242953 L21.0855385,0.532362416 C21.0855385,0.782912752 20.8863776,0.986 20.6406713,0.986 Z"></path>
                                </g>
                            </g>
                            <g transform="translate(1.902098, 21.906040)" fill="#D1D3D4" id="Path">
                                <path d="M19.0075524,1.07248322 L2.95653147,1.07248322 C2.70008392,1.07248322 2.49197203,0.860496644 2.49197203,0.598765101 L2.49197203,0.598765101 C2.49197203,0.337261745 2.69986014,0.12504698 2.95653147,0.12504698 L19.0077762,0.12504698 C19.2644476,0.12504698 19.4723357,0.337033557 19.4723357,0.598765101 L19.4723357,0.598765101 C19.4721119,0.860496644 19.2642238,1.07248322 19.0075524,1.07248322 Z"></path>
                                <g transform="translate(0.000000, 2.281879)">
                                    <path d="M10.9522797,1.0407651 L0.485594406,1.0407651 C0.239888112,1.0407651 0.0407272727,0.837677852 0.0407272727,0.587127517 L0.0407272727,0.547194631 C0.0407272727,0.296644295 0.239888112,0.093557047 0.485594406,0.093557047 L10.9522797,0.093557047 C11.197986,0.093557047 11.3971469,0.296644295 11.3971469,0.547194631 L11.3971469,0.587127517 C11.3973706,0.837449664 11.197986,1.0407651 10.9522797,1.0407651 Z"></path>
                                    <path d="M20.6406713,1.0407651 L13.1206713,1.0407651 C12.874965,1.0407651 12.6758042,0.837677852 12.6758042,0.587127517 L12.6758042,0.547194631 C12.6758042,0.296644295 12.874965,0.093557047 13.1206713,0.093557047 L20.6406713,0.093557047 C20.8863776,0.093557047 21.0855385,0.296644295 21.0855385,0.547194631 L21.0855385,0.587127517 C21.0855385,0.837449664 20.8863776,1.0407651 20.6406713,1.0407651 Z"></path>
                                </g>
                            </g>
                            <ellipse id="Oval" fill="#E6E7E8" cx="12.5744336" cy="5.88131544" rx="4.81946853" ry="4.91448322"></ellipse>
                            <ellipse id="Oval" fill="#196BB4" cx="12.5744336" cy="4.96856376" rx="4.81946853" ry="4.91448322"></ellipse>
                            <path d="M13.4212028,4.59844295 L13.3511608,4.59844295 C13.7870769,4.32963758 14.0793287,3.84314094 14.0793287,3.28590604 C14.0793287,2.43841611 13.4055385,1.75134228 12.5744336,1.75134228 C11.7433287,1.75134228 11.0695385,2.43841611 11.0695385,3.28590604 C11.0695385,3.84314094 11.3617902,4.32963758 11.7977063,4.59844295 L11.7276643,4.59844295 C10.7014266,4.59844295 9.86965035,5.44684564 9.86965035,6.49331544 L9.86965035,7.01130201 C9.86965035,7.53453691 10.2856503,7.95873826 10.7987692,7.95873826 L14.3505455,7.95873826 C14.8636643,7.95873826 15.2796643,7.53453691 15.2796643,7.01130201 L15.2796643,6.49331544 C15.2792168,5.44684564 14.4474406,4.59844295 13.4212028,4.59844295 Z" id="Path" fill="#FFFFFF"></path>
                        </g>
                        <path d="M25.0779301,15.0980537 L17.5138462,22.8112617 L16.9582098,24.8154362 L16.7391329,25.6054228 C16.7330909,25.6268725 16.7304056,25.648094 16.7304056,25.6688591 C16.7304056,25.6896242 16.7333147,25.7097047 16.7384615,25.7286443 C16.748979,25.7669799 16.7691189,25.8012081 16.7961958,25.8288188 C16.8096224,25.8425101 16.8248392,25.854604 16.8413986,25.8646443 C16.8908531,25.8945369 16.9521678,25.9052617 17.0152727,25.8872349 L19.7554126,25.0974765 L25.0779301,19.670255 L25.0779301,15.0980537 Z" id="Path" fill="#D1D3D4"></path>
                        <g transform="translate(16.559441, 9.241611)">
                            <polygon id="Rectangle" fill="#FEDE3A" transform="translate(12.820193, 2.614525) rotate(45.000000) translate(-12.820193, -2.614525) " points="11.2132488 1.96208868 14.4147061 1.99333863 14.4271381 3.26696137 11.2256808 3.23571143"></polygon>
                            <polygon id="Rectangle" fill="#FFF335" transform="translate(12.820596, 2.614411) rotate(45.000000) translate(-12.820596, -2.614411) " points="12.0988149 1.97061481 13.5299456 1.98458431 13.5423776 3.25820706 12.1112469 3.24423756"></polygon>
                            <path d="M14.9055105,0.488550336 L14.9055105,0.488550336 C14.2865455,-0.14261745 13.2829091,-0.14261745 12.6639441,0.488550336 L12.1452308,1.01748993 L14.3867972,3.30324832 L14.9055105,2.77430872 C15.5244755,2.14314094 15.5244755,1.11971812 14.9055105,0.488550336 Z" id="Path" fill="#1CAEE4"></path>
                            <path d="M14.9055105,0.488550336 L14.9055105,0.488550336 C14.6190769,0.196469799 14.1545175,0.196469799 13.8680839,0.488550336 L12.7471888,1.63154362 L13.7846154,2.68942282 L14.9055105,1.54642953 C15.1919441,1.25434899 15.1919441,0.780630872 14.9055105,0.488550336 Z" id="Path" fill="#27C1E6"></path>
                            <path d="M3.1961958,14.7144698 L0.954629371,12.4287114 L0.179916084,15.2228725 C0.132251748,15.394698 0.287776224,15.5530604 0.456055944,15.5044564 L3.1961958,14.7144698 Z" id="Path" fill="#E6E7E8"></path>
                            <g transform="translate(0.000000, 1.825503)">
                                <path d="M0.282181818,13.6563624 C0.331636364,13.686255 0.392951049,13.6969799 0.456055944,13.678953 C0.392951049,13.6972081 0.331636364,13.686255 0.282181818,13.6563624 Z" id="Path" fill="#EF5A9D"></path>
                                <path d="M0.20206993,13.5746711 C0.182601399,13.5411275 0.171412587,13.5021074 0.171188811,13.4608054 C0.171188811,13.5021074 0.182601399,13.5408993 0.20206993,13.5746711 Z" id="Path" fill="#EF5A9D"></path>
                                <polygon id="Rectangle" fill="#196BB4" transform="translate(7.224285, 6.495248) rotate(-45.000000) translate(-7.224285, -6.495248) " points="-0.114040752 4.96630286 14.5938613 4.82273663 14.5626114 8.02419393 -0.145290699 8.16776016"></polygon>
                            </g>
                            <polygon id="Rectangle" fill="#2A79C0" transform="translate(7.224285, 8.320636) rotate(-45.000000) translate(-7.224285, -8.320636) " points="-0.122548016 7.65165813 14.58558 7.50808969 14.5711186 8.98961394 -0.137009415 9.13318238"></polygon>
                            <path d="M2.59401399,14.1006443 L1.55658741,13.0427651 L0.253986014,15.2984027 C0.173874126,15.4371409 0.24593007,15.5103893 0.381762238,15.428698 L2.59401399,14.1006443 Z" id="Path" fill="#FFFFFF"></path>
                            <path d="M0.43613986,14.2984832 L0.179916084,15.2226443 C0.132251748,15.3944698 0.287776224,15.5528322 0.456055944,15.5042282 L1.36234965,15.242953 L0.43613986,14.2984832 Z" id="Path" fill="#FFD460"></path>
                        </g>
                    </g>
                </g>
            </g>
        </g>
    </g>
</svg>