<?xml version="1.0" encoding="UTF-8"?>
<svg width="52px" height="44px" viewBox="0 0 52 44" version="1.1" xmlns="http://www.w3.org/2000/svg" xmlns:xlink="http://www.w3.org/1999/xlink">
    <!-- Generator: Sketch 53.2 (72643) - https://sketchapp.com -->
    <title>13</title>
    <desc>Created with Sketch.</desc>
    <g id="20/02" stroke="none" stroke-width="1" fill="none" fill-rule="evenodd">
        <g id="00_Menu-01" transform="translate(-626.000000, -945.000000)" fill="#FFFFFF" fill-rule="nonzero">
            <g id="13" transform="translate(626.000000, 945.000000)">
                <path d="M51.9924844,9.86201918 C51.9901484,9.78900691 51.9667891,9.71898525 51.949625,9.64638548 C51.9324609,9.57471383 51.9221016,9.50221718 51.8918359,9.43673301 C51.88625,9.42466742 51.8875703,9.41136434 51.8814766,9.39940188 L47.4497969,0.599463752 C47.2646484,0.230999278 46.8922187,0 46.4849531,0 L22.8484141,0 C22.4411484,0 22.0687187,0.230999278 21.8835703,0.599463752 L17.4518906,9.39940188 C17.4457969,9.41136434 17.4471172,9.42466742 17.4415312,9.43673301 C17.4112656,9.50211406 17.4009062,9.5746107 17.3837422,9.64638548 C17.3665781,9.71898525 17.3433203,9.78900691 17.3408828,9.86201918 C17.340375,9.87542539 17.3333672,9.88645973 17.3333672,9.90007219 L17.3333672,23.1395277 C15.3669141,23.2567804 13.6430937,23.6508198 12.598625,23.9426627 C12.2724062,22.7908632 11.3465625,21.8622254 10.1191797,21.6133856 L1.2959375,19.8214912 C0.978554687,19.7613695 0.647460937,19.8408786 0.396703125,20.0491905 C0.146046875,20.2587398 0,20.5701763 0,20.8999691 L0,38.4999484 C0,39.1079715 0.484554687,39.5999794 1.08336719,39.5999794 L7.87109375,39.5999794 C9.20816406,39.5999794 10.3475937,38.7355883 10.8379375,37.5223265 C13.2627422,38.6961947 24.4820469,44 29.25,44 C33.4521484,44 42.1008047,39.6826854 47.8232422,36.826338 C49.3170234,36.0808497 50.5517187,35.4642673 51.3525391,35.107559 C51.7460937,34.9314221 52,34.5360421 52,34.0999278 L52,9.90007219 C52,9.88645973 51.9929922,9.87542539 51.9924844,9.86201918 Z M10.5540703,25.0045375 L8.94278125,36.455708 C8.867625,36.9939156 8.40642969,37.3999175 7.87109375,37.3999175 L2.16663281,37.3999175 L2.16663281,22.2416211 L9.6939375,23.7702382 C10.2578125,23.8852222 10.6355234,24.4266268 10.5540703,25.0045375 Z M45.8226641,2.20006187 L49.1458906,8.80004125 L40.9286719,8.80004125 L39.3036719,2.20006187 L45.8226641,2.20006187 Z M32.2619375,2.20006187 L37.0713281,2.20006187 L38.6959219,8.80004125 L30.6373437,8.80004125 L32.2619375,2.20006187 Z M30.3333672,11 L39,11 L39,15.4000206 L30.3333672,15.4000206 L30.3333672,11 L30.3333672,11 Z M23.5107031,2.20006187 L30.0297969,2.20006187 L28.4047969,8.80004125 L20.1874766,8.80004125 L23.5107031,2.20006187 Z M46.8668281,34.851913 C41.66175,37.4504486 32.9486016,41.7999381 29.25,41.7999381 C25.3091719,41.7999381 14.961375,37.1152934 11.3072578,35.3106115 C11.3028906,35.3084459 11.2981172,35.3091678 11.29375,35.3071053 L12.5690703,26.2426524 C13.3570937,25.9920594 15.7696094,25.2999897 18.4166328,25.2999897 C20.0162422,25.2999897 21.2508359,25.9048159 22.8134766,26.6695885 C24.2163594,27.3571208 25.8074375,28.1359183 27.9508125,28.5784263 C32.6586406,29.5473858 34.6666328,30.5409921 34.6666328,31.8998659 C34.6666328,32.1684026 34.5861953,32.3338146 34.3799219,32.489636 C33.694375,33.0106218 31.0039844,33.8915128 20.8911016,30.8450036 C20.3155469,30.6752604 19.7147031,31.0061875 19.5443828,31.587295 C19.3740625,32.169537 19.7020078,32.7817882 20.2754297,32.9547283 C25.2646875,34.4565329 29.0806953,35.2052181 31.7847969,35.2052181 C33.5484297,35.2052181 34.8390859,34.8872847 35.6759609,34.2523461 C35.7481719,34.19769 35.8010859,34.130659 35.8666953,34.0717748 C35.9342344,34.0642467 36.0009609,34.0725998 36.0685,34.0514592 C37.984375,33.4533361 43.4116719,31.8999691 45.5,31.8999691 C47.2667812,31.8999691 49.1255781,32.4457049 49.6736094,33.4682892 C48.9171719,33.8292255 47.9597422,34.3073115 46.8668281,34.851913 Z M49.8333672,30.735279 C48.7141484,30.0870372 47.2358047,29.7000103 45.5,29.7000103 C43.3852656,29.7000103 38.9995937,30.8965659 36.7773047,31.5448077 C36.4825703,28.387955 32.4990859,27.270496 28.3825547,26.4214706 C26.5036484,26.034753 25.1061484,25.3505208 23.7540469,24.6887697 C22.3911797,24.0206249 21.0739141,23.407755 19.5001016,23.1973806 L19.5001016,11 L28.1667344,11 L28.1667344,16.4999484 C28.1667344,17.1079715 28.6512891,17.5999794 29.2501016,17.5999794 L40.0834687,17.5999794 C40.6822812,17.5999794 41.1668359,17.1079715 41.1668359,16.4999484 L41.1668359,11 L49.8334687,11 L49.8334687,30.735279 L49.8333672,30.735279 Z" id="Shape"></path>
            </g>
        </g>
    </g>
</svg>