<?xml version="1.0" encoding="UTF-8"?>
<svg width="39px" height="45px" viewBox="0 0 39 45" version="1.1" xmlns="http://www.w3.org/2000/svg" xmlns:xlink="http://www.w3.org/1999/xlink">
    <!-- Generator: Sketch 53.2 (72643) - https://sketchapp.com -->
    <title>Group 11</title>
    <desc>Created with Sketch.</desc>
    <g id="20/02" stroke="none" stroke-width="1" fill="none" fill-rule="evenodd">
        <g id="00_Menu-01" transform="translate(-96.000000, -213.000000)" fill="#fff">
            <g id="Group-11" transform="translate(96.000000, 213.000000)">
                <path d="M38.9500318,20.9881816 C38.7875397,11.3923372 31.5638907,4.59499358 21.0938334,3.95595981 L21.0938334,1.15860766 C21.0938334,0.521488314 20.5743166,0 19.9392244,0 C19.302225,0 18.7849968,0.521488314 18.7849968,1.15860766 L18.7849968,3.91843715 C7.69243484,4.2036859 0,11.2694314 0,21.320908 C0,21.9614733 0.514176732,22.4795157 1.15422759,22.4795157 L18.3142169,22.4795157 L18.3142169,37.4751763 C18.3142169,41.623344 21.6777261,45 25.8128819,45 C29.9480376,45 33.3115468,41.623344 33.3115468,37.4751763 C33.3115468,36.834611 32.7931743,36.3165687 32.1573192,36.3165687 C31.5214642,36.3165687 31.0030916,36.8349939 31.0030916,37.4751763 C31.0030916,40.3471909 28.6721317,42.6827847 25.8132633,42.6827847 C22.9543949,42.6827847 20.6234349,40.3471909 20.6234349,37.4751763 L20.6234349,22.4795157 L37.7961856,22.4795157 C38.4816275,22.4795157 39,21.9610905 39,21.320908 C38.9931341,21.2010653 38.979021,21.0923261 38.9500318,20.9881816 Z M2.34240305,20.1623004 C2.93210426,11.8885552 9.80406866,6.20808481 19.46815,6.20808481 C29.1383344,6.20808481 36.012206,11.8839606 36.6007629,20.1623004 L2.34240305,20.1623004 Z" id="Shape" fill-rule="nonzero"></path>
                <path d="M25,13.0023796 C25,13.6623305 24.4629754,14.2025065 23.7998255,14.2025065 L21.1956134,14.2025065 L21.1956134,16.7998731 C21.1956134,17.4622035 20.6609685,18 19.9954389,18 C19.3354619,18 18.7952643,17.4622035 18.7952643,16.7998731 L18.7952643,14.2025065 L16.2001745,14.2025065 C15.5378178,14.2025065 15,13.6619338 15,13.0023796 C15,12.3404458 15.5378178,11.8022527 16.2001745,11.8022527 L18.7952643,11.8022527 L18.7952643,9.20012691 C18.7952643,8.54017609 19.3354619,8 19.9954389,8 C20.6613652,8 21.1956134,8.5405727 21.1956134,9.20012691 L21.1956134,11.8022527 L23.7998255,11.8022527 C24.4657518,11.8022527 25,12.3404458 25,13.0023796 Z" id="Path"></path>
            </g>
        </g>
    </g>
</svg>