<?xml version="1.0" encoding="UTF-8"?>
<svg width="50px" height="52px" viewBox="0 0 50 52" version="1.1" xmlns="http://www.w3.org/2000/svg" xmlns:xlink="http://www.w3.org/1999/xlink">
    <!-- Generator: Sketch 53.2 (72643) - https://sketchapp.com -->
    <title>16</title>
    <desc>Created with Sketch.</desc>
    <g id="20/02" stroke="none" stroke-width="1" fill="none" fill-rule="evenodd">
        <g id="00_Menu-01" transform="translate(-1236.000000, -942.000000)" fill="#FFFFFF" fill-rule="nonzero">
            <g id="16" transform="translate(1236.000000, 942.000000)">
                <path d="M20.8333333,1.77250906 L21.7287369,3.125 C25.0036963,1.13762539 29.1629704,1.13762539 32.4379297,3.125 L33.3333333,1.77250906 C29.5238263,-0.590836352 24.6428404,-0.590836352 20.8333333,1.77250906 Z" id="Shape"></path>
                <path d="M17.0499961,11.4583333 L15.6250238,11.4583333 C15.6229754,12.8888129 15.8841016,14.3053751 16.3930839,15.625 L17.7083333,15.0281051 C17.2719356,13.897716 17.0481258,12.6840168 17.0499961,11.4583333 Z" id="Shape"></path>
                <path d="M30.6512254,20.8333333 C29.5214638,21.2696998 28.3083457,21.4933176 27.0833333,21.4911794 L27.0833333,22.9166315 C28.513836,22.919126 29.9305104,22.6581792 31.25,22.1490256 L30.6512254,20.8333333 Z" id="Shape"></path>
                <path d="M37.1161802,11.4583333 C37.1181402,12.6838292 36.8944331,13.8974308 36.4583333,15.0277726 L37.7740271,15.625 C38.2830923,14.3055104 38.5440394,12.888836 38.5416339,11.4583333 L37.1161802,11.4583333 L37.1161802,11.4583333 Z" id="Shape"></path>
                <path d="M27.0833333,3.125 C22.4809375,3.125 18.75,6.8559375 18.75,11.4583333 C18.75,16.0607292 22.4809375,19.7916667 27.0833333,19.7916667 C31.6836458,19.7865625 35.4116667,16.0586458 35.4166667,11.4583333 C35.4166667,6.85604167 31.6857292,3.125 27.0833333,3.125 Z M27.0833333,18.125 C23.4014583,18.125 20.4166667,15.1402083 20.4166667,11.4583333 C20.4166667,7.77645833 23.4014583,4.79166667 27.0833333,4.79166667 C30.7652083,4.79166667 33.75,7.77645833 33.75,11.4583333 C33.7458333,15.1385417 30.7635417,18.1209375 27.0833333,18.125 Z" id="Shape"></path>
                <path d="M28.8020833,11.1814236 L27.8645833,10.8342014 L27.8645833,8.60677083 C28.2997396,8.77549913 28.6055013,9.21202257 28.6458333,9.72222222 L30.2083333,9.72222222 C30.1385091,8.25726997 29.1657552,7.04090712 27.8645833,6.79166667 L27.8645833,6.25 L26.3020833,6.25 L26.3020833,6.79166667 C25.0009115,7.04090712 24.0281576,8.25726997 23.9583333,9.72222222 C23.9889974,10.6592882 24.5552083,11.4698351 25.3645833,11.7352431 L26.3020833,12.0824653 L26.3020833,14.3081597 C25.8674154,14.1396484 25.5617513,13.7039931 25.5208333,13.1944444 L23.9583333,13.1944444 C24.0281576,14.6593967 25.0009115,15.8757595 26.3020833,16.125 L26.3020833,16.6666667 L27.8645833,16.6666667 L27.8645833,16.125 C29.1657552,15.8757595 30.1385091,14.6593967 30.2083333,13.1944444 C30.1776693,12.2573785 29.6114583,11.4469401 28.8020833,11.1814236 Z M26.3020833,10.2560764 L25.8567708,10.0894097 C25.6591146,10.015625 25.5208333,9.86458333 25.5208333,9.72222222 C25.5611654,9.21202257 25.8669271,8.77549913 26.3020833,8.60677083 L26.3020833,10.2560764 Z M27.8645833,14.3098958 L27.8645833,12.6605903 L28.3098958,12.8272569 C28.5075521,12.9010417 28.6458333,13.0520833 28.6458333,13.1944444 C28.6055013,13.7046441 28.2997396,14.1411675 27.8645833,14.3098958 Z" id="Shape"></path>
                <path d="M49.7560147,34.4235739 L47.0118381,31.6467242 L49.7560147,28.8698744 C50.0813284,28.540582 50.0813284,28.0067995 49.7560147,27.6775071 L38.9226419,16.7151486 C38.5972241,16.3859616 38.0697221,16.3859616 37.7443043,16.7151486 L27.0834321,27.5029526 L15.5892235,15.8718902 C15.2638056,15.5427033 14.7363037,15.5427033 14.4108859,15.8718902 L3.57751304,26.8342488 C3.25219936,27.1635412 3.25219936,27.6973237 3.57751304,28.0266161 L9.6550352,34.1764992 L1.48030276e-15,34.1764992 L1.48030276e-15,35.8630159 L10.8333728,35.8630159 C10.9462899,35.8633321 11.0580611,35.8400371 11.1617074,35.794712 L16.8375614,33.3332409 L29.166773,33.3332409 L29.166773,36.7062743 L20.0000729,36.7062743 C19.5398629,36.7062743 19.1667365,37.0837378 19.1667365,37.5495326 C19.1667365,37.8785088 19.3557997,38.1774439 19.650905,38.3152112 L30.4842778,43.3747613 C30.756883,43.500196 31.0750091,43.4680467 31.3176142,43.2904355 L45.7501668,32.7513926 L47.9443415,34.9716918 L31.3584477,49.3551495 L26.8159311,49.3551495 L11.1217072,43.5046231 C11.0294152,43.4701549 10.9318107,43.4524465 10.8333728,43.4523411 L0,43.4523411 L0,45.1388578 L10.6842056,45.1388578 L26.3784295,50.9893842 C26.4707215,51.0239578 26.568326,51.0415608 26.6667639,51.0416662 L31.6667821,51.0416662 C31.865637,51.041877 32.0578252,50.9697784 32.2084508,50.8384409 L49.7085146,35.6597907 C50.057995,35.3567447 50.0986202,34.8244379 49.7991399,34.4707964 C49.7853898,34.4545637 49.7710148,34.4387526 49.7560147,34.4235739 Z M16.6667274,31.6467242 C16.5538104,31.646408 16.4420391,31.6695976 16.3383929,31.7150281 L16.1358922,31.7993539 C16.9587077,29.6387152 19.3567372,28.5620851 21.4919534,29.3946973 C22.5313321,29.7999884 23.365606,30.61173 23.8067535,31.6467242 L16.6667274,31.6467242 L16.6667274,31.6467242 Z M25.5875933,31.6467242 C24.8580073,29.140982 22.5815407,27.4232647 20.0000729,27.4304324 C17.0511038,27.4483517 14.5729698,29.6770835 14.2092185,32.638396 L11.606709,33.7666757 L5.34501949,27.4304324 L15.0000547,17.6604412 L28.8217717,31.6467242 L25.5875933,31.6467242 Z M30.7409454,41.6368058 L23.7942534,38.392791 L30.0001094,38.392791 C30.4603194,38.392791 30.8334457,38.015222 30.8334457,37.5495326 L30.8334457,33.6823498 L35.3584622,38.2612427 L30.7409454,41.6368058 Z M30.9117794,31.3768815 C31.2274055,29.5768411 32.7767862,28.2672609 34.5834594,28.2736908 C36.6499253,28.2698961 38.3281606,29.961894 38.3320148,32.0529639 C38.3353481,33.8826237 37.0451351,35.4528761 35.2667952,35.7837496 L30.9117794,31.3768815 Z M36.6193002,37.1506714 C36.9536764,37.0134311 37.2732609,36.8422497 37.5739912,36.6406055 L36.7268006,37.2594517 L36.6193002,37.1506714 Z M45.2926651,31.0016315 L37.949305,36.3689709 C40.2887927,34.4823912 40.6740025,31.0337808 38.8095165,28.6664384 C36.9451347,26.2990959 33.5371014,25.9092998 31.1976137,27.7959849 C30.4735486,28.3798359 29.909484,29.1418252 29.5591703,30.0091165 L28.2616655,28.69532 L38.3333689,18.5036995 L47.9884041,28.2736908 L45.2926651,31.0016315 Z" id="Shape"></path>
            </g>
        </g>
    </g>
</svg>