<?xml version="1.0" encoding="UTF-8"?>
<svg width="31px" height="53px" viewBox="0 0 31 53" version="1.1" xmlns="http://www.w3.org/2000/svg" xmlns:xlink="http://www.w3.org/1999/xlink">
    <!-- Generator: Sketch 53.2 (72643) - https://sketchapp.com -->
    <title>17</title>
    <desc>Created with Sketch.</desc>
    <g id="20/02" stroke="none" stroke-width="1" fill="none" fill-rule="evenodd">
        <g id="00_Menu-01" transform="translate(-1447.000000, -941.000000)" fill="#FFFFFF" fill-rule="nonzero">
            <g id="17" transform="translate(1447.000000, 941.000000)">
                <path d="M24.8,7.97142857 C24.742221,7.97142857 24.68375,7.96520246 24.627355,7.95378777 C24.5706138,7.94237316 24.5149107,7.9254242 24.4616295,7.90328675 C24.4076563,7.88114929 24.356105,7.85382335 24.3083594,7.82165489 C24.2595759,7.7898323 24.2145982,7.75282122 24.1737724,7.71200525 C24.1329464,7.67118937 24.0959264,7.62622262 24.0630581,7.57745107 C24.0319196,7.52971723 24.0045871,7.47817849 23.9824443,7.42421836 C23.9603014,7.37095016 23.9426563,7.31526066 23.9319308,7.25853343 C23.9205134,7.20180621 23.9142857,7.14334952 23.9142857,7.08593046 C23.9142857,7.0285114 23.9205134,6.97005471 23.9319308,6.91228977 C23.9426563,6.85660026 23.9603014,6.80091075 23.9824443,6.74695071 C24.0045871,6.69368242 24.0319196,6.64214369 24.0630581,6.59440985 C24.0959264,6.54563829 24.1329464,6.50067155 24.1737724,6.45985566 C24.2145982,6.41903969 24.2595759,6.38202862 24.3083594,6.3491684 C24.356105,6.31734572 24.4076563,6.29001987 24.4616295,6.26788242 C24.5149107,6.24574497 24.5706138,6.22879591 24.627355,6.21738131 C24.741529,6.19420623 24.858471,6.19420623 24.9726451,6.21738131 C25.0293862,6.22879591 25.0850893,6.24574497 25.1383706,6.26788242 C25.1923438,6.29001987 25.2435492,6.31734572 25.2916407,6.3491684 C25.3400781,6.38202862 25.3854018,6.41903969 25.4262277,6.45985566 C25.4670536,6.50067155 25.5040737,6.54563829 25.535904,6.59440985 C25.5677344,6.64214369 25.595413,6.69368242 25.6175558,6.74695071 C25.6396987,6.80091075 25.6563058,6.85660026 25.6680693,6.91228977 C25.6794867,6.97005471 25.6857143,7.0285114 25.6857143,7.08593046 C25.6857143,7.14334952 25.6794867,7.20180621 25.6680693,7.25853343 C25.6563058,7.31526066 25.6396987,7.37095016 25.6175558,7.42421836 C25.595413,7.47817849 25.5677344,7.52971723 25.535904,7.57745107 C25.5040737,7.62622262 25.4670536,7.67118937 25.4262277,7.71200525 C25.3854018,7.75282122 25.3400781,7.7898323 25.2916407,7.82165489 C25.2435492,7.85382335 25.1923438,7.88114929 25.1383706,7.90328675 C25.0850893,7.9254242 25.0293862,7.94237316 24.9726451,7.95378777 C24.915904,7.96520246 24.8574331,7.97142857 24.8,7.97142857 Z" id="Shape"></path>
                <path d="M27.2166919,0 L3.78290663,0 C1.69712867,0 0,1.68526418 0,3.75646062 L0,48.5006822 C0,50.5718787 1.69712867,52.2571429 3.78290663,52.2571429 L27.2166919,52.2571429 C29.3028713,52.2571429 31,50.5718787 31,48.5006822 L31,3.75646062 C31,1.68526418 29.3028713,0 27.2166919,0 Z M28.9443344,48.5006822 C28.9443344,49.4463759 28.1694447,50.2158482 27.2166919,50.2158482 L3.78290663,50.2158482 C2.83055518,50.2158482 2.05566564,49.4463759 2.05566564,48.5006822 L2.05566564,8.57303884 L21.0850267,8.57303884 C21.6523422,8.57303884 22.1128595,8.11613963 22.1128595,7.55239151 C22.1128595,6.98904196 21.6523422,6.53174419 21.0850267,6.53174419 L2.05566564,6.53174419 L2.05566564,3.75646062 C2.05566564,2.81076699 2.83055518,2.04129464 3.78290663,2.04129464 L27.2166919,2.04129464 C28.1694447,2.04129464 28.9443344,2.81076699 28.9443344,3.75646062 L28.9443344,40.6217634 L7.79145463,40.6217634 C7.22373754,40.6217634 6.76362181,41.0786625 6.76362181,41.6424107 C6.76362181,42.2061589 7.22373754,42.663058 7.79145463,42.663058 L28.9443344,42.663058 L28.9443344,48.5006822 Z" id="Shape"></path>
                <path d="M15.5,49.6 C13.7909636,49.6 12.4,48.2094401 12.4,46.5 C12.4,44.7909636 13.7909636,43.4 15.5,43.4 C17.2094401,43.4 18.6,44.7909636 18.6,46.5 C18.6,48.2094401 17.2094401,49.6 15.5,49.6 Z M15.5,45.4666667 C14.9304557,45.4666667 14.4666667,45.9304557 14.4666667,46.5 C14.4666667,47.0699479 14.9304557,47.5333333 15.5,47.5333333 C16.0699479,47.5333333 16.5333333,47.0699479 16.5333333,46.5 C16.5333333,45.9304557 16.0699479,45.4666667 15.5,45.4666667 Z" id="Shape"></path>
                <path d="M13.9956954,23.9142857 L5.49001884,23.9142857 C4.90373494,23.9142857 4.42857143,23.4391037 4.42857143,22.8527969 L4.42857143,14.3472031 C4.42857143,13.7608963 4.90373494,13.2857143 5.49001884,13.2857143 L13.9956954,13.2857143 C14.5819793,13.2857143 15.0571429,13.7608963 15.0571429,14.3472031 L15.0571429,22.8527969 C15.0571429,23.4391037 14.5819793,23.9142857 13.9956954,23.9142857 Z M6.55146626,21.7913081 L12.934248,21.7913081 L12.934248,15.4086919 L6.55146626,15.4086919 L6.55146626,21.7913081 Z" id="Shape"></path>
                <path d="M26.395654,23.9142857 L17.8900602,23.9142857 C17.3037535,23.9142857 16.8285714,23.4391037 16.8285714,22.8527969 L16.8285714,14.3472031 C16.8285714,13.7608963 17.3037535,13.2857143 17.8900602,13.2857143 L26.395654,13.2857143 C26.9819607,13.2857143 27.4571429,13.7608963 27.4571429,14.3472031 L27.4571429,22.8527969 C27.4571429,23.4391037 26.9819607,23.9142857 26.395654,23.9142857 L26.395654,23.9142857 Z M18.9515491,21.7913081 L25.3341652,21.7913081 L25.3341652,15.4086919 L18.9515491,15.4086919 L18.9515491,21.7913081 Z" id="Shape"></path>
                <path d="M13.9956954,36.3142857 L5.49001884,36.3142857 C4.90373494,36.3142857 4.42857143,35.8391221 4.42857143,35.2528383 L4.42857143,26.7471617 C4.42857143,26.1608779 4.90373494,25.6857143 5.49001884,25.6857143 L13.9956954,25.6857143 C14.5819793,25.6857143 15.0571429,26.1608779 15.0571429,26.7471617 L15.0571429,35.2528383 C15.0571429,35.8391221 14.5819793,36.3142857 13.9956954,36.3142857 Z M6.55146626,34.1913909 L12.934248,34.1913909 L12.934248,27.8086091 L6.55146626,27.8086091 L6.55146626,34.1913909 Z" id="Shape"></path>
                <path d="M26.395654,36.3142857 L17.8900602,36.3142857 C17.3037535,36.3142857 16.8285714,35.8391221 16.8285714,35.2528383 L16.8285714,26.7471617 C16.8285714,26.1608779 17.3037535,25.6857143 17.8900602,25.6857143 L26.395654,25.6857143 C26.9819607,25.6857143 27.4571429,26.1608779 27.4571429,26.7471617 L27.4571429,31.0000001 C27.4571429,31.5862838 26.9819607,32.0614475 26.395654,32.0614475 C25.8093473,32.0614475 25.3341652,31.5862838 25.3341652,31.0000001 L25.3341652,27.8086091 L18.9515491,27.8086091 L18.9515491,34.1913909 L26.395654,34.1913909 C26.9819607,34.1913909 27.4571429,34.6665545 27.4571429,35.2528383 C27.4571429,35.8391221 26.9819607,36.3142857 26.395654,36.3142857 L26.395654,36.3142857 Z" id="Shape"></path>
            </g>
        </g>
    </g>
</svg>