<?xml version="1.0" encoding="UTF-8"?>
<svg width="53px" height="55px" viewBox="0 0 53 55" version="1.1" xmlns="http://www.w3.org/2000/svg" xmlns:xlink="http://www.w3.org/1999/xlink">
    <!-- Generator: Sketch 50.2 (55047) - http://www.bohemiancoding.com/sketch -->
    <title>Group 21</title>
    <desc>Created with Sketch.</desc>
    <defs></defs>
    <g id="18/12" stroke="none" stroke-width="1" fill="none" fill-rule="evenodd">
        <g id="Group-21">
            <path d="M33.4025984,34.4194608 C30.4776227,34.2646983 28.9875021,36.4873181 28.272889,37.5549703 C27.6744357,38.4487761 27.8985678,39.6688381 28.7733484,40.2803069 C29.648129,40.8917757 30.8422212,40.662769 31.4406745,39.7689632 C32.285008,38.5075963 32.6675166,38.3091762 33.1863979,38.3342728 C34.8471762,38.5337387 41.3882018,43.4312404 42.0431999,44.9626573 C42.2074611,45.4136123 42.2013205,45.8556789 42.0250339,46.3934263 C41.3383094,48.4759233 40.2015295,49.9393702 38.7369948,50.6253446 C37.3456356,51.2770726 35.6398262,51.217991 33.805064,50.4551582 C26.9539378,47.6019857 20.9683812,43.6202493 16.0149584,38.6202697 C16.0129115,38.6181784 16.0108646,38.6163484 16.0090736,38.614257 C11.125756,33.5580714 7.23593744,27.4501804 4.44810192,20.4607705 C3.70125061,18.5845364 3.64342656,16.8413667 4.2812821,15.4200089 C4.95265512,13.9236227 6.38495167,12.7621195 8.42133042,12.061244 C8.94942261,11.8803392 9.38131196,11.8745879 9.81857434,12.040853 C11.3227672,12.7124491 16.1157667,19.3954711 16.3091958,21.073285 C16.3368285,21.6233194 16.1410967,22.0138856 14.9076023,22.8750135 C14.0325658,23.485698 13.8076661,24.70576 14.4056077,25.5998272 C15.0032934,26.4938945 16.1971297,26.723424 17.0724221,26.1127395 C18.1178604,25.3833688 20.2926586,23.8650231 20.141702,20.8662379 C19.9753939,17.7338654 14.0118412,9.43864674 11.1623438,8.36811885 C9.89507607,7.88553167 8.56205266,7.87716613 7.19883794,8.34459076 C4.13160481,9.39995611 1.91638089,11.2816801 0.79264983,13.7861141 C-0.297307888,16.2157811 -0.262766975,19.0347071 0.893713984,21.9396414 C3.87728134,29.4194812 8.05161471,35.9642103 13.3005543,41.3926625 C13.3133472,41.4059951 13.326396,41.4190662 13.3397007,41.431876 C18.648767,46.7850382 25.0467676,51.0423146 32.3576718,54.0871103 C33.8216948,54.695442 35.2634582,55 36.6422803,55 C37.9405069,55 39.1834681,54.7302113 40.336367,54.190111 C42.7877484,53.0422019 44.6291629,50.7790615 45.6628317,47.6430291 C46.1192835,46.2527807 46.1118636,44.8912888 45.6431306,43.6024725 C44.5918076,40.68316 36.4731577,34.5899087 33.4025984,34.4194608 Z" id="Shape" fill="#FFFFFF"></path>
            <path d="M38.1590331,24.079707 C38.1590331,25.1403622 39.0188976,26.000256 40.0797726,25.9999999 C41.1403916,25.9999999 42,25.1401061 42,24.0794509 C41.9994879,16.8684296 36.1320268,11.0010243 28.9207395,11 C28.9204834,11 28.9207395,11 28.9204834,11 C27.8598645,11 27.0002561,11.8596377 27,12.9202929 C27,13.9809481 27.8596084,14.840842 28.9202274,14.841098 C34.0141177,14.8418662 38.158521,18.9861549 38.1590331,24.079707 Z" id="Shape" fill="#FFFFFF"></path>
            <path d="M45.9440061,7.32704224 C41.3937389,2.60181097 35.3435989,-0.000264304244 28.9088827,0 C27.8544159,0 27,0.88753365 27,1.98228183 C27,3.07703 27.8546704,3.96456365 28.9088827,3.96456365 C34.324001,3.96429935 39.4151184,6.15406001 43.244337,10.1305174 C47.0738101,14.1069747 49.1824892,19.3941168 49.1822347,25.0177182 C49.1822347,26.1124664 50.0366505,27 51.0911173,27 C52.1453296,27 53,26.1124664 53,25.0179825 C53.0002545,18.3350497 50.4945279,12.0522735 45.9440061,7.32704224 Z" id="Shape" fill="#FFFFFF"></path>
            <g id="Group-20"></g>
        </g>
    </g>
</svg>