<?xml version="1.0" encoding="UTF-8"?>
<svg width="38px" height="59px" viewBox="0 0 38 59" version="1.1" xmlns="http://www.w3.org/2000/svg" xmlns:xlink="http://www.w3.org/1999/xlink">
    <!-- Generator: Sketch 53.2 (72643) - https://sketchapp.com -->
    <title>2</title>
    <desc>Created with Sketch.</desc>
    <g id="20/02" stroke="none" stroke-width="1" fill="none" fill-rule="evenodd">
        <g id="10_01_Tool_Matching" transform="translate(-1041.000000, -571.000000)" fill-rule="nonzero">
            <g id="Group-2-Copy" transform="translate(475.000000, 275.000000)">
                <g id="2" transform="translate(566.000000, 296.000000)">
                    <ellipse id="Oval" fill="#785550" cx="18.9851246" cy="5.74476566" rx="6.70044128" ry="5.65222738"></ellipse>
                    <path d="M16.7512384,5.74449188 C16.7512384,3.28456148 18.6174306,1.19738515 21.2181993,0.420665893 C20.5186477,0.211770302 19.7690605,0.0921276102 18.9847189,0.0921276102 C15.2841139,0.0921276102 12.2842776,2.62269374 12.2842776,5.74435499 C12.2842776,8.86601624 15.2841139,11.3965824 18.9847189,11.3965824 C19.7690605,11.3965824 20.5186477,11.2770766 21.2181993,11.0680441 C18.6174306,10.2914617 16.7512384,8.20442227 16.7512384,5.74449188 Z" id="Shape" fill="#694B4B"></path>
                    <ellipse id="Oval" fill="#5A4146" cx="18.9851246" cy="20.4400093" rx="14.5184342" ry="14.6966125"></ellipse>
                    <path d="M16.1525694,17.2316961 C16.2481779,17.2612645 16.3009181,17.2750905 16.3009181,17.2750905 L17.7186833,35.0715986 C18.1366833,35.1082854 18.5572527,35.136348 18.9847189,35.136348 C27.0025836,35.136348 33.5024769,28.5566845 33.5024769,20.44042 C33.5024769,16.601587 32.3334021,14.169993 30.8381495,11.9734408 C28.2091174,8.20935035 23.8850961,5.74449188 18.9847189,5.74449188 C18.2344555,5.74449188 17.5032598,5.82005568 16.783694,5.93107425 C11.0551601,7.02428538 10.3392456,15.4351392 16.1525694,17.2316961 Z" id="Shape" fill="#694B4B"></path>
                    <path d="M0,57.7453944 L0,51.6478608 C0,49.8570534 1.04398577,48.2350325 2.66229893,47.5115638 L12.0699359,43.3055893 C12.8790249,42.9437865 13.4010178,42.1328445 13.4010178,41.2374408 L13.4010178,36.2669304 L24.5685552,36.2669304 L24.5685552,41.2374408 C24.5685552,42.1328445 25.090548,42.9439234 25.899637,43.3055893 L35.307274,47.5115638 C36.9255872,48.2350325 37.969573,49.8571903 37.969573,51.6478608 L37.969573,57.7453944 C37.969573,58.3697541 37.4696228,58.8758399 36.8528327,58.8758399 L1.11674021,58.8758399 C0.499950178,58.8758399 0,58.3697541 0,57.7453944 Z" id="Shape" fill="#E6AF78"></path>
                    <path d="M35.307274,47.5114269 L28.3684199,44.4092042 C26.9255018,48.2379072 23.2739858,50.9625847 18.9847189,50.9625847 C14.695452,50.9625847 11.0440712,48.2379072 9.60101779,44.4092042 L2.6621637,47.5114269 C1.04398577,48.2348956 0,49.8570534 0,51.6477239 L0,57.7452575 C0,58.3694803 0.499950178,58.875703 1.11674021,58.875703 L36.8526975,58.875703 C37.4694875,58.875703 37.9694377,58.3694803 37.9694377,57.7452575 L37.9694377,51.6477239 C37.9694377,49.8570534 36.925452,48.2348956 35.307274,47.5114269 Z" id="Shape" fill="#FFF082"></path>
                    <path d="M13.4010178,39.5432784 C15.1026335,40.3349188 16.9893808,40.7885754 18.9847189,40.7885754 C20.9800569,40.7885754 22.8669395,40.3349188 24.5684199,39.5432784 L24.5684199,36.2667935 L13.4010178,36.2667935 L13.4010178,39.5432784 Z" id="Shape" fill="#D29B6E"></path>
                    <path d="M29.0260498,22.7021323 C27.2328826,21.1235058 23.206911,18.3318886 16.3009181,17.2749536 C15.3452384,17.1286172 14.3814448,17.6048608 13.9562776,18.4835638 C13.2478007,19.9478863 11.7409181,22.2924176 8.74879004,24.3586497 C8.15485409,24.7687749 7.81718149,25.4663712 7.81718149,26.1940835 L7.81718149,26.8358283 C7.81718149,32.8568399 12.3056441,38.1141369 18.2412171,38.503181 C24.7454377,38.9294594 30.152121,33.71542 30.152121,27.2230928 L30.152121,25.2398167 C30.1522562,24.2683016 29.7502135,23.3396334 29.0260498,22.7021323 Z" id="Shape" fill="#F0C087"></path>
                    <path d="M29.6516299,23.4818631 C29.4800214,23.1960348 29.2809609,22.9266334 29.0260498,22.7021323 C27.2328826,21.1233689 23.2067758,18.3318886 16.3009181,17.2749536 C15.3451032,17.1286172 14.3814448,17.6047239 13.9562776,18.4835638 C13.7854804,18.8366056 13.5569395,19.2479629 13.2828256,19.6873828 C12.4254591,21.0658747 11.0274377,22.7812552 8.76664057,24.3461926 C8.1674306,24.7609722 7.81718149,25.4592529 7.81718149,26.1940835 L7.81718149,26.8358283 C7.81718149,32.6468492 12.0025907,37.7327587 17.6299715,38.4311763 C15.706306,36.4003991 14.517758,33.6502599 14.517758,30.6144292 L14.517758,23.5073248 C14.517758,22.3442993 15.3805338,21.373058 16.5237794,21.2561531 C19.2083915,20.9819606 24.260363,20.9584153 29.6516299,23.4818631 Z" id="Shape" fill="#E6AF78"></path>
                    <g id="Group" transform="translate(0.000000, 48.048724)" fill="#FFDC64">
                        <path d="M1.67024199,0.0828190255 C0.633153025,0.928257541 0,2.20996752 0,3.599 L0,9.69653364 C0,10.3208933 0.499950178,10.8269791 1.11674021,10.8269791 L7.81718149,10.8269791 L7.81718149,7.70997216 C7.81718149,6.81046172 7.46422776,5.94791183 6.83594306,5.31191647 L1.67024199,0.0828190255 Z" id="Shape"></path>
                        <path d="M36.2991957,0.0828190255 C37.3361495,0.928257541 37.9694377,2.20996752 37.9694377,3.599 L37.9694377,9.69653364 C37.9694377,10.3208933 37.4694875,10.8269791 36.8526975,10.8269791 L30.1522562,10.8269791 L30.1522562,7.70997216 C30.1522562,6.81046172 30.50521,5.94791183 31.1334947,5.31191647 L36.2991957,0.0828190255 Z" id="Shape"></path>
                    </g>
                </g>
            </g>
        </g>
    </g>
</svg>