<?xml version="1.0" encoding="UTF-8"?>
<svg width="62px" height="54px" viewBox="0 0 62 54" version="1.1" xmlns="http://www.w3.org/2000/svg" xmlns:xlink="http://www.w3.org/1999/xlink">
    <!-- Generator: Sketch 52.3 (67297) - http://www.bohemiancoding.com/sketch -->
    <title>1001380</title>
    <desc>Created with Sketch.</desc>
    <g id="20/02" stroke="none" stroke-width="1" fill="none" fill-rule="evenodd">
        <g id="02_01_Giải-pháp" transform="translate(-1299.000000, -1755.000000)" fill="#FFFFFF" fill-rule="nonzero">
            <g id="1001380" transform="translate(1299.000000, 1755.000000)">
                <path d="M59.578125,22.9380531 C60.9157266,22.9380531 62,21.8683274 62,20.5486726 L62,2.38938053 C62,1.63899558 61.6427734,0.932216814 61.0352461,0.480862832 C60.4275977,0.0293893805 59.6403672,-0.114331858 58.9094453,0.0928274336 C56.1043086,0.887654867 52.5288945,0.663411504 48.0020469,0.379314159 C45.1676055,0.201544248 41.9549883,8.48889643e-16 38.265625,8.48889643e-16 C35.3742695,8.48889643e-16 32.7765664,1.25776991 31,3.24585398 C29.2234336,1.25776991 26.6257305,8.48889643e-16 23.734375,8.48889643e-16 C20.0450117,8.48889643e-16 16.8323945,0.201544248 13.9979531,0.379433628 C9.47134766,0.663411504 5.89569141,0.887654867 3.09055469,0.0929469027 C2.35939063,-0.114212389 1.57240234,0.0295088496 0.964753906,0.480982301 C0.357226562,0.932336283 -5.44947117e-17,1.63911504 -5.44947117e-17,2.38938053 L-5.44947117e-17,42.0287257 C-0.00666015625,44.5861991 0.997933594,46.9918274 2.82850781,48.8026195 C4.65932422,50.6134115 7.095125,51.6106195 9.6875,51.6106195 L28.578125,51.6106195 C28.578125,52.9302743 29.6623984,54 31,54 C32.3376016,54 33.421875,52.9302743 33.421875,51.6106195 L52.3125,51.6106195 C57.6541875,51.6106195 62,47.323115 62,42.0530973 L62,32.4955752 C62,31.1759204 60.9157266,30.1061947 59.578125,30.1061947 C58.2405234,30.1061947 57.15625,31.1759204 57.15625,32.4955752 C57.15625,35.1305841 54.9833438,37.2743363 52.3125,37.2743363 L34.6328125,37.2743363 C34.2181875,37.2743363 33.81325,37.315792 33.421875,37.3945221 L33.421875,9.55752212 C33.421875,6.92251327 35.5947813,4.77876106 38.265625,4.77876106 C41.8010781,4.77876106 44.9321992,4.97528761 47.6945898,5.1485177 C51.3073008,5.37515044 54.3706094,5.56725664 57.15625,5.26906195 L57.15625,20.5486726 C57.15625,21.8683274 58.2405234,22.9380531 59.578125,22.9380531 Z M28.578125,46.8318584 L9.6875,46.8318584 C8.3913125,46.8318584 7.17335156,46.3331947 6.25800391,45.4278584 C5.34265625,44.5225221 4.84048047,43.319708 4.84375,42.0348186 L4.84373413,40.7672522 C6.26987109,41.5833451 7.92364844,42.0530973 9.6875,42.0530973 L27.3671875,42.0530973 C28.0348984,42.0530973 28.578125,42.5890354 28.578125,43.2477876 L28.578125,46.8318584 Z M28.578125,37.3945221 C28.18675,37.315792 27.7818125,37.2743363 27.3671875,37.2743363 L9.6875,37.2743363 C7.01665625,37.2743363 4.84375,35.1305841 4.84375,32.4955752 L4.84375,5.26918142 C7.62926953,5.56725664 10.6928203,5.37515044 14.3054102,5.1485177 C17.0679219,4.97528761 20.1989219,4.77876106 23.734375,4.77876106 C26.4052188,4.77876106 28.578125,6.92251327 28.578125,9.55752212 L28.578125,37.3945221 Z M34.6328125,42.0530973 L52.3125,42.0530973 C54.0763516,42.0530973 55.7301289,41.5833451 57.15625,40.7672522 L57.15625,42.0530973 C57.15625,44.6881062 54.9833437,46.8318584 52.3125,46.8318584 L33.421875,46.8318584 L33.421875,43.2477876 C33.421875,42.5890354 33.9652227,42.0530973 34.6328125,42.0530973 Z" id="Shape"></path>
            </g>
        </g>
    </g>
</svg>