<?xml version="1.0" encoding="UTF-8"?>
<svg width="62px" height="62px" viewBox="0 0 62 62" version="1.1" xmlns="http://www.w3.org/2000/svg" xmlns:xlink="http://www.w3.org/1999/xlink">
    <!-- Generator: Sketch 52.3 (67297) - http://www.bohemiancoding.com/sketch -->
    <title>1001405</title>
    <desc>Created with Sketch.</desc>
    <g id="20/02" stroke="none" stroke-width="1" fill="none" fill-rule="evenodd">
        <g id="02_01_Giải-pháp" transform="translate(-716.000000, -1752.000000)" fill="#FFFFFF" fill-rule="nonzero">
            <g id="1001405" transform="translate(716.000000, 1752.000000)">
                <path d="M61.9313398,17.3011484 C61.2626602,11.0525898 57.7480352,7.42789062 54.0493477,4.44196094 C48.850793,0.244972656 42.2442813,0.010171875 41.9656445,0.0021796875 C41.0894102,-0.0205859375 40.2721484,0.425402344 39.8214375,1.17460937 C39.3707266,1.9239375 39.3587383,2.85769141 39.7901953,3.61816016 C41.5983672,6.80522656 40.7566445,9.14633203 39.6907773,12.1104648 C38.8828398,14.3573594 37.96725,16.904082 38.361168,19.8705156 C38.7879023,23.0821641 40.372293,25.9259297 42.822625,27.8774766 C42.8765117,27.9203438 42.9319727,27.9605469 42.9863438,28.0023242 L42.9863438,35.2958008 C39.6855703,35.4887031 37.1803828,36.1694922 35.3667617,37.3619023 C33.142875,38.8242305 31.9672969,41.0627695 31.9672969,43.8354531 C31.9672969,45.8109766 32.5615039,47.4240664 33.0858398,48.8471602 C33.5901953,50.2163672 34.0258906,51.3989688 34.0258906,52.9171211 C34.0258906,53.5788984 33.9108516,54.8313711 33.1408164,55.7848633 C32.4062617,56.6941563 31.1560898,57.1551602 29.4244492,57.1551602 C15.4109961,57.1551602 4.84350781,45.911 4.84350781,31 C4.84350781,16.5779766 16.5766445,4.84483984 30.998668,4.84483984 C31.5523086,4.84483984 32.1126094,4.86239844 32.6640703,4.89691016 C33.9987656,4.97973828 35.148793,3.96594141 35.2323477,2.631125 C35.3159023,1.29630859 34.3015,0.146402344 32.9666836,0.0628476562 C32.3148359,0.0220390625 31.6526953,0.00133203125 30.998668,0.00133203125 C22.7186406,0.00133203125 14.93425,3.22581641 9.07936719,9.08057813 C3.22448438,14.935582 0,22.7199727 0,31 C0,39.3489297 2.92126563,47.1088594 8.22589844,52.8502773 C13.6763281,58.7497227 21.2048477,61.998668 29.4245703,61.998668 C33.4939258,61.998668 35.7406992,60.2744141 36.9088906,58.8279492 C38.1732305,57.2628125 38.8693984,55.1634102 38.8693984,52.917 C38.8693984,50.535207 38.2112539,48.748832 37.6308516,47.172918 C37.1727539,45.9292852 36.8109258,44.9472148 36.8109258,43.835332 C36.8109258,42.6802188 37.1635508,41.9772695 38.0280391,41.4088555 C38.7801523,40.9143086 40.2295234,40.3422617 42.9864648,40.1492383 L42.9864648,54.4389063 C42.9077539,56.333418 43.5781289,58.1658086 44.8779492,59.6051289 C46.1775273,61.0437227 47.959543,61.8905313 49.895832,61.9891016 C50.0221328,61.9955195 50.1479492,61.998668 50.2734023,61.998668 C52.0726133,61.998668 53.7848789,61.3413711 55.1298672,60.1266797 C56.568582,58.8272227 57.4153906,57.045207 57.5138398,55.108918 C57.5817734,53.7731328 56.5539297,52.6352148 55.2182656,52.5671602 C53.8815117,52.4993477 52.7445625,53.5271914 52.6765078,54.8627344 C52.6438125,55.5069531 52.3620273,56.0999492 51.8833438,56.5322539 C51.4046602,56.9645586 50.7873242,57.1853125 50.1418945,57.1517695 C49.4976758,57.1189531 48.9046797,56.8372891 48.4724961,56.3586055 C48.21275,56.0711289 47.7837148,55.4626328 47.8267031,54.6172773 L47.8298516,54.5557617 L47.8298516,30.1897617 C48.5750625,30.3355586 49.337832,30.4119688 50.1107734,30.4119688 C50.5385977,30.4119688 50.9698125,30.3893242 51.4017539,30.3433086 C51.8321211,30.2976563 52.2561914,30.2286328 52.6733594,30.1385391 L52.6733594,43.4720508 C52.6733594,44.8095313 53.7576328,45.8938047 55.0951133,45.8938047 C56.4325938,45.8938047 57.5168672,44.8095313 57.5168672,43.4720508 L57.5168672,27.847082 C58.1924492,27.3089414 58.8139023,26.6929375 59.3694805,26.0047617 C61.3584453,23.5413516 62.2682227,20.4505547 61.9313398,17.3011484 Z M55.601043,22.9621602 C54.4253438,24.4181914 52.7524336,25.3291797 50.8904961,25.5269258 C49.0444219,25.7227344 47.2510234,25.2122031 45.8406445,24.0886953 C44.3748047,22.9212305 43.4237344,21.1966133 43.1627773,19.2325938 C42.9238594,17.4342305 43.5378047,15.7264453 44.2488672,13.7492266 C45.0845352,11.4254375 46.0639414,8.70107031 45.5512305,5.50116797 C47.2475117,5.97936719 49.2609375,6.80123047 51.0068672,8.21076172 C54.4401172,10.9825977 56.6595234,13.5563242 57.1153203,17.8167656 C57.3145195,19.678582 56.7767422,21.5058867 55.601043,22.9621602 Z" id="Shape"></path>
                <path d="M27.1237891,13.3210391 C27.1237891,15.3240508 28.7533477,16.9537305 30.7564805,16.9537305 C32.7594922,16.9537305 34.3891719,15.3241719 34.3891719,13.3210391 C34.3891719,11.3180273 32.7596133,9.68834766 30.7564805,9.68834766 C28.7534688,9.68846875 27.1237891,11.3180273 27.1237891,13.3210391 Z" id="Shape"></path>
                <path d="M20.4912422,21.7031484 C21.9081602,20.2861094 21.9081602,17.9803633 20.4912422,16.5634453 L20.4911211,16.5633242 C19.0739609,15.1464062 16.7682148,15.1464062 15.3511758,16.5634453 C13.9342578,17.9804844 13.9342578,20.2862305 15.3512969,21.7032695 C16.0598164,22.4117891 16.9904219,22.7659883 17.9211484,22.7659883 C18.851875,22.7659883 19.7826016,22.411668 20.4912422,21.7031484 Z" id="Shape"></path>
                <path d="M9.68713672,31.8476562 C9.68713672,33.850668 11.3166953,35.4803477 13.3198281,35.4803477 C15.3228398,35.4803477 16.9525195,33.8507891 16.9525195,31.8476562 C16.9525195,29.8445234 15.3229609,28.2149648 13.3198281,28.2149648 C11.3166953,28.2149648 9.68713672,29.8446445 9.68713672,31.8476562 Z" id="Shape"></path>
                <path d="M18.2844297,47.4680234 C19.2547539,47.4680234 20.166832,47.0900898 20.8530703,46.4037305 C21.5391875,45.7174922 21.917,44.8050508 21.917,43.8343633 C21.917,42.8637969 21.5391875,41.9513555 20.8529492,41.264875 C19.4363945,39.8483203 17.1319805,39.8485625 15.7157891,41.264875 L15.715668,41.2649961 C15.0295508,41.9512344 14.6517383,42.8636758 14.6517383,43.8343633 C14.6517383,44.8050508 15.0295508,45.7173711 15.715668,46.4037305 C16.4017852,47.0900898 17.3139844,47.4680234 18.2844297,47.4680234 Z" id="Shape"></path>
            </g>
        </g>
    </g>
</svg>