<?xml version="1.0" encoding="UTF-8"?>
<svg width="51px" height="62px" viewBox="0 0 51 62" version="1.1" xmlns="http://www.w3.org/2000/svg" xmlns:xlink="http://www.w3.org/1999/xlink">
    <!-- Generator: Sketch 52.3 (67297) - http://www.bohemiancoding.com/sketch -->
    <title>1001417</title>
    <desc>Created with Sketch.</desc>
    <g id="20/02" stroke="none" stroke-width="1" fill="none" fill-rule="evenodd">
        <g id="02_01_Giải-pháp" transform="translate(-1018.000000, -1752.000000)" fill="#FFFFFF" fill-rule="nonzero">
            <g id="1001417" transform="translate(1018.000000, 1752.000000)">
                <path d="M50.6086822,14.4991602 L44.3441425,3.73210938 C44.0712687,3.26323438 43.6508762,2.90140625 43.150528,2.70535547 C42.8688364,2.59491797 36.1308785,0 25.6787383,0 C15.2516215,0 8.13152103,2.57808594 7.83350467,2.68791797 C7.30682243,2.88191016 6.86426636,3.25802734 6.58352804,3.75051563 L0.380712617,14.629457 C-0.102953271,15.4775977 -0.0357476636,16.5383789 0.550871495,17.3164063 L12.3598738,32.9820625 C9.74552804,36.0597813 8.16238318,40.0660469 8.16238318,44.4412852 C8.16238318,54.1230938 15.9133107,61.9998789 25.4404206,61.9998789 C27.8943785,61.9998789 30.2664743,61.4870469 32.4909322,60.4755508 C33.6922921,59.9291758 34.2305327,58.4966367 33.6928879,57.2756484 C33.1553621,56.0549023 31.7458318,55.5079219 30.5441145,56.0541758 C28.9361846,56.7853398 27.2191051,57.1561289 25.4404206,57.1561289 C18.541479,57.1561289 12.9287383,51.45225 12.9287383,44.4412852 C12.9287383,37.4303203 18.541479,31.7264414 25.4404206,31.7264414 C32.3393621,31.7264414 37.9521028,37.4303203 37.9521028,44.4412852 C37.9521028,45.8718867 37.7206963,47.2752422 37.2641986,48.6121172 C36.8327243,49.8757305 37.4908388,51.2555938 38.7343808,51.6940742 C39.9781612,52.1324336 41.3355,51.4637539 41.7670935,50.2000195 C42.3983972,48.3512813 42.7184579,46.4136602 42.7184579,44.4411641 C42.7184579,40.1644961 41.2053785,36.2405742 38.695535,33.1916758 L50.4664065,17.1812656 C51.0420631,16.3985156 51.0981869,15.3406406 50.6086822,14.4991602 Z M15.9481051,29.7775586 L5.30376168,15.6566953 L9.13948598,8.92933203 L22.2991542,27.1745273 C19.9894977,27.6074375 17.8396332,28.5088594 15.9481051,29.7775586 Z M20.3779556,16.3175039 C21.6330561,16.1209688 23.7192897,15.8636445 26.036215,15.8636445 C27.3524439,15.8636445 28.4193925,14.7793711 28.4193925,13.4417695 C28.4193925,12.104168 27.3524439,11.0198945 26.036215,11.0198945 C21.7812897,11.0198945 18.295535,11.7681328 18.1492079,11.7998594 C17.8594136,11.8629492 17.5951192,11.9793203 17.3598995,12.1332305 L13.104736,6.23366406 C15.9790864,5.57745703 20.3777173,4.84375 25.6787383,4.84375 C31.0749673,4.84375 35.4032944,5.60433984 38.1484766,6.26575391 L25.7976589,23.8316133 L20.3779556,16.3175039 Z M35.1482944,29.9238398 C33.3769977,28.6966758 31.3704813,27.7957383 29.2131098,27.3055508 L41.9679953,9.16522266 L45.6975491,15.5753203 L35.1482944,29.9238398 Z" id="Shape"></path>
                <path d="M25.9170561,52.3126211 C27.233285,52.3126211 28.3002336,51.2283477 28.3002336,49.8907461 L28.3002336,38.9923086 C28.3002336,38.0127812 27.7195724,37.1296445 26.828979,36.7547383 C25.938743,36.3799531 24.9136192,36.5871445 24.2317921,37.2796797 L20.8953435,40.6703047 C19.9647126,41.6160469 19.9647126,43.1495781 20.8953435,44.0954414 C21.6087477,44.8203086 22.661993,44.9895977 23.5338785,44.6031875 L23.5338785,49.890625 C23.5338785,51.2282266 24.6008271,52.3125 25.9170561,52.3126211 Z" id="Shape"></path>
            </g>
        </g>
    </g>
</svg>