<?xml version="1.0" encoding="UTF-8"?>
<svg width="62px" height="62px" viewBox="0 0 62 62" version="1.1" xmlns="http://www.w3.org/2000/svg" xmlns:xlink="http://www.w3.org/1999/xlink">
    <!-- Generator: Sketch 52.3 (67297) - http://www.bohemiancoding.com/sketch -->
    <title>833593</title>
    <desc>Created with Sketch.</desc>
    <g id="20/02" stroke="none" stroke-width="1" fill="none" fill-rule="evenodd">
        <g id="02_01_Giải-pháp" transform="translate(-445.000000, -1752.000000)" fill="#FFFFFF" fill-rule="nonzero">
            <g id="833593" transform="translate(445.000000, 1752.000000)">
                <circle id="Oval" cx="46.7421875" cy="25.4296875" r="2.421875"></circle>
                <path d="M52.3125,4.84375 L49.1640625,4.84375 L49.1640625,2.421875 C49.1640625,1.08427344 48.0797891,0 46.7421875,0 C45.4045859,0 44.3203125,1.08427344 44.3203125,2.421875 L44.3203125,4.84375 L33.3007813,4.84375 L33.3007813,2.421875 C33.3007813,1.08427344 32.2165078,0 30.8789063,0 C29.5413047,0 28.4570313,1.08427344 28.4570313,2.421875 L28.4570313,4.84375 L17.5585938,4.84375 L17.5585938,2.421875 C17.5585938,1.08427344 16.4743203,0 15.1367188,0 C13.7991172,0 12.7148438,1.08427344 12.7148438,2.421875 L12.7148438,4.84375 L9.6875,4.84375 C4.3458125,4.84375 0,9.1895625 0,14.53125 L0,52.3125 C0,57.6541875 4.3458125,62 9.6875,62 L28.2148438,62 C29.5524453,62 30.6367188,60.9157266 30.6367188,59.578125 C30.6367188,58.2405234 29.5524453,57.15625 28.2148438,57.15625 L9.6875,57.15625 C7.01665625,57.15625 4.84375,54.9833438 4.84375,52.3125 L4.84375,14.53125 C4.84375,11.8604063 7.01665625,9.6875 9.6875,9.6875 L12.7148438,9.6875 L12.7148438,12.109375 C12.7148438,13.4469766 13.7991172,14.53125 15.1367188,14.53125 C16.4743203,14.53125 17.5585938,13.4469766 17.5585938,12.109375 L17.5585938,9.6875 L28.4570313,9.6875 L28.4570313,12.109375 C28.4570313,13.4469766 29.5413047,14.53125 30.8789063,14.53125 C32.2165078,14.53125 33.3007813,13.4469766 33.3007813,12.109375 L33.3007813,9.6875 L44.3203125,9.6875 L44.3203125,12.109375 C44.3203125,13.4469766 45.4045859,14.53125 46.7421875,14.53125 C48.0797891,14.53125 49.1640625,13.4469766 49.1640625,12.109375 L49.1640625,9.6875 L52.3125,9.6875 C54.9833438,9.6875 57.15625,11.8604063 57.15625,14.53125 L57.15625,28.3359375 C57.15625,29.6735391 58.2405234,30.7578125 59.578125,30.7578125 C60.9157266,30.7578125 62,29.6735391 62,28.3359375 L62,14.53125 C62,9.1895625 57.6541875,4.84375 52.3125,4.84375 Z" id="Shape"></path>
                <path d="M47.3476563,32.6953125 C39.2682813,32.6953125 32.6953125,39.2682813 32.6953125,47.3476563 C32.6953125,55.4270313 39.2682813,62 47.3476563,62 C55.4270313,62 62,55.4270313 62,47.3476563 C62,39.2682813 55.4270313,32.6953125 47.3476563,32.6953125 Z M47.3476563,57.15625 C41.9392461,57.15625 37.5390625,52.7561875 37.5390625,47.3476563 C37.5390625,41.939125 41.9392461,37.5390625 47.3476563,37.5390625 C52.7560664,37.5390625 57.15625,41.939125 57.15625,47.3476563 C57.15625,52.7561875 52.7560664,57.15625 47.3476563,57.15625 Z" id="Shape"></path>
                <path d="M50.859375,44.9257813 L49.7695313,44.9257813 L49.7695313,42.3828125 C49.7695313,41.0452109 48.6852578,39.9609375 47.3476563,39.9609375 C46.0100547,39.9609375 44.9257813,41.0452109 44.9257813,42.3828125 L44.9257813,47.3476563 C44.9257813,48.6852578 46.0100547,49.7695313 47.3476563,49.7695313 L50.859375,49.7695313 C52.1969766,49.7695313 53.28125,48.6852578 53.28125,47.3476563 C53.28125,46.0100547 52.1969766,44.9257813 50.859375,44.9257813 Z" id="Shape"></path>
                <circle id="Oval" cx="36.2070313" cy="25.4296875" r="2.421875"></circle>
                <circle id="Oval" cx="25.671875" cy="35.9648438" r="2.421875"></circle>
                <circle id="Oval" cx="15.1367188" cy="25.4296875" r="2.421875"></circle>
                <circle id="Oval" cx="15.1367188" cy="35.9648438" r="2.421875"></circle>
                <circle id="Oval" cx="15.1367188" cy="46.5" r="2.421875"></circle>
                <circle id="Oval" cx="25.671875" cy="46.5" r="2.421875"></circle>
                <circle id="Oval" cx="25.671875" cy="25.4296875" r="2.421875"></circle>
            </g>
        </g>
    </g>
</svg>